{
.appVersion = "3204";
classes = (
{
automatic = 1;

glyphs = (
{
glyphname = A;
lastChange = "2023-08-23 07:31:03 +0000";
layers = (
{
anchors = (
{
name = bottom;
position = "{572, 0}";
},
{
name = ogonek;
position = "{1178, 0}";
},
{
name = top;
position = "{869, 1474}";
}
);
guideLines = (
{
angle = 67.5;
position = "{-284, -200}";
}
);
layerId = "AB099EFE-E788-4EFC-8633-CF147CB782A6";
paths = (
{
closed = 1;
nodes = (
"32 0 LINE",
"318 488 LINE",
"338 522 LINE",
"844 1380 LINE",
"852 1380 LINE",
"1016 516 LINE",
"1020 498 LINE",
"1114 0 LINE",
"1178 0 LINE",
"890 1474 LINE",
"834 1474 LINE",
"-42 0 LINE"
);
},
{
closed = 1;
nodes = (
"1046 478 LINE",
"1060 538 LINE",
"298 538 LINE",
"284 478 LINE"
);
}
);
width = 1346;
},
{
anchors = (
{
name = bottom;
position = "{648, 0}";
},
{
name = ogonek;
position = "{1394, 0}";
},
{
name = top;
position = "{945, 1474}";
}
);
guideLines = (
{
angle = 67.5;
position = "{-307, -200}";
}
);
layerId = "2D8F7115-C311-411E-929D-56333CF7FFB2";
paths = (
{
closed = 1;
nodes = (
"321 0 LINE",
"523 360 LINE",
"581 504 LINE",
"867 1052 LINE",
"875 1052 LINE",
"961 504 LINE",
"965 360 LINE",
"1017 0 LINE",
"1395 0 LINE",
"1101 1474 LINE",
"781 1474 LINE",
"-107 0 LINE"
);
},
{
closed = 1;
nodes = (
"1097 270 LINE",
"1159 570 LINE",
"369 570 LINE",
"305 270 LINE"
);
}
);
width = 1502;
},
{
anchors = (
{
name = bottom;
position = "{594, 0}";
},
{
name = ogonek;
position = "{1260, 0}";
},
{
name = top;
position = "{891, 1474}";
}
);
layerId = "8CC1EFAB-F3CB-44D1-8974-978FC52DD9AB";
paths = (
{
closed = 1;
nodes = (
"114 0 LINE",
"376 438 LINE",
"414 506 LINE",
"842 1222 LINE",
"850 1222 LINE",
"988 504 LINE",
"998 442 LINE",
"1086 0 LINE",
"1260 0 LINE",
"956 1474 LINE",
"814 1474 LINE",
"-80 0 LINE"
);
},
{
closed = 1;
nodes = (
"1064 393 LINE",
"1096 557 LINE",
"306 557 LINE",
"274 393 LINE"
);
}
);
width = 1392;
}
);
leftKerningGroup = LAT_A_UC;
rightKerningGroup = LAT_A_UC;
unicode = 0041;
},
{
glyphname = AE;
lastChange = "2023-05-23 02:53:39 +0000";
layers = (
{
anchors = (
{
name = bottom;
position = "{978, 0}";
},
{
name = top;
position = "{1311, 1474}";
}
);
background = {
components = (
{
name = E;
transform = "{1, 0, 0, 1, 369, 0}";
}
);
};
layerId = "AB099EFE-E788-4EFC-8633-CF147CB782A6";
paths = (
{
closed = 1;
nodes = (
"-14 0 LINE",
"646 878 LINE",
"1018 1366 LINE",
"1062 1366 LINE",
"1076 1474 LINE",
"1026 1474 LINE",
"-90 0 LINE"
);
},
{
closed = 1;
nodes = (
"940 476 LINE",
"946 538 LINE",
"336 538 LINE",
"320 476 LINE"
);
},
{
closed = 1;
nodes = (
"1567 0 LINE",
"1579 60 LINE",
"930 60 LINE",
"1079 1414 LINE",
"1852 1414 LINE",
"1864 1474 LINE",
"1036 1474 LINE",
"996 1194 LINE",
"864 0 LINE"
);
},
{
closed = 1;
nodes = (
"1618 724 LINE",
"1630 784 LINE",
"998 784 LINE",
"990 724 LINE"
);
}
);
width = 1813;
},
{
anchors = (
{
name = bottom;
position = "{1026, 0}";
},
{
name = top;
position = "{1321, 1474}";
}
);
background = {
components = (
{
name = E;
transform = "{1, 0, 0, 1, 379, 0}";
}
);
};
layerId = "2D8F7115-C311-411E-929D-56333CF7FFB2";
paths = (
{
closed = 1;
nodes = (
"298 0 LINE",
"702 642 LINE",
"1000 1154 LINE",
"1020 1154 LINE",
"1070 1474 LINE",
"818 1474 LINE",
"-114 0 LINE"
);
},
{
closed = 1;
nodes = (
"1158 284 LINE",
"1192 562 LINE",
"424 562 LINE",
"370 284 LINE"
);
},
{
closed = 1;
nodes = (
"1634 0 LINE",
"1700 328 LINE",
"1240 328 LINE",
"1328 1146 LINE",
"1866 1146 LINE",
"1932 1474 LINE",
"1056 1474 LINE",
"958 954 LINE",
"846 0 LINE"
);
},
{
closed = 1;
nodes = (
"1670 586 LINE",
"1732 896 LINE",
"1268 896 LINE",
"1228 586 LINE"
);
}
);
width = 1840;
},
{
anchors = (
{
name = bottom;
position = "{993, 0}";
},
{
name = top;
position = "{1311, 1474}";
}
);
layerId = "8CC1EFAB-F3CB-44D1-8974-978FC52DD9AB";
paths = (
{
closed = 1;
nodes = (
"100 0 LINE",
"664 788 LINE",
"1008 1284 LINE",
"1042 1284 LINE",
"1070 1474 LINE",
"942 1474 LINE",
"-102 0 LINE"
);
},
{
closed = 1;
nodes = (
"1020 393 LINE",
"1036 557 LINE",
"366 557 LINE",
"336 393 LINE"
);
},
{
closed = 1;
nodes = (
"1590 0 LINE",
"1622 164 LINE",
"1044 164 LINE",
"1170 1310 LINE",
"1853 1310 LINE",
"1886 1474 LINE",
"1040 1474 LINE",
"978 1102 LINE",
"854 0 LINE"
);
},
{
closed = 1;
nodes = (
"1633 668 LINE",
"1666 832 LINE",
"1098 832 LINE",
"1078 668 LINE"
);
}
);
width = 1814;
}
);
leftKerningGroup = LAT_AE_UC;
rightKerningGroup = LAT_E_UC;
rightMetricsKey = E;
unicode = 00C6;
},
{
glyphname = B;
lastChange = "2023-05-23 02:53:39 +0000";
layers = (
{
anchors = (
{
name = bottom;
position = "{474, 0}";
},
{
name = center;
position = "{220, 422}";
},
{
name = top;
position = "{763, 1474}";
}
);
background = {
paths = (
{
closed = 1;
nodes = (
"573 0 LINE SMOOTH",
"813 0 OFFCURVE",
"997 130 OFFCURVE",
"1027 354 CURVE SMOOTH",
"1055 550 OFFCURVE",
"934 728 OFFCURVE",
"756 766 CURVE",
"760 752 LINE",
"908 810 OFFCURVE",
"1018 924 OFFCURVE",
"1046 1078 CURVE SMOOTH",
"1088 1302 OFFCURVE",
"936 1474 OFFCURVE",
"710 1474 CURVE SMOOTH",
"414 1474 LINE",
"398 1414 LINE",
"706 1414 LINE SMOOTH",
"868 1414 OFFCURVE",
"1026 1302 OFFCURVE",
"982 1084 CURVE SMOOTH",
"946 912 OFFCURVE",
"796 790 OFFCURVE",
"634 790 CURVE SMOOTH",
"276 790 LINE",
"260 730 LINE",
"626 730 LINE SMOOTH",
"846 730 OFFCURVE",
"990 558 OFFCURVE",
"964 366 CURVE SMOOTH",
"936 164 OFFCURVE",
"771 60 OFFCURVE",
"571 60 CURVE SMOOTH",
"164 60 LINE",
"154 0 LINE"
);
},
{
closed = 1;
nodes = (
"163 0 LINE",
"461 1474 LINE",
"396 1474 LINE",
"98 0 LINE"
);
}
);
};
layerId = "AB099EFE-E788-4EFC-8633-CF147CB782A6";
paths = (
{
closed = 1;
nodes = (
"573 0 LINE SMOOTH",
"835 0 OFFCURVE",
"1031 163 OFFCURVE",
"1031 404 CURVE SMOOTH",
"1031 585 OFFCURVE",
"920 730 OFFCURVE",
"756 766 CURVE",
"760 752 LINE",
"935 820 OFFCURVE",
"1053 971 OFFCURVE",
"1053 1147 CURVE SMOOTH",
"1053 1340 OFFCURVE",
"911 1474 OFFCURVE",
"710 1474 CURVE SMOOTH",
"414 1474 LINE",
"398 1414 LINE",
"706 1414 LINE SMOOTH",
"848 1414 OFFCURVE",
"989 1328 OFFCURVE",
"989 1151 CURVE SMOOTH",
"989 962 OFFCURVE",
"828 790 OFFCURVE",
"634 790 CURVE SMOOTH",
"276 790 LINE",
"260 730 LINE",
"626 730 LINE SMOOTH",
"829 730 OFFCURVE",
"967 587 OFFCURVE",
"967 404 CURVE SMOOTH",
"967 201 OFFCURVE",
"798 60 OFFCURVE",
"571 60 CURVE SMOOTH",
"164 60 LINE",
"154 0 LINE"
);
},
{
closed = 1;
nodes = (
"163 0 LINE",
"461 1474 LINE",
"396 1474 LINE",
"98 0 LINE"
);
}
);
width = 1182;
},
{
anchors = (
{
name = bottom;
position = "{587, 0}";
},
{
name = center;
position = "{314, 463}";
},
{
name = top;
position = "{806, 1474}";
}
);
background = {
paths = (
{
closed = 1;
nodes = (
"745 0 LINE SMOOTH",
"1025 0 OFFCURVE",
"1209 166 OFFCURVE",
"1251 396 CURVE SMOOTH",
"1297 656 OFFCURVE",
"1125 776 OFFCURVE",
"945 802 CURVE",
"937 710 LINE",
"1087 762 OFFCURVE",
"1231 888 OFFCURVE",
"1259 1070 CURVE SMOOTH",
"1297 1314 OFFCURVE",
"1085 1474 OFFCURVE",
"781 1474 CURVE SMOOTH",
"669 1474 LINE",
"603 1154 LINE",
"749 1154 LINE SMOOTH",
"851 1154 OFFCURVE",
"905 1114 OFFCURVE",
"899 1036 CURVE SMOOTH",
"893 960 OFFCURVE",
"831 880 OFFCURVE",
"747 880 CURVE SMOOTH",
"549 880 LINE",
"495 610 LINE",
"765 610 LINE SMOOTH",
"855 610 OFFCURVE",
"901 560 OFFCURVE",
"891 478 CURVE SMOOTH",
"879 388 OFFCURVE",
"817 320 OFFCURVE",
"725 320 CURVE SMOOTH",
"437 320 LINE",
"373 0 LINE"
);
},
{
closed = 1;
nodes = (
"407 0 LINE",
"705 1474 LINE",
"329 1474 LINE",
"33 0 LINE"
);
}
);
};
layerId = "2D8F7115-C311-411E-929D-56333CF7FFB2";
paths = (
{
closed = 1;
nodes = (
"745 0 LINE SMOOTH",
"1037 0 OFFCURVE",
"1259 201 OFFCURVE",
"1259 468 CURVE SMOOTH",
"1259 690 OFFCURVE",
"1105 777 OFFCURVE",
"945 802 CURVE",
"937 710 LINE",
"1120 773 OFFCURVE",
"1263 937 OFFCURVE",
"1263 1121 CURVE SMOOTH",
"1263 1340 OFFCURVE",
"1061 1474 OFFCURVE",
"781 1474 CURVE SMOOTH",
"669 1474 LINE",
"603 1154 LINE",
"749 1154 LINE SMOOTH",
"846 1154 OFFCURVE",
"899 1118 OFFCURVE",
"899 1047 CURVE SMOOTH",
"899 969 OFFCURVE",
"835 880 OFFCURVE",
"747 880 CURVE SMOOTH",
"549 880 LINE",
"495 610 LINE",
"765 610 LINE SMOOTH",
"847 610 OFFCURVE",
"892 570 OFFCURVE",
"892 496 CURVE SMOOTH",
"892 406 OFFCURVE",
"825 320 OFFCURVE",
"725 320 CURVE SMOOTH",
"437 320 LINE",
"373 0 LINE"
);
},
{
closed = 1;
nodes = (
"407 0 LINE",
"705 1474 LINE",
"329 1474 LINE",
"33 0 LINE"
);
}
);
width = 1332;
},
{
anchors = (
{
name = bottom;
position = "{508, 0}";
},
{
name = center;
position = "{246, 438}";
},
{
name = top;
position = "{770, 1474}";
}
);
background = {
paths = (
{
closed = 1;
nodes = (
"632 0 LINE SMOOTH",
"902 0 OFFCURVE",
"1069 170 OFFCURVE",
"1106 372 CURVE SMOOTH",
"1138 546 OFFCURVE",
"1062 730 OFFCURVE",
"842 776 CURVE",
"842 734 LINE",
"968 790 OFFCURVE",
"1086 906 OFFCURVE",
"1114 1070 CURVE SMOOTH",
"1156 1322 OFFCURVE",
"958 1474 OFFCURVE",
"714 1474 CURVE SMOOTH",
"502 1474 LINE",
"468 1310 LINE",
"688 1310 LINE SMOOTH",
"852 1310 OFFCURVE",
"966 1242 OFFCURVE",
"931 1068 CURVE SMOOTH",
"905 938 OFFCURVE",
"810 834 OFFCURVE",
"666 834 CURVE SMOOTH",
"372 834 LINE",
"342 674 LINE",
"668 674 LINE SMOOTH",
"864 674 OFFCURVE",
"952 558 OFFCURVE",
"930 410 CURVE SMOOTH",
"906 248 OFFCURVE",
"784 164 OFFCURVE",
"618 164 CURVE SMOOTH",
"256 164 LINE",
"224 0 LINE"
);
},
{
closed = 1;
nodes = (
"249 0 LINE",
"546 1474 LINE",
"362 1474 LINE",
"66 0 LINE"
);
}
);
};
layerId = "8CC1EFAB-F3CB-44D1-8974-978FC52DD9AB";
paths = (
{
closed = 1;
nodes = (
"632 0 LINE SMOOTH",
"903 0 OFFCURVE",
"1113 193 OFFCURVE",
"1113 438 CURVE SMOOTH",
"1113 612 OFFCURVE",
"1008 740 OFFCURVE",
"842 776 CURVE",
"842 734 LINE",
"1005 806 OFFCURVE",
"1120 962 OFFCURVE",
"1120 1135 CURVE SMOOTH",
"1120 1339 OFFCURVE",
"961 1474 OFFCURVE",
"714 1474 CURVE SMOOTH",
"502 1474 LINE",
"468 1310 LINE",
"688 1310 LINE SMOOTH",
"845 1310 OFFCURVE",
"937 1243 OFFCURVE",
"937 1116 CURVE SMOOTH",
"937 976 OFFCURVE",
"826 834 OFFCURVE",
"666 834 CURVE SMOOTH",
"372 834 LINE",
"342 674 LINE",
"668 674 LINE SMOOTH",
"836 674 OFFCURVE",
"933 591 OFFCURVE",
"933 447 CURVE SMOOTH",
"933 280 OFFCURVE",
"806 164 OFFCURVE",
"618 164 CURVE SMOOTH",
"256 164 LINE",
"224 0 LINE"
);
},
{
closed = 1;
nodes = (
"249 0 LINE",
"546 1474 LINE",
"362 1474 LINE",
"66 0 LINE"
);
}
);
width = 1234;
}
);
leftKerningGroup = LAT_H_UC;
leftMetricsKey = H;
rightKerningGroup = LAT_B_UC;
unicode = 0042;
},
{
glyphname = C;
lastChange = "2023-05-23 02:53:39 +0000";
layers = (
{
anchors = (
{
name = base;
position = "{740, 0}";
},
{
name = bottom;
position = "{700, 0}";
},
{
name = cedilla;
position = "{700, 0}";
},
{
name = top;
position = "{996, 1474}";
}
);
background = {
paths = (
{
closed = 1;
nodes = (
"863 -16 OFFCURVE",
"1037 38 OFFCURVE",
"1183 158 CURVE",
"1165 224 LINE",
"1043 110 OFFCURVE",
"881 44 OFFCURVE",
"717 44 CURVE SMOOTH",
"297 44 OFFCURVE",
"166 412 OFFCURVE",
"236 754 CURVE SMOOTH",
"306 1106 OFFCURVE",
"569 1430 OFFCURVE",
"973 1430 CURVE SMOOTH",
"1137 1430 OFFCURVE",
"1293 1370 OFFCURVE",
"1367 1276 CURVE",
"1403 1334 LINE",
"1315 1424 OFFCURVE",
"1151 1490 OFFCURVE",
"971 1490 CURVE SMOOTH",
"531 1490 OFFCURVE",
"247 1132 OFFCURVE",
"173 766 CURVE SMOOTH",
"95 382 OFFCURVE",
"253 -16 OFFCURVE",
"713 -16 CURVE SMOOTH"
);
}
);
};
guideLines = (
{
angle = 67.5;
position = "{550, 360}";
},
{
angle = 112.5;
position = "{554, 360}";
}
);
layerId = "AB099EFE-E788-4EFC-8633-CF147CB782A6";
paths = (
{
closed = 1;
nodes = (
"866 -16 OFFCURVE",
"1033 36 OFFCURVE",
"1183 158 CURVE",
"1165 224 LINE",
"1043 111 OFFCURVE",
"887 44 OFFCURVE",
"711 44 CURVE SMOOTH",
"370 44 OFFCURVE",
"218 297 OFFCURVE",
"218 591 CURVE SMOOTH",
"218 1025 OFFCURVE",
"540 1430 OFFCURVE",
"971 1430 CURVE SMOOTH",
"1137 1430 OFFCURVE",
"1293 1370 OFFCURVE",
"1367 1276 CURVE",
"1403 1334 LINE",
"1315 1424 OFFCURVE",
"1151 1490 OFFCURVE",
"971 1490 CURVE SMOOTH",
"508 1490 OFFCURVE",
"154 1058 OFFCURVE",
"154 590 CURVE SMOOTH",
"154 262 OFFCURVE",
"331 -16 OFFCURVE",
"704 -16 CURVE SMOOTH"
);
}
);
width = 1343;
},
{
anchors = (
{
name = base;
position = "{725, 0}";
},
{
name = bottom;
position = "{715, 0}";
},
{
name = cedilla;
position = "{739, 0}";
},
{
name = top;
position = "{983, 1474}";
}
);
background = {
paths = (
{
closed = 1;
nodes = (
"954 -16 OFFCURVE",
"1092 18 OFFCURVE",
"1210 86 CURVE",
"1126 440 LINE",
"1056 362 OFFCURVE",
"928 320 OFFCURVE",
"818 320 CURVE SMOOTH",
"592 320 OFFCURVE",
"436 498 OFFCURVE",
"474 744 CURVE SMOOTH",
"504 940 OFFCURVE",
"656 1154 OFFCURVE",
"918 1154 CURVE SMOOTH",
"1030 1154 OFFCURVE",
"1134 1116 OFFCURVE",
"1202 1052 CURVE",
"1402 1364 LINE",
"1264 1444 OFFCURVE",
"1100 1490 OFFCURVE",
"932 1490 CURVE SMOOTH",
"492 1490 OFFCURVE",
"177 1166 OFFCURVE",
"110 796 CURVE SMOOTH",
"30 356 OFFCURVE",
"320 -16 OFFCURVE",
"806 -16 CURVE SMOOTH"
);
}
);
};
layerId = "2D8F7115-C311-411E-929D-56333CF7FFB2";
paths = (
{
closed = 1;
nodes = (
"954 -16 OFFCURVE",
"1092 18 OFFCURVE",
"1210 86 CURVE",
"1126 440 LINE",
"1056 362 OFFCURVE",
"928 320 OFFCURVE",
"818 320 CURVE SMOOTH",
"615 320 OFFCURVE",
"468 465 OFFCURVE",
"468 684 CURVE SMOOTH",
"468 931 OFFCURVE",
"661 1154 OFFCURVE",
"922 1154 CURVE SMOOTH",
"1029 1154 OFFCURVE",
"1134 1116 OFFCURVE",
"1202 1052 CURVE",
"1402 1364 LINE",
"1264 1444 OFFCURVE",
"1098 1490 OFFCURVE",
"936 1490 CURVE SMOOTH",
"470 1490 OFFCURVE",
"97 1113 OFFCURVE",
"97 666 CURVE SMOOTH",
"97 277 OFFCURVE",
"374 -16 OFFCURVE",
"806 -16 CURVE SMOOTH"
);
}
);
width = 1342;
},
{
anchors = (
{
name = base;
position = "{741, 0}";
},
{
name = bottom;
position = "{711, 0}";
},
{
name = cedilla;
position = "{719, 0}";
},
{
name = top;
position = "{975, 1474}";
}
);
background = {
paths = (
{
closed = 1;
nodes = (
"923 -16 OFFCURVE",
"1091 36 OFFCURVE",
"1205 126 CURVE",
"1161 306 LINE",
"1051 214 OFFCURVE",
"905 148 OFFCURVE",
"755 148 CURVE SMOOTH",
"448 148 OFFCURVE",
"263 423 OFFCURVE",
"325 749 CURVE SMOOTH",
"386 1072 OFFCURVE",
"666 1326 OFFCURVE",
"964 1326 CURVE SMOOTH",
"1107 1326 OFFCURVE",
"1241 1268 OFFCURVE",
"1317 1190 CURVE",
"1411 1352 LINE",
"1303 1436 OFFCURVE",
"1145 1490 OFFCURVE",
"978 1490 CURVE SMOOTH",
"582 1490 OFFCURVE",
"220 1185 OFFCURVE",
"145 761 CURVE SMOOTH",
"69 331 OFFCURVE",
"324 -16 OFFCURVE",
"756 -16 CURVE SMOOTH"
);
}
);
};
layerId = "8CC1EFAB-F3CB-44D1-8974-978FC52DD9AB";
paths = (
{
closed = 1;
nodes = (
"923 -16 OFFCURVE",
"1091 36 OFFCURVE",
"1205 126 CURVE",
"1161 306 LINE",
"1051 214 OFFCURVE",
"905 148 OFFCURVE",
"755 148 CURVE SMOOTH",
"488 148 OFFCURVE",
"312 360 OFFCURVE",
"312 632 CURVE SMOOTH",
"312 989 OFFCURVE",
"614 1326 OFFCURVE",
"963 1326 CURVE SMOOTH",
"1107 1326 OFFCURVE",
"1241 1268 OFFCURVE",
"1317 1190 CURVE",
"1411 1352 LINE",
"1303 1436 OFFCURVE",
"1145 1490 OFFCURVE",
"977 1490 CURVE SMOOTH",
"515 1490 OFFCURVE",
"131 1082 OFFCURVE",
"131 623 CURVE SMOOTH",
"131 257 OFFCURVE",
"375 -16 OFFCURVE",
"756 -16 CURVE SMOOTH"
);
}
);
width = 1331;
}
);
leftKerningGroup = LAT_O_UC;
leftMetricsKey = O;
rightKerningGroup = LAT_C_UC;
unicode = 0043;
},
{
glyphname = D;
lastChange = "2023-05-23 02:53:39 +0000";
layers = (
{
anchors = (
{
name = bottom;
position = "{584, 0}";
},
{
name = center;
position = "{286, 737}";
},
{
name = top;
position = "{875, 1474}";
}
);
background = {
paths = (
{
closed = 1;
nodes = (
"566 0 LINE SMOOTH",
"908 0 OFFCURVE",
"1210 228 OFFCURVE",
"1290 668 CURVE SMOOTH",
"1370 1106 OFFCURVE",
"1190 1474 OFFCURVE",
"786 1474 CURVE SMOOTH",
"396 1474 LINE",
"98 0 LINE"
);
},
{
closed = 1;
nodes = (
"449 1414 LINE",
"778 1414 LINE SMOOTH",
"1120 1414 OFFCURVE",
"1301 1120 OFFCURVE",
"1229 688 CURVE SMOOTH",
"1167 324 OFFCURVE",
"926 60 OFFCURVE",
"572 60 CURVE SMOOTH",
"176 60 LINE"
);
}
);
};
layerId = "AB099EFE-E788-4EFC-8633-CF147CB782A6";
paths = (
{
closed = 1;
nodes = (
"566 0 LINE SMOOTH",
"1025 0 OFFCURVE",
"1307 403 OFFCURVE",
"1307 856 CURVE SMOOTH",
"1307 1219 OFFCURVE",
"1127 1474 OFFCURVE",
"786 1474 CURVE SMOOTH",
"396 1474 LINE",
"98 0 LINE"
);
},
{
closed = 1;
nodes = (
"449 1414 LINE",
"778 1414 LINE SMOOTH",
"1070 1414 OFFCURVE",
"1243 1207 OFFCURVE",
"1243 858 CURVE SMOOTH",
"1243 438 OFFCURVE",
"991 60 OFFCURVE",
"572 60 CURVE SMOOTH",
"176 60 LINE"
);
}
);
width = 1386;
},
{
anchors = (
{
name = bottom;
position = "{579, 0}";
},
{
name = center;
position = "{380, 736}";
},
{
name = top;
position = "{880, 1474}";
}
);
background = {
paths = (
{
closed = 1;
nodes = (
"615 0 LINE SMOOTH",
"1017 0 OFFCURVE",
"1331 254 OFFCURVE",
"1407 638 CURVE SMOOTH",
"1497 1086 OFFCURVE",
"1213 1474 OFFCURVE",
"767 1474 CURVE SMOOTH",
"329 1474 LINE",
"33 0 LINE"
);
},
{
closed = 1;
nodes = (
"639 1146 LINE",
"743 1146 LINE SMOOTH",
"969 1146 OFFCURVE",
"1087 952 OFFCURVE",
"1051 722 CURVE SMOOTH",
"1011 478 OFFCURVE",
"841 328 OFFCURVE",
"661 328 CURVE SMOOTH",
"474 328 LINE"
);
}
);
};
layerId = "2D8F7115-C311-411E-929D-56333CF7FFB2";
paths = (
{
closed = 1;
nodes = (
"615 0 LINE SMOOTH",
"1078 0 OFFCURVE",
"1422 351 OFFCURVE",
"1422 794 CURVE SMOOTH",
"1422 1184 OFFCURVE",
"1157 1474 OFFCURVE",
"767 1474 CURVE SMOOTH",
"329 1474 LINE",
"33 0 LINE"
);
},
{
closed = 1;
nodes = (
"639 1146 LINE",
"743 1146 LINE SMOOTH",
"942 1146 OFFCURVE",
"1055 998 OFFCURVE",
"1055 801 CURVE SMOOTH",
"1055 566 OFFCURVE",
"892 328 OFFCURVE",
"661 328 CURVE SMOOTH",
"474 328 LINE"
);
}
);
width = 1444;
},
{
anchors = (
{
name = bottom;
position = "{573, 0}";
},
{
name = center;
position = "{313, 737}";
},
{
name = top;
position = "{870, 1474}";
}
);
background = {
paths = (
{
closed = 1;
nodes = (
"578 0 LINE SMOOTH",
"942 0 OFFCURVE",
"1248 238 OFFCURVE",
"1326 654 CURVE SMOOTH",
"1410 1100 OFFCURVE",
"1192 1474 OFFCURVE",
"770 1474 CURVE SMOOTH",
"362 1474 LINE",
"66 0 LINE"
);
},
{
closed = 1;
nodes = (
"513 1310 LINE",
"756 1310 LINE SMOOTH",
"1060 1310 OFFCURVE",
"1211 1048 OFFCURVE",
"1152 702 CURVE SMOOTH",
"1096 372 OFFCURVE",
"878 164 OFFCURVE",
"598 164 CURVE SMOOTH",
"282 164 LINE"
);
}
);
};
layerId = "8CC1EFAB-F3CB-44D1-8974-978FC52DD9AB";
paths = (
{
closed = 1;
nodes = (
"578 0 LINE SMOOTH",
"1039 0 OFFCURVE",
"1344 372 OFFCURVE",
"1344 839 CURVE SMOOTH",
"1344 1199 OFFCURVE",
"1132 1474 OFFCURVE",
"770 1474 CURVE SMOOTH",
"362 1474 LINE",
"66 0 LINE"
);
},
{
closed = 1;
nodes = (
"513 1310 LINE",
"756 1310 LINE SMOOTH",
"1016 1310 OFFCURVE",
"1165 1118 OFFCURVE",
"1165 845 CURVE SMOOTH",
"1165 484 OFFCURVE",
"948 164 OFFCURVE",
"598 164 CURVE SMOOTH",
"282 164 LINE"
);
}
);
width = 1399;
}
);
leftKerningGroup = LAT_H_UC;
leftMetricsKey = H;
rightKerningGroup = LAT_O_UC;
rightMetricsKey = O;
unicode = 0044;
},
{
glyphname = E;
lastChange = "2023-12-15 06:17:10 +0000";
layers = (
{
anchors = (
{
name = bottom;
position = "{506, 0}";
},
{
name = cedilla;
position = "{494, 0}";
},
{
name = ogonek;
position = "{830, 0}";
},
{
name = top;
position = "{776, 1474}";
},
{
name = topleft;
position = "{238, 1474}";
}
);
hints = (
{
horizontal = 1;
origin = "{0, 2}";
target = "{0, 11}";
type = TTStem;
options = 4;
},
{
horizontal = 1;
origin = "{0, 3}";
target = "{0, 6}";
type = TTStem;
options = 1;
},
{
horizontal = 1;
origin = "{0, 10}";
target = "{0, 7}";
type = TTStem;
options = 4;
}
);
layerId = "AB099EFE-E788-4EFC-8633-CF147CB782A6";
paths = (
{
closed = 1;
nodes = (
"830 0 LINE",
"842 60 LINE",
"175 60 LINE",
"310 724 LINE",
"882 724 LINE",
"894 784 LINE",
"322 784 LINE",
"449 1414 LINE",
"1115 1414 LINE",
"1127 1474 LINE",
"396 1474 LINE",
"98 0 LINE"
);
}
);
width = 1076;
},
{
anchors = (
{
name = bottom;
position = "{501, 0}";
},
{
name = cedilla;
position = "{497, 0}";
},
{
name = ogonek;
position = "{885, 0}";
},
{
name = top;
position = "{771, 1474}";
},
{
name = topleft;
position = "{232, 1474}";
}
);
hints = (
{
horizontal = 1;
origin = "{0, 2}";
target = "{0, 11}";
type = TTStem;
options = 4;
},
{
horizontal = 1;
origin = "{0, 3}";
target = "{0, 6}";
type = TTStem;
options = 1;
},
{
horizontal = 1;
origin = "{0, 10}";
target = "{0, 7}";
type = TTStem;
options = 4;
}
);
layerId = "2D8F7115-C311-411E-929D-56333CF7FFB2";
paths = (
{
closed = 1;
nodes = (
"885 0 LINE",
"951 328 LINE",
"477 328 LINE",
"526 586 LINE",
"922 586 LINE",
"985 902 LINE",
"589 902 LINE",
"638 1146 LINE",
"1111 1146 LINE",
"1181 1474 LINE",
"329 1474 LINE",
"33 0 LINE"
);
}
);
width = 1089;
},
{
anchors = (
{
name = bottom;
position = "{496, 0}";
},
{
name = cedilla;
position = "{487, 0}";
},
{
name = ogonek;
position = "{844, 0}";
},
{
name = top;
position = "{766, 1474}";
},
{
name = topleft;
position = "{227, 1474}";
}
);
hints = (
{
horizontal = 1;
origin = "{0, 2}";
target = "{0, 11}";
type = TTStem;
options = 4;
},
{
horizontal = 1;
origin = "{0, 3}";
target = "{0, 6}";
type = TTStem;
options = 1;
},
{
horizontal = 1;
origin = "{0, 10}";
target = "{0, 7}";
type = TTStem;
options = 4;
}
);
layerId = "8CC1EFAB-F3CB-44D1-8974-978FC52DD9AB";
paths = (
{
closed = 1;
nodes = (
"844 0 LINE",
"876 164 LINE",
"283 164 LINE",
"384 668 LINE",
"887 668 LINE",
"920 832 LINE",
"417 832 LINE",
"513 1310 LINE",
"1109 1310 LINE",
"1142 1474 LINE",
"362 1474 LINE",
"66 0 LINE"
);
}
);
width = 1070;
}
);
leftKerningGroup = LAT_H_UC;
leftMetricsKey = H;
rightKerningGroup = LAT_E_UC;
unicode = 0045;
},
{
glyphname = Schwa;
lastChange = "2023-05-23 02:53:39 +0000";
layers = (
{
anchors = (
{
name = bottom;
position = "{593, -49}";
},
{
name = top;
position = "{917, 1535}";
}
);
layerId = "AB099EFE-E788-4EFC-8633-CF147CB782A6";
paths = (
{
closed = 1;
nodes = (
"1081 -16 OFFCURVE",
"1375 466 OFFCURVE",
"1375 931 CURVE SMOOTH",
"1375 1302 OFFCURVE",
"1188 1490 OFFCURVE",
"884 1490 CURVE SMOOTH",
"664 1490 OFFCURVE",
"446 1392 OFFCURVE",
"300 1208 CURVE",
"354 1172 LINE",
"502 1350 OFFCURVE",
"692 1430 OFFCURVE",
"882 1430 CURVE SMOOTH",
"1153 1430 OFFCURVE",
"1315 1266 OFFCURVE",
"1315 940 CURVE SMOOTH",
"1315 516 OFFCURVE",
"1042 44 OFFCURVE",
"622 44 CURVE SMOOTH",
"362 44 OFFCURVE",
"206 224 OFFCURVE",
"206 523 CURVE SMOOTH",
"206 577 OFFCURVE",
"211 635 OFFCURVE",
"222 698 CURVE",
"1312 698 LINE",
"1326 758 LINE",
"170 758 LINE",
"156 665 OFFCURVE",
"148 589 OFFCURVE",
"148 520 CURVE SMOOTH",
"148 190 OFFCURVE",
"320 -16 OFFCURVE",
"621 -16 CURVE SMOOTH"
);
}
);
width = 1440;
},
{
anchors = (
{
name = bottom;
position = "{671, -49}";
},
{
name = top;
position = "{959, 1515}";
}
);
layerId = "2D8F7115-C311-411E-929D-56333CF7FFB2";
paths = (
{
closed = 1;
nodes = (
"1153 -16 OFFCURVE",
"1508 397 OFFCURVE",
"1508 869 CURVE SMOOTH",
"1508 1265 OFFCURVE",
"1258 1490 OFFCURVE",
"896 1490 CURVE SMOOTH",
"625 1490 OFFCURVE",
"389 1364 OFFCURVE",
"235 1158 CURVE",
"531 992 LINE",
"609 1086 OFFCURVE",
"719 1170 OFFCURVE",
"873 1170 CURVE SMOOTH",
"1047 1170 OFFCURVE",
"1139 1062 OFFCURVE",
"1139 862 CURVE SMOOTH",
"1139 586 OFFCURVE",
"963 296 OFFCURVE",
"686 296 CURVE SMOOTH",
"527 296 OFFCURVE",
"407 391 OFFCURVE",
"407 521 CURVE SMOOTH",
"407 533 OFFCURVE",
"408 549 OFFCURVE",
"411 562 CURVE",
"1203 562 LINE",
"1257 856 LINE",
"121 856 LINE",
"88 717 OFFCURVE",
"71 614 OFFCURVE",
"71 529 CURVE SMOOTH",
"71 199 OFFCURVE",
"302 -16 OFFCURVE",
"659 -16 CURVE SMOOTH"
);
}
);
width = 1517;
},
{
anchors = (
{
name = bottom;
position = "{648, -49}";
},
{
name = top;
position = "{957, 1529}";
}
);
layerId = "8CC1EFAB-F3CB-44D1-8974-978FC52DD9AB";
paths = (
{
closed = 1;
nodes = (
"1114 -20 OFFCURVE",
"1459 428 OFFCURVE",
"1459 913 CURVE SMOOTH",
"1459 1283 OFFCURVE",
"1213 1490 OFFCURVE",
"897 1490 CURVE SMOOTH",
"667 1490 OFFCURVE",
"429 1386 OFFCURVE",
"275 1190 CURVE",
"421 1110 LINE",
"529 1242 OFFCURVE",
"707 1326 OFFCURVE",
"885 1326 CURVE SMOOTH",
"1120 1326 OFFCURVE",
"1278 1171 OFFCURVE",
"1278 899 CURVE SMOOTH",
"1278 514 OFFCURVE",
"1028 144 OFFCURVE",
"659 144 CURVE SMOOTH",
"429 144 OFFCURVE",
"273 285 OFFCURVE",
"273 519 CURVE SMOOTH",
"273 554 OFFCURVE",
"277 595 OFFCURVE",
"285 635 CURVE",
"1275 635 LINE",
"1309 795 LINE",
"149 795 LINE",
"123 674 OFFCURVE",
"109 577 OFFCURVE",
"109 517 CURVE SMOOTH",
"109 204 OFFCURVE",
"315 -20 OFFCURVE",
"649 -20 CURVE SMOOTH"
);
}
);
width = 1499;
}
);
leftKerningGroup = LAT_SCHWA_UC;
leftMetricsKey = O;
rightKerningGroup = LAT_O_UC;
rightMetricsKey = O;
unicode = 018F;
},
{
glyphname = F;
lastChange = "2023-05-23 02:53:39 +0000";
layers = (
{
anchors = (
{
name = bottom;
position = "{130, 0}";
},
{
name = center;
position = "{206, 378}";
},
{
name = top;
position = "{781, 1474}";
}
);
layerId = "AB099EFE-E788-4EFC-8633-CF147CB782A6";
paths = (
{
closed = 1;
nodes = (
"164 0 LINE",
"310 726 LINE",
"874 726 LINE",
"886 786 LINE",
"322 786 LINE",
"449 1414 LINE",
"1092 1414 LINE",
"1104 1474 LINE",
"396 1474 LINE",
"98 0 LINE"
);
}
);
width = 995;
},
{
anchors = (
{
name = bottom;
position = "{220, 0}";
},
{
name = center;
position = "{277, 291}";
},
{
name = top;
position = "{818, 1474}";
}
);
layerId = "2D8F7115-C311-411E-929D-56333CF7FFB2";
paths = (
{
closed = 1;
nodes = (
"408 0 LINE",
"514 524 LINE",
"905 524 LINE",
"971 852 LINE",
"580 852 LINE",
"638 1146 LINE",
"1115 1146 LINE",
"1181 1474 LINE",
"329 1474 LINE",
"33 0 LINE"
);
}
);
width = 1051;
},
{
anchors = (
{
name = bottom;
position = "{156, 0}";
},
{
name = center;
position = "{225, 344}";
},
{
name = top;
position = "{788, 1474}";
}
);
layerId = "8CC1EFAB-F3CB-44D1-8974-978FC52DD9AB";
paths = (
{
closed = 1;
nodes = (
"250 0 LINE",
"379 646 LINE",
"877 646 LINE",
"910 810 LINE",
"412 810 LINE",
"513 1310 LINE",
"1091 1310 LINE",
"1124 1474 LINE",
"362 1474 LINE",
"66 0 LINE"
);
}
);
width = 1008;
}
);
leftKerningGroup = LAT_H_UC;
leftMetricsKey = H;
rightKerningGroup = LAT_F_UC;
unicode = 0046;
},
{
glyphname = G;
lastChange = "2023-05-23 06:49:22 +0000";
layers = (
{
anchors = (
{
name = bottom;
position = "{656, 0}";
},
{
name = hook;
position = "{1382, 1326}";
},
{
name = top;
position = "{954, 1474}";
}
);
background = {
paths = (
{
closed = 1;
nodes = (
"1072 -16 OFFCURVE",
"1337 302 OFFCURVE",
"1406 700 CURVE SMOOTH",
"1416 758 LINE",
"788 758 LINE",
"778 698 LINE",
"1372 698 LINE",
"1348 720 LINE",
"1264 272 OFFCURVE",
"990 44 OFFCURVE",
"708 44 CURVE SMOOTH",
"392 44 OFFCURVE",
"159 324 OFFCURVE",
"231 730 CURVE SMOOTH",
"295 1088 OFFCURVE",
"582 1430 OFFCURVE",
"966 1430 CURVE SMOOTH",
"1118 1430 OFFCURVE",
"1258 1376 OFFCURVE",
"1344 1268 CURVE",
"1382 1326 LINE",
"1306 1406 OFFCURVE",
"1160 1490 OFFCURVE",
"966 1490 CURVE SMOOTH",
"576 1490 OFFCURVE",
"242 1162 OFFCURVE",
"168 744 CURVE SMOOTH",
"86 282 OFFCURVE",
"356 -16 OFFCURVE",
"708 -16 CURVE SMOOTH"
);
}
);
};
layerId = "AB099EFE-E788-4EFC-8633-CF147CB782A6";
paths = (
{
closed = 1;
nodes = (
"1073 -16 OFFCURVE",
"1337 302 OFFCURVE",
"1406 700 CURVE SMOOTH",
"1416 758 LINE",
"788 758 LINE",
"778 698 LINE",
"1372 698 LINE",
"1348 720 LINE",
"1264 272 OFFCURVE",
"991 44 OFFCURVE",
"706 44 CURVE SMOOTH",
"431 44 OFFCURVE",
"218 257 OFFCURVE",
"218 592 CURVE SMOOTH",
"218 1010 OFFCURVE",
"549 1430 OFFCURVE",
"967 1430 CURVE SMOOTH",
"1117 1430 OFFCURVE",
"1257 1376 OFFCURVE",
"1343 1268 CURVE",
"1382 1326 LINE",
"1306 1406 OFFCURVE",
"1161 1490 OFFCURVE",
"964 1490 CURVE SMOOTH",
"511 1490 OFFCURVE",
"153 1045 OFFCURVE",
"153 589 CURVE SMOOTH",
"153 211 OFFCURVE",
"399 -16 OFFCURVE",
"708 -16 CURVE SMOOTH"
);
}
);
width = 1493;
},
{
anchors = (
{
name = bottom;
position = "{679, 0}";
},
{
name = hook;
position = "{1418, 1364}";
},
{
name = top;
position = "{964, 1474}";
}
);
background = {
paths = (
{
closed = 1;
nodes = (
"1124 -16 OFFCURVE",
"1402 248 OFFCURVE",
"1468 572 CURVE SMOOTH",
"1526 858 LINE",
"826 858 LINE",
"768 562 LINE",
"1282 562 LINE",
"1122 628 LINE",
"1106 434 OFFCURVE",
"970 313 OFFCURVE",
"786 313 CURVE SMOOTH",
"556 313 OFFCURVE",
"428 518 OFFCURVE",
"476 762 CURVE SMOOTH",
"522 990 OFFCURVE",
"714 1154 OFFCURVE",
"934 1154 CURVE SMOOTH",
"1050 1154 OFFCURVE",
"1180 1110 OFFCURVE",
"1218 1052 CURVE",
"1418 1364 LINE",
"1312 1434 OFFCURVE",
"1144 1490 OFFCURVE",
"954 1490 CURVE SMOOTH",
"530 1490 OFFCURVE",
"188 1202 OFFCURVE",
"110 810 CURVE SMOOTH",
"24 370 OFFCURVE",
"314 -16 OFFCURVE",
"758 -16 CURVE SMOOTH"
);
}
);
};
layerId = "2D8F7115-C311-411E-929D-56333CF7FFB2";
paths = (
{
closed = 1;
nodes = (
"1124 -16 OFFCURVE",
"1402 248 OFFCURVE",
"1468 572 CURVE SMOOTH",
"1526 858 LINE",
"826 858 LINE",
"768 562 LINE",
"1282 562 LINE",
"1122 628 LINE",
"1106 434 OFFCURVE",
"970 313 OFFCURVE",
"786 313 CURVE SMOOTH",
"588 313 OFFCURVE",
"466 464 OFFCURVE",
"466 662 CURVE SMOOTH",
"466 927 OFFCURVE",
"673 1154 OFFCURVE",
"934 1154 CURVE SMOOTH",
"1050 1154 OFFCURVE",
"1180 1110 OFFCURVE",
"1218 1052 CURVE",
"1418 1364 LINE",
"1312 1434 OFFCURVE",
"1144 1490 OFFCURVE",
"954 1490 CURVE SMOOTH",
"481 1490 OFFCURVE",
"95 1121 OFFCURVE",
"95 656 CURVE SMOOTH",
"95 284 OFFCURVE",
"367 -16 OFFCURVE",
"758 -16 CURVE SMOOTH"
);
}
);
width = 1531;
},
{
anchors = (
{
name = bottom;
position = "{712, 0}";
},
{
name = hook;
position = "{1397, 1342}";
},
{
name = top;
position = "{947, 1474}";
}
);
background = {
paths = (
{
closed = 1;
nodes = (
"1101 -16 OFFCURVE",
"1337 239 OFFCURVE",
"1407 636 CURVE SMOOTH",
"1435 794 LINE",
"787 794 LINE",
"757 634 LINE",
"1307 634 LINE",
"1229 690 LINE",
"1195 368 OFFCURVE",
"1015 148 OFFCURVE",
"747 148 CURVE SMOOTH",
"413 148 OFFCURVE",
"271 474 OFFCURVE",
"333 786 CURVE SMOOTH",
"385 1052 OFFCURVE",
"589 1326 OFFCURVE",
"935 1326 CURVE SMOOTH",
"1117 1326 OFFCURVE",
"1235 1250 OFFCURVE",
"1299 1180 CURVE",
"1397 1342 LINE",
"1309 1414 OFFCURVE",
"1161 1490 OFFCURVE",
"941 1490 CURVE SMOOTH",
"479 1490 OFFCURVE",
"221 1154 OFFCURVE",
"155 812 CURVE SMOOTH",
"73 384 OFFCURVE",
"293 -16 OFFCURVE",
"741 -16 CURVE SMOOTH"
);
}
);
};
layerId = "8CC1EFAB-F3CB-44D1-8974-978FC52DD9AB";
paths = (
{
closed = 1;
nodes = (
"1101 -16 OFFCURVE",
"1337 239 OFFCURVE",
"1407 636 CURVE SMOOTH",
"1435 794 LINE",
"787 794 LINE",
"757 634 LINE",
"1307 634 LINE",
"1229 690 LINE",
"1194 365 OFFCURVE",
"1015 148 OFFCURVE",
"744 148 CURVE SMOOTH",
"464 148 OFFCURVE",
"319 381 OFFCURVE",
"319 650 CURVE SMOOTH",
"319 1008 OFFCURVE",
"576 1326 OFFCURVE",
"939 1326 CURVE SMOOTH",
"1116 1326 OFFCURVE",
"1235 1250 OFFCURVE",
"1299 1180 CURVE",
"1397 1342 LINE",
"1301 1421 OFFCURVE",
"1147 1490 OFFCURVE",
"946 1490 CURVE SMOOTH",
"473 1490 OFFCURVE",
"138 1110 OFFCURVE",
"138 648 CURVE SMOOTH",
"138 276 OFFCURVE",
"355 -16 OFFCURVE",
"741 -16 CURVE SMOOTH"
);
}
);
width = 1486;
}
);
leftKerningGroup = LAT_O_UC;
leftMetricsKey = O;
rightKerningGroup = LAT_G_UC;
unicode = 0047;
},
{
glyphname = H;
lastChange = "2023-05-23 02:53:39 +0000";
layers = (
{
anchors = (
{
name = bottom;
position = "{588, 0}";
},
{
name = center;
position = "{804, 1083}";
},
{
name = top;
position = "{882, 1474}";
}
);
layerId = "AB099EFE-E788-4EFC-8633-CF147CB782A6";
paths = (
{
closed = 1;
nodes = (
"164 0 LINE",
"308 724 LINE",
"1160 724 LINE",
"1020 0 LINE",
"1085 0 LINE",
"1371 1474 LINE",
"1306 1474 LINE",
"1172 784 LINE",
"320 784 LINE",
"456 1474 LINE",
"391 1474 LINE",
"99 0 LINE"
);
}
);
width = 1391;
},
{
anchors = (
{
name = bottom;
position = "{656, 0}";
},
{
name = center;
position = "{892, 1183}";
},
{
name = top;
position = "{949, 1474}";
}
);
guideLines = (
{
angle = 78.75;
position = "{-46, 0}";
}
);
layerId = "2D8F7115-C311-411E-929D-56333CF7FFB2";
paths = (
{
closed = 1;
nodes = (
"408 0 LINE",
"524 579 LINE",
"1020 579 LINE",
"905 0 LINE",
"1280 0 LINE",
"1574 1474 LINE",
"1199 1474 LINE",
"1085 905 LINE",
"589 905 LINE",
"703 1474 LINE",
"327 1474 LINE",
"33 0 LINE"
);
}
);
width = 1528;
},
{
anchors = (
{
name = bottom;
position = "{608, 0}";
},
{
name = center;
position = "{829, 1121}";
},
{
name = top;
position = "{901, 1474}";
}
);
layerId = "8CC1EFAB-F3CB-44D1-8974-978FC52DD9AB";
paths = (
{
closed = 1;
nodes = (
"249 0 LINE",
"384 670 LINE",
"1098 670 LINE",
"965 0 LINE",
"1148 0 LINE",
"1442 1474 LINE",
"1258 1474 LINE",
"1131 834 LINE",
"417 834 LINE",
"546 1474 LINE",
"362 1474 LINE",
"66 0 LINE"
);
}
);
width = 1426;
}
);
leftKerningGroup = LAT_H_UC;
rightKerningGroup = LAT_H_UC;
unicode = 0048;
},
{
glyphname = I;
lastChange = "2023-05-23 06:50:42 +0000";
layers = (
{
anchors = (
{
name = bottom;
position = "{144, 0}";
},
{
name = ogonek;
position = "{177, 0}";
},
{
name = top;
position = "{440, 1474}";
}
);
layerId = "AB099EFE-E788-4EFC-8633-CF147CB782A6";
paths = (
{
closed = 1;
nodes = (
"177 0 LINE",
"472 1474 LINE",
"407 1474 LINE",
"112 0 LINE"
);
}
);
width = 500;
},
{
anchors = (
{
name = bottom;
position = "{237, 0}";
},
{
name = ogonek;
position = "{424, 0}";
},
{
name = top;
position = "{530, 1474}";
}
);
layerId = "2D8F7115-C311-411E-929D-56333CF7FFB2";
paths = (
{
closed = 1;
nodes = (
"424 0 LINE",
"718 1474 LINE",
"343 1474 LINE",
"49 0 LINE"
);
}
);
width = 688;
},
{
anchors = (
{
name = bottom;
position = "{176, 0}";
},
{
name = ogonek;
position = "{266, 0}";
},
{
name = top;
position = "{473, 1474}";
}
);
layerId = "8CC1EFAB-F3CB-44D1-8974-978FC52DD9AB";
paths = (
{
closed = 1;
nodes = (
"266 0 LINE",
"564 1474 LINE",
"380 1474 LINE",
"82 0 LINE"
);
}
);
width = 566;
}
);
leftKerningGroup = LAT_H_UC;
rightKerningGroup = LAT_H_UC;
unicode = 0049;
},
{
color = 10;
glyphname = I.ss03;
lastChange = "2023-05-23 06:58:16 +0000";
layers = (
{
anchors = (
{
name = bottom;
position = "{257, 0}";
},
{
name = ogonek;
position = "{461, 0}";
},
{
name = top;
position = "{554, 1475}";
}
);
layerId = "AB099EFE-E788-4EFC-8633-CF147CB782A6";
paths = (
{
closed = 1;
nodes = (
"289 0 LINE",
"586 1474 LINE",
"522 1474 LINE",
"229 0 LINE"
);
},
{
closed = 1;
nodes = (
"461 0 LINE",
"470 59 LINE",
"68 59 LINE",
"57 0 LINE"
);
},
{
closed = 1;
nodes = (
"739 1415 LINE",
"758 1474 LINE",
"354 1474 LINE",
"338 1415 LINE"
);
}
);
width = 729;
},
{
anchors = (
{
name = bottom;
position = "{375, 0}";
},
{
name = ogonek;
position = "{748, 0}";
},
{
name = top;
position = "{672, 1475}";
}
);
layerId = "2D8F7115-C311-411E-929D-56333CF7FFB2";
paths = (
{
closed = 1;
nodes = (
"559 0 LINE",
"856 1474 LINE",
"492 1474 LINE",
"195 0 LINE"
);
},
{
closed = 1;
nodes = (
"748 0 LINE",
"813 319 LINE",
"78 319 LINE",
"6 0 LINE"
);
},
{
closed = 1;
nodes = (
"973 1155 LINE",
"1044 1474 LINE",
"303 1474 LINE",
"231 1155 LINE"
);
}
);
width = 969;
},
{
anchors = (
{
name = bottom;
position = "{299, 0}";
},
{
name = ogonek;
position = "{567, 0}";
},
{
name = top;
position = "{596, 1475}";
}
);
layerId = "8CC1EFAB-F3CB-44D1-8974-978FC52DD9AB";
paths = (
{
closed = 1;
nodes = (
"389 0 LINE",
"686 1474 LINE",
"508 1474 LINE",
"213 0 LINE"
);
},
{
closed = 1;
nodes = (
"567 0 LINE",
"600 160 LINE",
"70 160 LINE",
"35 0 LINE"
);
},
{
closed = 1;
nodes = (
"827 1315 LINE",
"864 1474 LINE",
"332 1474 LINE",
"295 1315 LINE"
);
}
);
width = 815;
}
);
leftKerningGroup = LAT_ISS03_UC;
rightKerningGroup = LAT_ISS03_UC;
},
{
glyphname = J;
lastChange = "2023-05-23 02:53:39 +0000";
layers = (
{
anchors = (
{
name = bottom;
position = "{314, 0}";
},
{
name = top;
position = "{860, 1474}";
}
);
layerId = "AB099EFE-E788-4EFC-8633-CF147CB782A6";
paths = (
{
closed = 1;
nodes = (
"502 -16 OFFCURVE",
"624 126 OFFCURVE",
"684 426 CURVE SMOOTH",
"893 1474 LINE",
"827 1474 LINE",
"618 426 LINE SMOOTH",
"575 208 OFFCURVE",
"494 44 OFFCURVE",
"310 44 CURVE SMOOTH",
"168 44 OFFCURVE",
"40 156 OFFCURVE",
"76 344 CURVE",
"12 352 LINE",
"-24 140 OFFCURVE",
"120 -16 OFFCURVE",
"314 -16 CURVE SMOOTH"
);
}
);
width = 906;
},
{
anchors = (
{
name = bottom;
position = "{449, 0}";
},
{
name = top;
position = "{975, 1474}";
}
);
layerId = "2D8F7115-C311-411E-929D-56333CF7FFB2";
paths = (
{
closed = 1;
nodes = (
"716 -16 OFFCURVE",
"903 160 OFFCURVE",
"962 456 CURVE SMOOTH",
"1166 1474 LINE",
"791 1474 LINE",
"592 484 LINE SMOOTH",
"582 432 OFFCURVE",
"554 312 OFFCURVE",
"448 312 CURVE SMOOTH",
"374 312 OFFCURVE",
"336 370 OFFCURVE",
"358 470 CURVE",
"10 502 LINE",
"-59 157 OFFCURVE",
"155 -16 OFFCURVE",
"434 -16 CURVE SMOOTH"
);
}
);
width = 1120;
},
{
anchors = (
{
name = bottom;
position = "{365, 0}";
},
{
name = top;
position = "{903, 1474}";
}
);
layerId = "8CC1EFAB-F3CB-44D1-8974-978FC52DD9AB";
paths = (
{
closed = 1;
nodes = (
"584 -16 OFFCURVE",
"728 138 OFFCURVE",
"788 436 CURVE SMOOTH",
"996 1474 LINE",
"812 1474 LINE",
"607 450 LINE SMOOTH",
"567 250 OFFCURVE",
"490 148 OFFCURVE",
"362 148 CURVE SMOOTH",
"230 148 OFFCURVE",
"160 252 OFFCURVE",
"188 396 CURVE",
"10 414 LINE",
"-38 160 OFFCURVE",
"122 -16 OFFCURVE",
"362 -16 CURVE SMOOTH"
);
}
);
width = 980;
}
);
leftKerningGroup = LAT_J_UC;
rightKerningGroup = LAT_U_UC;
rightMetricsKey = H;
unicode = 004A;
},
{
glyphname = K;
lastChange = "2023-05-23 02:53:39 +0000";
layers = (
{
anchors = (
{
name = bottom;
position = "{510, 0}";
},
{
name = top;
position = "{801, 1474}";
}
);
layerId = "AB099EFE-E788-4EFC-8633-CF147CB782A6";
paths = (
{
closed = 1;
nodes = (
"164 0 LINE",
"304 706 LINE",
"334 706 LINE",
"304 732 LINE",
"919 0 LINE",
"997 0 LINE",
"364 754 LINE",
"366 716 LINE",
"1239 1474 LINE",
"1148 1474 LINE",
"304 742 LINE",
"352 774 LINE",
"318 774 LINE",
"456 1474 LINE",
"391 1474 LINE",
"99 0 LINE"
);
}
);
width = 1146;
},
{
anchors = (
{
name = bottom;
position = "{619, 0}";
},
{
name = top;
position = "{878, 1474}";
}
);
guideLines = (
{
angle = 120;
position = "{525, 0}";
}
);
layerId = "2D8F7115-C311-411E-929D-56333CF7FFB2";
paths = (
{
closed = 1;
nodes = (
"408 0 LINE",
"534 630 LINE",
"616 630 LINE",
"506 696 LINE",
"870 0 LINE",
"1282 0 LINE",
"824 826 LINE",
"826 606 LINE",
"1576 1474 LINE",
"1114 1474 LINE",
"546 772 LINE",
"656 816 LINE",
"571 816 LINE",
"703 1474 LINE",
"327 1474 LINE",
"33 0 LINE"
);
}
);
width = 1406;
},
{
anchors = (
{
name = bottom;
position = "{543, 0}";
},
{
name = top;
position = "{825, 1474}";
}
);
layerId = "8CC1EFAB-F3CB-44D1-8974-978FC52DD9AB";
paths = (
{
closed = 1;
nodes = (
"250 0 LINE",
"385 676 LINE",
"436 676 LINE",
"376 718 LINE",
"895 0 LINE",
"1098 0 LINE",
"532 782 LINE",
"536 674 LINE",
"1364 1474 LINE",
"1130 1474 LINE",
"390 754 LINE",
"462 790 LINE",
"408 790 LINE",
"545 1472 LINE",
"362 1474 LINE",
"66 0 LINE"
);
}
);
width = 1236;
}
);
leftKerningGroup = LAT_H_UC;
leftMetricsKey = H;
rightKerningGroup = LAT_K_UC;
unicode = 004B;
},
{
glyphname = L;
lastChange = "2021-12-21 03:01:59 +0000";
layers = (
{
anchors = (
{
name = bottom;
position = "{472, 0}";
},
{
name = center;
position = "{275, 737}";
},
{
name = dot;
position = "{775, 737}";
},
{
name = top;
position = "{422, 1474}";
},
{
name = topright;
position = "{923, 1474}";
}
);
layerId = "AB099EFE-E788-4EFC-8633-CF147CB782A6";
paths = (
{
closed = 1;
nodes = (
"809 0 LINE",
"821 60 LINE",
"176 60 LINE",
"456 1474 LINE",
"391 1474 LINE",
"99 0 LINE"
);
}
);
width = 968;
},
{
anchors = (
{
name = bottom;
position = "{462, 0}";
},
{
name = center;
position = "{367, 758}";
},
{
name = dot;
position = "{887, 754}";
},
{
name = top;
position = "{523, 1474}";
},
{
name = topright;
position = "{802, 1474}";
}
);
layerId = "2D8F7115-C311-411E-929D-56333CF7FFB2";
paths = (
{
closed = 1;
nodes = (
"868 0 LINE",
"934 328 LINE",
"474 328 LINE",
"703 1474 LINE",
"327 1474 LINE",
"33 0 LINE"
);
}
);
width = 1008;
},
{
anchors = (
{
name = bottom;
position = "{459, 0}";
},
{
name = center;
position = "{303, 745}";
},
{
name = dot;
position = "{811, 743}";
},
{
name = top;
position = "{457, 1474}";
},
{
name = topright;
position = "{872, 1474}";
}
);
layerId = "8CC1EFAB-F3CB-44D1-8974-978FC52DD9AB";
paths = (
{
closed = 1;
nodes = (
"826 0 LINE",
"859 164 LINE",
"282 164 LINE",
"546 1474 LINE",
"362 1474 LINE",
"66 0 LINE"
);
}
);
width = 974;
}
);
leftKerningGroup = LAT_H_UC;
leftMetricsKey = H;
rightKerningGroup = LAT_L_UC;
unicode = 004C;
},
{
glyphname = M;
lastChange = "2022-02-08 23:44:21 +0000";
layers = (
{
anchors = (
{
name = bottom;
position = "{682, 0}";
},
{
name = top;
position = "{973, 1474}";
}
);
layerId = "AB099EFE-E788-4EFC-8633-CF147CB782A6";
paths = (
{
closed = 1;
nodes = (
"164 0 LINE",
"376 1074 LINE",
"429 1352 LINE",
"437 1352 LINE",
"716 274 LINE",
"758 274 LINE",
"1459 1358 LINE",
"1467 1358 LINE",
"1409 1076 LINE",
"1196 0 LINE",
"1261 0 LINE",
"1551 1474 LINE",
"1463 1474 LINE",
"760 382 LINE",
"748 382 LINE",
"467 1474 LINE",
"391 1474 LINE",
"99 0 LINE"
);
}
);
width = 1567;
},
{
anchors = (
{
name = bottom;
position = "{796, 0}";
},
{
name = top;
position = "{1093, 1474}";
}
);
layerId = "2D8F7115-C311-411E-929D-56333CF7FFB2";
paths = (
{
closed = 1;
nodes = (
"410 0 LINE",
"484 400 LINE",
"549 814 LINE",
"561 814 LINE",
"809 308 LINE",
"873 308 LINE",
"1377 856 LINE",
"1385 856 LINE",
"1268 400 LINE",
"1188 0 LINE",
"1563 0 LINE",
"1857 1474 LINE",
"1555 1474 LINE",
"921 816 LINE",
"913 816 LINE",
"579 1474 LINE",
"329 1474 LINE",
"33 0 LINE"
);
}
);
width = 1811;
},
{
anchors = (
{
name = bottom;
position = "{721, 0}";
},
{
name = top;
position = "{1018, 1474}";
}
);
layerId = "8CC1EFAB-F3CB-44D1-8974-978FC52DD9AB";
paths = (
{
closed = 1;
nodes = (
"249 0 LINE",
"411 804 LINE",
"464 1096 LINE",
"472 1096 LINE",
"746 286 LINE",
"810 286 LINE",
"1410 1108 LINE",
"1418 1108 LINE",
"1346 806 LINE",
"1182 0 LINE",
"1366 0 LINE",
"1664 1474 LINE",
"1496 1474 LINE",
"824 556 LINE",
"816 556 LINE",
"496 1474 LINE",
"362 1474 LINE",
"66 0 LINE"
);
}
);
width = 1648;
}
);
leftKerningGroup = LAT_H_UC;
leftMetricsKey = H;
rightKerningGroup = LAT_H_UC;
rightMetricsKey = H;
unicode = 004D;
},
{
glyphname = N;
lastChange = "2023-05-23 02:53:39 +0000";
layers = (
{
anchors = (
{
name = bottom;
position = "{575, 0}";
},
{
name = leghookright;
position = "{1049, 0}";
},
{
name = top;
position = "{881, 1474}";
}
);
layerId = "AB099EFE-E788-4EFC-8633-CF147CB782A6";
paths = (
{
closed = 1;
nodes = (
"164 0 LINE",
"356 970 LINE",
"430 1344 LINE",
"438 1344 LINE",
"550 1082 LINE",
"1018 0 LINE",
"1079 0 LINE",
"1369 1474 LINE",
"1304 1474 LINE",
"1115 514 LINE",
"1038 126 LINE",
"1026 126 LINE",
"916 386 LINE",
"447 1474 LINE",
"391 1474 LINE",
"99 0 LINE"
);
}
);
width = 1385;
},
{
anchors = (
{
name = bottom;
position = "{665, 0}";
},
{
name = leghookright;
position = "{1125, 0}";
},
{
name = top;
position = "{964, 1474}";
}
);
layerId = "2D8F7115-C311-411E-929D-56333CF7FFB2";
paths = (
{
closed = 1;
nodes = (
"415 0 LINE",
"511 520 LINE",
"555 854 LINE",
"563 854 LINE",
"635 712 LINE",
"1029 0 LINE",
"1305 0 LINE",
"1601 1474 LINE",
"1227 1474 LINE",
"1121 954 LINE",
"1071 640 LINE",
"1063 640 LINE",
"995 778 LINE",
"599 1474 LINE",
"329 1474 LINE",
"33 0 LINE"
);
}
);
width = 1555;
},
{
anchors = (
{
name = bottom;
position = "{608, 0}";
},
{
name = leghookright;
position = "{1083, 0}";
},
{
name = top;
position = "{915, 1474}";
}
);
layerId = "8CC1EFAB-F3CB-44D1-8974-978FC52DD9AB";
paths = (
{
closed = 1;
nodes = (
"249 0 LINE",
"406 780 LINE",
"475 1135 LINE",
"483 1135 LINE",
"581 937 LINE",
"1036 0 LINE",
"1170 0 LINE",
"1466 1474 LINE",
"1282 1474 LINE",
"1128 702 LINE",
"1055 335 LINE",
"1043 335 LINE",
"945 531 LINE",
"497 1474 LINE",
"362 1474 LINE",
"66 0 LINE"
);
}
);
width = 1450;
}
);
leftKerningGroup = LAT_H_UC;
leftMetricsKey = H;
rightKerningGroup = LAT_H_UC;
rightMetricsKey = H;
unicode = 004E;
},
{
glyphname = O;
lastChange = "2023-05-23 06:49:02 +0000";
layers = (
{
anchors = (
{
name = bottom;
position = "{675, 0}";
},
{
name = center;
position = "{818, 737}";
},
{
name = horn;
position = "{1209, 1408}";
},
{
name = ogonek;
position = "{861, 0}";
},
{
name = top;
position = "{955, 1474}";
},
{
name = topleft;
position = "{242, 1474}";
},
{
name = topright;
position = "{1637, 1474}";
}
);
background = {
paths = (
{
closed = 1;
nodes = (
"1065 -16 OFFCURVE",
"1376 250 OFFCURVE",
"1454 653 CURVE SMOOTH",
"1532 1054 OFFCURVE",
"1360 1490 OFFCURVE",
"914 1490 CURVE SMOOTH",
"575 1490 OFFCURVE",
"268 1237 OFFCURVE",
"184 828 CURVE SMOOTH",
"94 388 OFFCURVE",
"308 -16 OFFCURVE",
"726 -16 CURVE SMOOTH"
);
},
{
closed = 1;
nodes = (
"364 44 OFFCURVE",
"162 393 OFFCURVE",
"245 806 CURVE SMOOTH",
"317 1165 OFFCURVE",
"577 1430 OFFCURVE",
"908 1430 CURVE SMOOTH",
"1308 1430 OFFCURVE",
"1466 1043 OFFCURVE",
"1391 666 CURVE SMOOTH",
"1315 282 OFFCURVE",
"1025 44 OFFCURVE",
"726 44 CURVE SMOOTH"
);
}
);
};
layerId = "AB099EFE-E788-4EFC-8633-CF147CB782A6";
paths = (
{
closed = 1;
nodes = (
"1153 -16 OFFCURVE",
"1472 386 OFFCURVE",
"1472 839 CURVE SMOOTH",
"1472 1179 OFFCURVE",
"1292 1490 OFFCURVE",
"912 1490 CURVE SMOOTH",
"479 1490 OFFCURVE",
"164 1086 OFFCURVE",
"164 636 CURVE SMOOTH",
"164 271 OFFCURVE",
"371 -16 OFFCURVE",
"729 -16 CURVE SMOOTH"
);
},
{
closed = 1;
nodes = (
"417 44 OFFCURVE",
"226 294 OFFCURVE",
"226 631 CURVE SMOOTH",
"226 1038 OFFCURVE",
"506 1430 OFFCURVE",
"908 1430 CURVE SMOOTH",
"1244 1430 OFFCURVE",
"1409 1157 OFFCURVE",
"1409 845 CURVE SMOOTH",
"1409 431 OFFCURVE",
"1120 44 OFFCURVE",
"730 44 CURVE SMOOTH"
);
}
);
width = 1552;
},
{
anchors = (
{
name = bottom;
position = "{735, 0}";
},
{
name = center;
position = "{844, 738}";
},
{
name = horn;
position = "{1229, 1424}";
},
{
name = ogonek;
position = "{924, 0}";
},
{
name = top;
position = "{952, 1474}";
},
{
name = topleft;
position = "{166, 1474}";
},
{
name = topright;
position = "{1737, 1474}";
}
);
background = {
paths = (
{
closed = 1;
nodes = (
"1170 -16 OFFCURVE",
"1496 264 OFFCURVE",
"1570 640 CURVE SMOOTH",
"1662 1104 OFFCURVE",
"1384 1492 OFFCURVE",
"908 1492 CURVE SMOOTH",
"512 1492 OFFCURVE",
"194 1216 OFFCURVE",
"118 836 CURVE SMOOTH",
"24 366 OFFCURVE",
"310 -16 OFFCURVE",
"778 -16 CURVE SMOOTH"
);
},
{
closed = 1;
nodes = (
"560 320 OFFCURVE",
"431 528 OFFCURVE",
"483 784 CURVE SMOOTH",
"525 996 OFFCURVE",
"682 1156 OFFCURVE",
"888 1156 CURVE SMOOTH",
"1128 1156 OFFCURVE",
"1256 950 OFFCURVE",
"1206 694 CURVE SMOOTH",
"1162 478 OFFCURVE",
"1002 320 OFFCURVE",
"800 320 CURVE SMOOTH"
);
}
);
};
layerId = "2D8F7115-C311-411E-929D-56333CF7FFB2";
paths = (
{
closed = 1;
nodes = (
"1229 -16 OFFCURVE",
"1587 355 OFFCURVE",
"1587 810 CURVE SMOOTH",
"1587 1201 OFFCURVE",
"1323 1492 OFFCURVE",
"911 1492 CURVE SMOOTH",
"448 1492 OFFCURVE",
"99 1120 OFFCURVE",
"99 671 CURVE SMOOTH",
"99 275 OFFCURVE",
"370 -16 OFFCURVE",
"774 -16 CURVE SMOOTH"
);
},
{
closed = 1;
nodes = (
"595 320 OFFCURVE",
"471 471 OFFCURVE",
"471 680 CURVE SMOOTH",
"471 925 OFFCURVE",
"641 1156 OFFCURVE",
"891 1156 CURVE SMOOTH",
"1093 1156 OFFCURVE",
"1216 1005 OFFCURVE",
"1216 797 CURVE SMOOTH",
"1216 551 OFFCURVE",
"1045 320 OFFCURVE",
"796 320 CURVE SMOOTH"
);
}
);
width = 1606;
},
{
anchors = (
{
name = bottom;
position = "{705, 0}";
},
{
name = center;
position = "{824, 737}";
},
{
name = horn;
position = "{1196, 1414}";
},
{
name = ogonek;
position = "{885, 0}";
},
{
name = top;
position = "{956, 1474}";
},
{
name = topleft;
position = "{225, 1474}";
},
{
name = topright;
position = "{1683, 1474}";
}
);
background = {
paths = (
{
closed = 1;
nodes = (
"1124 -12 OFFCURVE",
"1414 264 OFFCURVE",
"1492 652 CURVE SMOOTH",
"1580 1092 OFFCURVE",
"1336 1486 OFFCURVE",
"898 1486 CURVE SMOOTH",
"526 1486 OFFCURVE",
"232 1198 OFFCURVE",
"156 822 CURVE SMOOTH",
"66 374 OFFCURVE",
"326 -12 OFFCURVE",
"760 -12 CURVE SMOOTH"
);
},
{
closed = 1;
nodes = (
"428 152 OFFCURVE",
"266 446 OFFCURVE",
"332 782 CURVE SMOOTH",
"394 1092 OFFCURVE",
"614 1322 OFFCURVE",
"900 1322 CURVE SMOOTH",
"1228 1322 OFFCURVE",
"1382 1018 OFFCURVE",
"1314 682 CURVE SMOOTH",
"1252 368 OFFCURVE",
"1028 152 OFFCURVE",
"756 152 CURVE SMOOTH"
);
}
);
};
layerId = "8CC1EFAB-F3CB-44D1-8974-978FC52DD9AB";
paths = (
{
closed = 1;
nodes = (
"1193 -12 OFFCURVE",
"1510 386 OFFCURVE",
"1510 821 CURVE SMOOTH",
"1510 1194 OFFCURVE",
"1276 1486 OFFCURVE",
"901 1486 CURVE SMOOTH",
"465 1486 OFFCURVE",
"138 1090 OFFCURVE",
"138 655 CURVE SMOOTH",
"138 277 OFFCURVE",
"384 -12 OFFCURVE",
"756 -12 CURVE SMOOTH"
);
},
{
closed = 1;
nodes = (
"476 152 OFFCURVE",
"317 366 OFFCURVE",
"317 644 CURVE SMOOTH",
"317 986 OFFCURVE",
"558 1322 OFFCURVE",
"902 1322 CURVE SMOOTH",
"1177 1322 OFFCURVE",
"1330 1107 OFFCURVE",
"1330 829 CURVE SMOOTH",
"1330 485 OFFCURVE",
"1097 152 OFFCURVE",
"752 152 CURVE SMOOTH"
);
}
);
width = 1566;
}
);
leftKerningGroup = LAT_O_UC;
rightKerningGroup = LAT_O_UC;
unicode = 004F;
},
{
glyphname = OE;
lastChange = "2023-05-23 02:53:39 +0000";
layers = (
{
anchors = (
{
name = bottom;
position = "{1067, 0}";
},
{
name = top;
position = "{1362, 1474}";
}
);
background = {
components = (
{
name = E;
transform = "{1, 0, 0, 1, 583, 0}";
}
);
};
layerId = "AB099EFE-E788-4EFC-8633-CF147CB782A6";
paths = (
{
closed = 1;
nodes = (
"988 -16 OFFCURVE",
"1251 148 OFFCURVE",
"1395 452 CURVE",
"1367 456 LINE",
"1275 0 LINE",
"2025 0 LINE",
"2035 60 LINE",
"1353 60 LINE",
"1485 725 LINE",
"2075 725 LINE",
"2087 785 LINE",
"1499 785 LINE",
"1624 1414 LINE",
"2307 1414 LINE",
"2319 1474 LINE",
"1570 1474 LINE",
"1480 1018 LINE",
"1495 1014 LINE",
"1483 1312 OFFCURVE",
"1262 1490 OFFCURVE",
"979 1490 CURVE SMOOTH",
"526 1490 OFFCURVE",
"151 1036 OFFCURVE",
"151 581 CURVE SMOOTH",
"151 233 OFFCURVE",
"370 -16 OFFCURVE",
"711 -16 CURVE SMOOTH"
);
},
{
closed = 1;
nodes = (
"400 44 OFFCURVE",
"216 274 OFFCURVE",
"216 586 CURVE SMOOTH",
"216 1010 OFFCURVE",
"556 1430 OFFCURVE",
"983 1430 CURVE SMOOTH",
"1284 1430 OFFCURVE",
"1448 1222 OFFCURVE",
"1448 909 CURVE SMOOTH",
"1448 482 OFFCURVE",
"1144 44 OFFCURVE",
"713 44 CURVE SMOOTH"
);
}
);
width = 2268;
},
{
anchors = (
{
name = bottom;
position = "{950, 0}";
},
{
name = top;
position = "{1245, 1474}";
}
);
layerId = "2D8F7115-C311-411E-929D-56333CF7FFB2";
paths = (
{
closed = 1;
nodes = (
"925 -16 OFFCURVE",
"1117 92 OFFCURVE",
"1251 292 CURVE",
"1109 308 LINE",
"1047 0 LINE",
"1875 0 LINE",
"1941 328 LINE",
"1451 328 LINE",
"1499 586 LINE",
"1910 586 LINE",
"1974 902 LINE",
"1565 902 LINE",
"1615 1146 LINE",
"2103 1146 LINE",
"2167 1474 LINE",
"1341 1474 LINE",
"1285 1166 LINE",
"1419 1150 LINE",
"1368 1344 OFFCURVE",
"1155 1490 OFFCURVE",
"892 1490 CURVE SMOOTH",
"456 1490 OFFCURVE",
"93 1096 OFFCURVE",
"93 643 CURVE SMOOTH",
"93 285 OFFCURVE",
"329 -16 OFFCURVE",
"701 -16 CURVE SMOOTH"
);
},
{
closed = 1;
nodes = (
"591 320 OFFCURVE",
"468 472 OFFCURVE",
"468 668 CURVE SMOOTH",
"468 917 OFFCURVE",
"641 1154 OFFCURVE",
"883 1154 CURVE SMOOTH",
"1088 1154 OFFCURVE",
"1216 996 OFFCURVE",
"1216 795 CURVE SMOOTH",
"1216 548 OFFCURVE",
"1038 320 OFFCURVE",
"793 320 CURVE SMOOTH"
);
}
);
width = 2077;
},
{
anchors = (
{
name = bottom;
position = "{1022, 0}";
},
{
name = top;
position = "{1317, 1474}";
}
);
layerId = "8CC1EFAB-F3CB-44D1-8974-978FC52DD9AB";
paths = (
{
closed = 1;
nodes = (
"963 -16 OFFCURVE",
"1199 128 OFFCURVE",
"1337 390 CURVE",
"1267 400 LINE",
"1187 0 LINE",
"1964 0 LINE",
"1997 164 LINE",
"1387 164 LINE",
"1487 669 LINE",
"2011 669 LINE",
"2043 829 LINE",
"1521 829 LINE",
"1617 1310 LINE",
"2226 1310 LINE",
"2259 1474 LINE",
"1481 1474 LINE",
"1403 1074 LINE",
"1465 1066 LINE",
"1437 1330 OFFCURVE",
"1241 1490 OFFCURVE",
"960 1490 CURVE SMOOTH",
"501 1490 OFFCURVE",
"127 1064 OFFCURVE",
"127 602 CURVE SMOOTH",
"127 249 OFFCURVE",
"355 -16 OFFCURVE",
"705 -16 CURVE SMOOTH"
);
},
{
closed = 1;
nodes = (
"468 148 OFFCURVE",
"302 329 OFFCURVE",
"302 597 CURVE SMOOTH",
"302 965 OFFCURVE",
"600 1326 OFFCURVE",
"970 1326 CURVE SMOOTH",
"1229 1326 OFFCURVE",
"1370 1149 OFFCURVE",
"1370 884 CURVE SMOOTH",
"1370 517 OFFCURVE",
"1098 148 OFFCURVE",
"727 148 CURVE SMOOTH"
);
}
);
width = 2187;
}
);
leftKerningGroup = LAT_O_UC;
leftMetricsKey = O;
rightKerningGroup = LAT_E_UC;
rightMetricsKey = E;
unicode = 0152;
},
{
glyphname = P;
lastChange = "2023-05-23 02:53:39 +0000";
layers = (
{
anchors = (
{
name = bottom;
position = "{152, 0}";
},
{
name = top;
position = "{784, 1474}";
}
);
background = {
paths = (
{
closed = 1;
nodes = (
"163 0 LINE",
"456 1474 LINE",
"391 1474 LINE",
"98 0 LINE"
);
},
{
closed = 1;
nodes = (
"644 666 LINE SMOOTH",
"888 666 OFFCURVE",
"1067 804 OFFCURVE",
"1105 1036 CURVE SMOOTH",
"1148 1300 OFFCURVE",
"975 1474 OFFCURVE",
"741 1474 CURVE SMOOTH",
"433 1474 LINE",
"419 1414 LINE",
"737 1414 LINE SMOOTH",
"929 1414 OFFCURVE",
"1082 1275 OFFCURVE",
"1043 1054 CURVE SMOOTH",
"1008 856 OFFCURVE",
"876 726 OFFCURVE",
"658 726 CURVE SMOOTH",
"284 726 LINE",
"272 666 LINE"
);
}
);
};
layerId = "AB099EFE-E788-4EFC-8633-CF147CB782A6";
paths = (
{
closed = 1;
nodes = (
"644 666 LINE SMOOTH",
"919 666 OFFCURVE",
"1112 851 OFFCURVE",
"1112 1106 CURVE SMOOTH",
"1112 1338 OFFCURVE",
"951 1474 OFFCURVE",
"741 1474 CURVE SMOOTH",
"433 1474 LINE",
"419 1414 LINE",
"737 1414 LINE SMOOTH",
"909 1414 OFFCURVE",
"1049 1309 OFFCURVE",
"1049 1110 CURVE SMOOTH",
"1049 899 OFFCURVE",
"893 726 OFFCURVE",
"658 726 CURVE SMOOTH",
"284 726 LINE",
"272 666 LINE"
);
},
{
closed = 1;
nodes = (
"163 0 LINE",
"456 1474 LINE",
"391 1474 LINE",
"98 0 LINE"
);
}
);
width = 1108;
},
{
anchors = (
{
name = bottom;
position = "{241, 0}";
},
{
name = top;
position = "{855, 1474}";
}
);
background = {
paths = (
{
closed = 1;
nodes = (
"408 0 LINE",
"705 1474 LINE",
"329 1474 LINE",
"33 0 LINE"
);
},
{
closed = 1;
nodes = (
"717 452 LINE SMOOTH",
"1039 452 OFFCURVE",
"1251 640 OFFCURVE",
"1297 914 CURVE SMOOTH",
"1355 1248 OFFCURVE",
"1127 1474 OFFCURVE",
"783 1474 CURVE SMOOTH",
"603 1474 LINE",
"537 1146 LINE",
"763 1146 LINE SMOOTH",
"865 1146 OFFCURVE",
"951 1084 OFFCURVE",
"941 968 CURVE SMOOTH",
"929 840 OFFCURVE",
"825 772 OFFCURVE",
"733 772 CURVE SMOOTH",
"483 772 LINE",
"417 452 LINE"
);
}
);
};
layerId = "2D8F7115-C311-411E-929D-56333CF7FFB2";
paths = (
{
closed = 1;
nodes = (
"717 452 LINE SMOOTH",
"1062 452 OFFCURVE",
"1306 685 OFFCURVE",
"1306 1002 CURVE SMOOTH",
"1306 1299 OFFCURVE",
"1091 1474 OFFCURVE",
"783 1474 CURVE SMOOTH",
"603 1474 LINE",
"537 1146 LINE",
"763 1146 LINE SMOOTH",
"860 1146 OFFCURVE",
"942 1091 OFFCURVE",
"942 984 CURVE SMOOTH",
"942 870 OFFCURVE",
"849 772 OFFCURVE",
"733 772 CURVE SMOOTH",
"483 772 LINE",
"417 452 LINE"
);
},
{
closed = 1;
nodes = (
"408 0 LINE",
"705 1474 LINE",
"329 1474 LINE",
"33 0 LINE"
);
}
);
width = 1281;
},
{
anchors = (
{
name = bottom;
position = "{176, 0}";
},
{
name = top;
position = "{807, 1474}";
}
);
background = {
paths = (
{
closed = 1;
nodes = (
"250 0 LINE",
"544 1474 LINE",
"360 1474 LINE",
"66 0 LINE"
);
},
{
closed = 1;
nodes = (
"666 584 LINE SMOOTH",
"940 584 OFFCURVE",
"1130 740 OFFCURVE",
"1174 994 CURVE SMOOTH",
"1224 1282 OFFCURVE",
"1028 1474 OFFCURVE",
"754 1474 CURVE SMOOTH",
"492 1474 LINE",
"458 1310 LINE",
"744 1310 LINE SMOOTH",
"890 1310 OFFCURVE",
"1028 1214 OFFCURVE",
"1000 1016 CURVE SMOOTH",
"976 854 OFFCURVE",
"852 748 OFFCURVE",
"680 748 CURVE SMOOTH",
"352 748 LINE",
"322 584 LINE"
);
}
);
};
layerId = "8CC1EFAB-F3CB-44D1-8974-978FC52DD9AB";
paths = (
{
closed = 1;
nodes = (
"666 584 LINE SMOOTH",
"969 584 OFFCURVE",
"1182 786 OFFCURVE",
"1182 1082 CURVE SMOOTH",
"1182 1320 OFFCURVE",
"999 1474 OFFCURVE",
"754 1474 CURVE SMOOTH",
"492 1474 LINE",
"458 1310 LINE",
"744 1310 LINE SMOOTH",
"877 1310 OFFCURVE",
"1004 1230 OFFCURVE",
"1004 1066 CURVE SMOOTH",
"1004 882 OFFCURVE",
"872 748 OFFCURVE",
"680 748 CURVE SMOOTH",
"352 748 LINE",
"322 584 LINE"
);
},
{
closed = 1;
nodes = (
"250 0 LINE",
"544 1474 LINE",
"360 1474 LINE",
"66 0 LINE"
);
}
);
width = 1164;
}
);
leftKerningGroup = LAT_H_UC;
leftMetricsKey = H;
rightKerningGroup = LAT_P_UC;
unicode = 0050;
},
{
glyphname = Thorn;
lastChange = "2023-05-23 02:53:39 +0000";
layers = (
{
layerId = "AB099EFE-E788-4EFC-8633-CF147CB782A6";
paths = (
{
closed = 1;
nodes = (
"622 330 LINE SMOOTH",
"889 330 OFFCURVE",
"1093 549 OFFCURVE",
"1093 816 CURVE SMOOTH",
"1093 1030 OFFCURVE",
"937 1138 OFFCURVE",
"728 1138 CURVE SMOOTH",
"374 1138 LINE",
"362 1078 LINE",
"729 1078 LINE SMOOTH",
"902 1078 OFFCURVE",
"1030 1000 OFFCURVE",
"1030 819 CURVE SMOOTH",
"1030 590 OFFCURVE",
"866 390 OFFCURVE",
"636 390 CURVE SMOOTH",
"226 390 LINE",
"214 330 LINE"
);
},
{
closed = 1;
nodes = (
"164 0 LINE",
"456 1474 LINE",
"391 1474 LINE",
"99 0 LINE"
);
}
);
width = 1150;
},
{
layerId = "2D8F7115-C311-411E-929D-56333CF7FFB2";
paths = (
{
closed = 1;
nodes = (
"657 230 LINE SMOOTH",
"1007 230 OFFCURVE",
"1265 494 OFFCURVE",
"1265 821 CURVE SMOOTH",
"1265 1095 OFFCURVE",
"1083 1252 OFFCURVE",
"777 1252 CURVE SMOOTH",
"567 1252 LINE",
"503 924 LINE",
"713 924 LINE SMOOTH",
"835 924 OFFCURVE",
"886 873 OFFCURVE",
"886 782 CURVE SMOOTH",
"886 667 OFFCURVE",
"805 558 OFFCURVE",
"687 558 CURVE SMOOTH",
"427 558 LINE",
"361 230 LINE"
);
},
{
closed = 1;
nodes = (
"408 0 LINE",
"704 1474 LINE",
"329 1474 LINE",
"33 0 LINE"
);
}
);
width = 1279;
},
{
layerId = "8CC1EFAB-F3CB-44D1-8974-978FC52DD9AB";
paths = (
{
closed = 1;
nodes = (
"628 292 LINE SMOOTH",
"928 292 OFFCURVE",
"1152 526 OFFCURVE",
"1152 824 CURVE SMOOTH",
"1152 1053 OFFCURVE",
"988 1182 OFFCURVE",
"742 1182 CURVE SMOOTH",
"442 1182 LINE",
"408 1018 LINE",
"716 1018 LINE SMOOTH",
"871 1018 OFFCURVE",
"974 950 OFFCURVE",
"974 804 CURVE SMOOTH",
"974 620 OFFCURVE",
"835 456 OFFCURVE",
"648 456 CURVE SMOOTH",
"296 456 LINE",
"264 292 LINE"
);
},
{
closed = 1;
nodes = (
"250 0 LINE",
"543 1474 LINE",
"359 1474 LINE",
"66 0 LINE"
);
}
);
width = 1188;
}
);
leftKerningGroup = LAT_H_UC;
leftMetricsKey = H;
rightKerningGroup = LAT_THORN_UC;
unicode = 00DE;
},
{
glyphname = Q;
lastChange = "2023-05-23 02:53:39 +0000";
layers = (
{
anchors = (
{
name = bottom;
position = "{654, 0}";
},
{
name = top;
position = "{940, 1474}";
}
);
components = (
{
name = O;
}
);
layerId = "AB099EFE-E788-4EFC-8633-CF147CB782A6";
paths = (
{
closed = 1;
nodes = (
"1320 0 LINE",
"1196 196 LINE",
"1176 212 LINE",
"960 548 LINE",
"889 548 LINE",
"1128 174 LINE",
"1150 156 LINE",
"1249 0 LINE"
);
}
);
width = 1560;
},
{
anchors = (
{
name = bottom;
position = "{631, 0}";
},
{
name = top;
position = "{954, 1474}";
}
);
components = (
{
name = O;
}
);
layerId = "2D8F7115-C311-411E-929D-56333CF7FFB2";
paths = (
{
closed = 1;
nodes = (
"1612 0 LINE",
"1374 300 LINE",
"1184 452 LINE",
"1036 632 LINE",
"658 632 LINE",
"930 320 LINE",
"1084 202 LINE",
"1246 0 LINE"
);
}
);
width = 1659;
},
{
anchors = (
{
name = bottom;
position = "{772, 0}";
},
{
name = top;
position = "{813, 1474}";
}
);
components = (
{
alignment = -1;
name = O;
}
);
layerId = "8CC1EFAB-F3CB-44D1-8974-978FC52DD9AB";
paths = (
{
closed = 1;
nodes = (
"1430 0 LINE",
"1264 244 LINE",
"1198 298 LINE",
"1008 580 LINE",
"818 580 LINE",
"1068 220 LINE",
"1126 178 LINE",
"1246 0 LINE"
);
}
);
width = 1595;
}
);
leftKerningGroup = LAT_O_UC;
leftMetricsKey = O;
rightKerningGroup = LAT_Q_UC;
unicode = 0051;
},
{
glyphname = R;
lastChange = "2023-05-23 02:53:39 +0000";
layers = (
{
anchors = (
{
name = bottom;
position = "{522, 0}";
},
{
name = top;
position = "{746, 1474}";
}
);
background = {
paths = (
{
closed = 1;
nodes = (
"164 0 LINE",
"456 1474 LINE",
"391 1474 LINE",
"99 0 LINE"
);
},
{
closed = 1;
nodes = (
"988 0 LINE",
"640 718 LINE",
"590 674 LINE",
"917 0 LINE"
);
},
{
closed = 1;
nodes = (
"620 666 LINE SMOOTH",
"884 666 OFFCURVE",
"1068 804 OFFCURVE",
"1105 1036 CURVE SMOOTH",
"1147 1301 OFFCURVE",
"975 1474 OFFCURVE",
"741 1474 CURVE SMOOTH",
"433 1474 LINE",
"419 1414 LINE",
"739 1414 LINE SMOOTH",
"933 1414 OFFCURVE",
"1076 1276 OFFCURVE",
"1043 1054 CURVE SMOOTH",
"1015 866 OFFCURVE",
"882 726 OFFCURVE",
"638 726 CURVE SMOOTH",
"284 726 LINE",
"274 666 LINE"
);
}
);
};
layerId = "AB099EFE-E788-4EFC-8633-CF147CB782A6";
paths = (
{
closed = 1;
nodes = (
"620 666 LINE SMOOTH",
"909 666 OFFCURVE",
"1111 837 OFFCURVE",
"1111 1114 CURVE SMOOTH",
"1111 1334 OFFCURVE",
"951 1474 OFFCURVE",
"741 1474 CURVE SMOOTH",
"433 1474 LINE",
"419 1414 LINE",
"739 1414 LINE SMOOTH",
"914 1414 OFFCURVE",
"1048 1301 OFFCURVE",
"1048 1116 CURVE SMOOTH",
"1048 882 OFFCURVE",
"886 726 OFFCURVE",
"638 726 CURVE SMOOTH",
"284 726 LINE",
"274 666 LINE"
);
},
{
closed = 1;
nodes = (
"164 0 LINE",
"456 1474 LINE",
"391 1474 LINE",
"99 0 LINE"
);
},
{
closed = 1;
nodes = (
"988 0 LINE",
"640 718 LINE",
"590 674 LINE",
"917 0 LINE"
);
}
);
width = 1200;
},
{
anchors = (
{
name = bottom;
position = "{587, 0}";
},
{
name = top;
position = "{794, 1474}";
}
);
background = {
paths = (
{
closed = 1;
nodes = (
"408 0 LINE",
"703 1474 LINE",
"327 1474 LINE",
"33 0 LINE"
);
},
{
closed = 1;
nodes = (
"1221 0 LINE",
"880 738 LINE",
"588 538 LINE",
"825 0 LINE"
);
},
{
closed = 1;
nodes = (
"695 486 LINE SMOOTH",
"1021 486 OFFCURVE",
"1231 666 OFFCURVE",
"1277 918 CURVE SMOOTH",
"1339 1258 OFFCURVE",
"1096 1474 OFFCURVE",
"762 1474 CURVE SMOOTH",
"582 1474 LINE",
"514 1146 LINE",
"742 1146 LINE SMOOTH",
"846 1146 OFFCURVE",
"924 1084 OFFCURVE",
"911 964 CURVE SMOOTH",
"899 852 OFFCURVE",
"821 784 OFFCURVE",
"713 784 CURVE SMOOTH",
"463 784 LINE",
"403 486 LINE"
);
}
);
};
guideLines = (
{
angle = 120;
position = "{545, 0}";
}
);
layerId = "2D8F7115-C311-411E-929D-56333CF7FFB2";
paths = (
{
closed = 1;
nodes = (
"695 486 LINE SMOOTH",
"1037 486 OFFCURVE",
"1287 700 OFFCURVE",
"1287 1011 CURVE SMOOTH",
"1287 1306 OFFCURVE",
"1061 1474 OFFCURVE",
"762 1474 CURVE SMOOTH",
"582 1474 LINE",
"514 1146 LINE",
"742 1146 LINE SMOOTH",
"838 1146 OFFCURVE",
"912 1095 OFFCURVE",
"912 985 CURVE SMOOTH",
"912 874 OFFCURVE",
"836 784 OFFCURVE",
"713 784 CURVE SMOOTH",
"463 784 LINE",
"403 486 LINE"
);
},
{
closed = 1;
nodes = (
"408 0 LINE",
"703 1474 LINE",
"327 1474 LINE",
"33 0 LINE"
);
},
{
closed = 1;
nodes = (
"1221 0 LINE",
"880 738 LINE",
"588 538 LINE",
"825 0 LINE"
);
}
);
width = 1376;
},
{
anchors = (
{
name = bottom;
position = "{539, 0}";
},
{
name = top;
position = "{760, 1474}";
}
);
background = {
paths = (
{
closed = 1;
nodes = (
"250 0 LINE",
"546 1474 LINE",
"362 1474 LINE",
"66 0 LINE"
);
},
{
closed = 1;
nodes = (
"1067 0 LINE",
"726 726 LINE",
"580 622 LINE",
"873 0 LINE"
);
},
{
closed = 1;
nodes = (
"644 596 LINE SMOOTH",
"930 596 OFFCURVE",
"1124 750 OFFCURVE",
"1166 992 CURVE SMOOTH",
"1216 1282 OFFCURVE",
"1022 1474 OFFCURVE",
"746 1474 CURVE SMOOTH",
"488 1474 LINE",
"452 1310 LINE",
"736 1310 LINE SMOOTH",
"896 1310 OFFCURVE",
"1021 1204 OFFCURVE",
"992 1016 CURVE SMOOTH",
"968 862 OFFCURVE",
"852 748 OFFCURVE",
"660 748 CURVE SMOOTH",
"346 748 LINE",
"318 596 LINE"
);
}
);
};
layerId = "8CC1EFAB-F3CB-44D1-8974-978FC52DD9AB";
paths = (
{
closed = 1;
nodes = (
"644 596 LINE SMOOTH",
"953 596 OFFCURVE",
"1174 789 OFFCURVE",
"1174 1071 CURVE SMOOTH",
"1174 1326 OFFCURVE",
"993 1474 OFFCURVE",
"746 1474 CURVE SMOOTH",
"488 1474 LINE",
"452 1310 LINE",
"736 1310 LINE SMOOTH",
"880 1310 OFFCURVE",
"996 1227 OFFCURVE",
"996 1062 CURVE SMOOTH",
"996 883 OFFCURVE",
"861 748 OFFCURVE",
"660 748 CURVE SMOOTH",
"346 748 LINE",
"318 596 LINE"
);
},
{
closed = 1;
nodes = (
"250 0 LINE",
"546 1474 LINE",
"362 1474 LINE",
"66 0 LINE"
);
},
{
closed = 1;
nodes = (
"1067 0 LINE",
"726 726 LINE",
"580 622 LINE",
"873 0 LINE"
);
}
);
width = 1256;
}
);
leftKerningGroup = LAT_H_UC;
leftMetricsKey = H;
rightKerningGroup = LAT_R_UC;
unicode = 0052;
},
{
glyphname = S;
lastChange = "2023-05-23 02:53:39 +0000";
layers = (
{
anchors = (
{
name = bottom;
position = "{508, 0}";
},
{
name = top;
position = "{770, 1474}";
}
);
background = {
paths = (
{
closed = 1;
nodes = (
"853 -16 OFFCURVE",
"1046 134 OFFCURVE",
"1088 381 CURVE SMOOTH",
"1124 590 OFFCURVE",
"1030 746 OFFCURVE",
"822 854 CURVE SMOOTH",
"719 907 OFFCURVE",
"577 959 OFFCURVE",
"582 1056 CURVE SMOOTH",
"585 1113 OFFCURVE",
"635 1154 OFFCURVE",
"707 1154 CURVE SMOOTH",
"795 1154 OFFCURVE",
"848 1094 OFFCURVE",
"860 1024 CURVE",
"1218 1170 LINE",
"1182 1346 OFFCURVE",
"994 1490 OFFCURVE",
"728 1490 CURVE SMOOTH",
"498 1490 OFFCURVE",
"284 1382 OFFCURVE",
"224 1140 CURVE SMOOTH",
"176 944 OFFCURVE",
"252 764 OFFCURVE",
"498 636 CURVE SMOOTH",
"596 586 OFFCURVE",
"736 538 OFFCURVE",
"724 432 CURVE SMOOTH",
"718 368 OFFCURVE",
"666 320 OFFCURVE",
"594 320 CURVE SMOOTH",
"498 320 OFFCURVE",
"426 404 OFFCURVE",
"408 502 CURVE",
"34 348 LINE",
"82 142 OFFCURVE",
"286 -16 OFFCURVE",
"574 -16 CURVE SMOOTH"
);
}
);
};
guideLines = (
{
angle = 22.5;
position = "{322, 458}";
}
);
layerId = "2D8F7115-C311-411E-929D-56333CF7FFB2";
paths = (
{
closed = 1;
nodes = (
"878 -16 OFFCURVE",
"1096 175 OFFCURVE",
"1096 455 CURVE SMOOTH",
"1096 884 OFFCURVE",
"582 856 OFFCURVE",
"582 1050 CURVE SMOOTH",
"582 1111 OFFCURVE",
"633 1154 OFFCURVE",
"707 1154 CURVE SMOOTH",
"795 1154 OFFCURVE",
"848 1094 OFFCURVE",
"860 1024 CURVE",
"1218 1170 LINE",
"1182 1346 OFFCURVE",
"993 1490 OFFCURVE",
"730 1490 CURVE SMOOTH",
"437 1490 OFFCURVE",
"210 1312 OFFCURVE",
"210 1034 CURVE SMOOTH",
"210 616 OFFCURVE",
"725 643 OFFCURVE",
"725 441 CURVE SMOOTH",
"725 375 OFFCURVE",
"671 320 OFFCURVE",
"594 320 CURVE SMOOTH",
"498 320 OFFCURVE",
"426 404 OFFCURVE",
"408 502 CURVE",
"34 348 LINE",
"79 149 OFFCURVE",
"282 -16 OFFCURVE",
"569 -16 CURVE SMOOTH"
);
}
);
userData = {
RMXScaler = {
height = 137;
weight = 160;
width = 140;
};
};
width = 1196;
},
{
anchors = (
{
name = bottom;
position = "{465, 0}";
},
{
name = top;
position = "{728, 1474}";
}
);
background = {
paths = (
{
closed = 1;
nodes = (
"696 -16 OFFCURVE",
"860 128 OFFCURVE",
"902 338 CURVE SMOOTH",
"950 576 OFFCURVE",
"783 686 OFFCURVE",
"583 806 CURVE SMOOTH",
"447 886 OFFCURVE",
"323 965 OFFCURVE",
"351 1147 CURVE SMOOTH",
"379 1317 OFFCURVE",
"513 1430 OFFCURVE",
"691 1430 CURVE SMOOTH",
"865 1430 OFFCURVE",
"940 1324 OFFCURVE",
"966 1234 CURVE",
"1026 1258 LINE",
"998 1372 OFFCURVE",
"890 1490 OFFCURVE",
"692 1490 CURVE SMOOTH",
"494 1490 OFFCURVE",
"328 1374 OFFCURVE",
"290 1172 CURVE SMOOTH",
"244 936 OFFCURVE",
"423 831 OFFCURVE",
"557 751 CURVE SMOOTH",
"741 641 OFFCURVE",
"880 554 OFFCURVE",
"838 346 CURVE SMOOTH",
"802 160 OFFCURVE",
"642 44 OFFCURVE",
"474 44 CURVE SMOOTH",
"306 44 OFFCURVE",
"164 158 OFFCURVE",
"146 298 CURVE",
"78 270 LINE",
"108 132 OFFCURVE",
"250 -16 OFFCURVE",
"474 -16 CURVE SMOOTH"
);
}
);
};
layerId = "AB099EFE-E788-4EFC-8633-CF147CB782A6";
paths = (
{
closed = 1;
nodes = (
"721 -16 OFFCURVE",
"910 179 OFFCURVE",
"910 405 CURVE SMOOTH",
"910 795 OFFCURVE",
"347 771 OFFCURVE",
"347 1108 CURVE SMOOTH",
"347 1279 OFFCURVE",
"492 1430 OFFCURVE",
"694 1430 CURVE SMOOTH",
"867 1430 OFFCURVE",
"942 1319 OFFCURVE",
"966 1234 CURVE",
"1026 1258 LINE",
"998 1372 OFFCURVE",
"890 1490 OFFCURVE",
"693 1490 CURVE SMOOTH",
"459 1490 OFFCURVE",
"283 1322 OFFCURVE",
"283 1109 CURVE SMOOTH",
"283 729 OFFCURVE",
"846 762 OFFCURVE",
"846 410 CURVE SMOOTH",
"846 220 OFFCURVE",
"683 44 OFFCURVE",
"474 44 CURVE SMOOTH",
"306 44 OFFCURVE",
"164 158 OFFCURVE",
"146 298 CURVE",
"78 270 LINE",
"107 133 OFFCURVE",
"252 -16 OFFCURVE",
"471 -16 CURVE SMOOTH"
);
}
);
userData = {
RMXScaler = {
height = 139;
width = 140;
};
};
width = 1068;
},
{
anchors = (
{
name = bottom;
position = "{444, 0}";
},
{
name = top;
position = "{739, 1474}";
}
);
background = {
paths = (
{
closed = 1;
nodes = (
"728 -16 OFFCURVE",
"922 118 OFFCURVE",
"968 362 CURVE SMOOTH",
"1028 678 OFFCURVE",
"736 794 OFFCURVE",
"644 836 CURVE SMOOTH",
"526 890 OFFCURVE",
"397 973 OFFCURVE",
"432 1130 CURVE SMOOTH",
"458 1246 OFFCURVE",
"548 1326 OFFCURVE",
"680 1326 CURVE SMOOTH",
"818 1326 OFFCURVE",
"902 1236 OFFCURVE",
"922 1164 CURVE",
"1088 1226 LINE",
"1054 1372 OFFCURVE",
"900 1490 OFFCURVE",
"688 1490 CURVE SMOOTH",
"472 1490 OFFCURVE",
"310 1378 OFFCURVE",
"262 1178 CURVE SMOOTH",
"211 967 OFFCURVE",
"328 798 OFFCURVE",
"556 692 CURVE SMOOTH",
"644 652 OFFCURVE",
"826 578 OFFCURVE",
"792 382 CURVE SMOOTH",
"766 234 OFFCURVE",
"644 148 OFFCURVE",
"512 148 CURVE SMOOTH",
"370 148 OFFCURVE",
"242 258 OFFCURVE",
"228 380 CURVE",
"52 318 LINE",
"76 152 OFFCURVE",
"258 -16 OFFCURVE",
"500 -16 CURVE SMOOTH"
);
}
);
};
layerId = "8CC1EFAB-F3CB-44D1-8974-978FC52DD9AB";
paths = (
{
closed = 1;
nodes = (
"771 -16 OFFCURVE",
"976 183 OFFCURVE",
"976 439 CURVE SMOOTH",
"976 859 OFFCURVE",
"426 780 OFFCURVE",
"426 1083 CURVE SMOOTH",
"426 1216 OFFCURVE",
"532 1326 OFFCURVE",
"682 1326 CURVE SMOOTH",
"817 1326 OFFCURVE",
"902 1236 OFFCURVE",
"922 1164 CURVE",
"1088 1226 LINE",
"1054 1372 OFFCURVE",
"900 1490 OFFCURVE",
"688 1490 CURVE SMOOTH",
"436 1490 OFFCURVE",
"250 1324 OFFCURVE",
"250 1086 CURVE SMOOTH",
"250 677 OFFCURVE",
"796 719 OFFCURVE",
"796 421 CURVE SMOOTH",
"796 280 OFFCURVE",
"675 148 OFFCURVE",
"515 148 CURVE SMOOTH",
"370 148 OFFCURVE",
"243 256 OFFCURVE",
"228 380 CURVE",
"52 318 LINE",
"77 150 OFFCURVE",
"258 -16 OFFCURVE",
"503 -16 CURVE SMOOTH"
);
}
);
width = 1102;
},
{
anchors = (
{
name = bottom;
position = "{480, 0}";
},
{
name = top;
position = "{757, 1474}";
}
);
associatedMasterId = "8CC1EFAB-F3CB-44D1-8974-978FC52DD9AB";
background = {
paths = (
{
closed = 1;
nodes = (
"823 -16 OFFCURVE",
"999 152 OFFCURVE",
"1037 373 CURVE SMOOTH",
"1081 632 OFFCURVE",
"901 768 OFFCURVE",
"744 846 CURVE SMOOTH",
"632 901 OFFCURVE",
"501 965 OFFCURVE",
"517 1087 CURVE SMOOTH",
"528 1170 OFFCURVE",
"598 1230 OFFCURVE",
"696 1230 CURVE SMOOTH",
"804 1230 OFFCURVE",
"871 1156 OFFCURVE",
"887 1085 CURVE",
"1161 1194 LINE",
"1126 1357 OFFCURVE",
"953 1490 OFFCURVE",
"709 1490 CURVE SMOOTH",
"486 1490 OFFCURVE",
"295 1380 OFFCURVE",
"241 1156 CURVE SMOOTH",
"193 955 OFFCURVE",
"283 780 OFFCURVE",
"524 660 CURVE SMOOTH",
"621 612 OFFCURVE",
"774 556 OFFCURVE",
"755 412 CURVE SMOOTH",
"743 317 OFFCURVE",
"662 244 OFFCURVE",
"560 244 CURVE SMOOTH",
"442 244 OFFCURVE",
"346 341 OFFCURVE",
"330 449 CURVE",
"44 335 LINE",
"82 146 OFFCURVE",
"276 -16 OFFCURVE",
"547 -16 CURVE SMOOTH"
);
}
);
};
layerId = "9F58A7B3-AC43-4724-98F5-2B59089F3E04";
name = "{140}";
paths = (
{
closed = 1;
nodes = (
"831 -16 OFFCURVE",
"1044 177 OFFCURVE",
"1044 445 CURVE SMOOTH",
"1044 868 OFFCURVE",
"516 823 OFFCURVE",
"516 1068 CURVE SMOOTH",
"516 1160 OFFCURVE",
"590 1230 OFFCURVE",
"696 1230 CURVE SMOOTH",
"804 1230 OFFCURVE",
"871 1156 OFFCURVE",
"887 1085 CURVE",
"1161 1194 LINE",
"1126 1357 OFFCURVE",
"952 1490 OFFCURVE",
"711 1490 CURVE SMOOTH",
"436 1490 OFFCURVE",
"229 1318 OFFCURVE",
"229 1057 CURVE SMOOTH",
"229 641 OFFCURVE",
"757 690 OFFCURVE",
"757 435 CURVE SMOOTH",
"757 330 OFFCURVE",
"670 244 OFFCURVE",
"560 244 CURVE SMOOTH",
"442 244 OFFCURVE",
"346 341 OFFCURVE",
"330 449 CURVE",
"44 335 LINE",
"81 147 OFFCURVE",
"278 -16 OFFCURVE",
"543 -16 CURVE SMOOTH"
);
}
);
width = 1155;
}
);
leftKerningGroup = LAT_S_UC;
rightKerningGroup = LAT_S_UC;
unicode = 0053;
userData = {
RMXScaler = {
source = s;
};
};
},
{
glyphname = Germandbls;
lastChange = "2023-05-23 02:53:39 +0000";
layers = (
{
layerId = "AB099EFE-E788-4EFC-8633-CF147CB782A6";
paths = (
{
closed = 1;
nodes = (
"895 -15 OFFCURVE",
"1163 241 OFFCURVE",
"1163 529 CURVE SMOOTH",
"1163 767 OFFCURVE",
"981 906 OFFCURVE",
"731 892 CURVE",
"757 860 LINE",
"1101 1414 LINE",
"1101 1430 LINE",
"993 1474 OFFCURVE",
"868 1490 OFFCURVE",
"767 1490 CURVE SMOOTH",
"382 1490 OFFCURVE",
"337 1259 OFFCURVE",
"311 1130 CURVE SMOOTH",
"86 0 LINE",
"151 0 LINE",
"375 1126 LINE SMOOTH",
"405 1277 OFFCURVE",
"460 1432 OFFCURVE",
"780 1432 CURVE SMOOTH",
"886 1432 OFFCURVE",
"967 1414 OFFCURVE",
"1035 1386 CURVE",
"1033 1418 LINE",
"697 864 LINE",
"691 838 LINE",
"727 838 LINE SMOOTH",
"957 838 OFFCURVE",
"1102 729 OFFCURVE",
"1102 537 CURVE SMOOTH",
"1102 290 OFFCURVE",
"860 44 OFFCURVE",
"617 44 CURVE SMOOTH",
"555 44 OFFCURVE",
"471 60 OFFCURVE",
"403 76 CURVE",
"393 12 LINE",
"461 -5 OFFCURVE",
"533 -15 OFFCURVE",
"593 -15 CURVE SMOOTH"
);
}
);
width = 1290;
},
{
layerId = "2D8F7115-C311-411E-929D-56333CF7FFB2";
paths = (
{
closed = 1;
nodes = (
"1104 -18 OFFCURVE",
"1375 200 OFFCURVE",
"1375 500 CURVE SMOOTH",
"1375 713 OFFCURVE",
"1239 844 OFFCURVE",
"1000 844 CURVE",
"1116 704 LINE",
"1444 1338 LINE",
"1440 1368 LINE",
"1335 1432 OFFCURVE",
"1126 1490 OFFCURVE",
"900 1490 CURVE SMOOTH",
"527 1490 OFFCURVE",
"285 1331 OFFCURVE",
"226 1036 CURVE SMOOTH",
"18 0 LINE",
"393 0 LINE",
"586 958 LINE SMOOTH",
"614 1096 OFFCURVE",
"725 1170 OFFCURVE",
"899 1170 CURVE SMOOTH",
"954 1170 OFFCURVE",
"997 1162 OFFCURVE",
"1024 1148 CURVE",
"1016 1226 LINE",
"738 680 LINE",
"730 622 LINE",
"810 622 LINE SMOOTH",
"819 622 OFFCURVE",
"1012 622 OFFCURVE",
"1012 469 CURVE SMOOTH",
"1012 361 OFFCURVE",
"917 293 OFFCURVE",
"762 293 CURVE SMOOTH",
"729 293 OFFCURVE",
"700 296 OFFCURVE",
"650 306 CURVE",
"590 4 LINE",
"606 -2 OFFCURVE",
"676 -18 OFFCURVE",
"767 -18 CURVE SMOOTH"
);
}
);
width = 1441;
},
{
layerId = "8CC1EFAB-F3CB-44D1-8974-978FC52DD9AB";
paths = (
{
closed = 1;
nodes = (
"976 -15 OFFCURVE",
"1240 222 OFFCURVE",
"1240 515 CURVE SMOOTH",
"1240 729 OFFCURVE",
"1100 883 OFFCURVE",
"830 874 CURVE",
"890 800 LINE",
"1228 1384 LINE",
"1228 1406 LINE",
"1122 1458 OFFCURVE",
"962 1490 OFFCURVE",
"818 1490 CURVE SMOOTH",
"441 1490 OFFCURVE",
"310 1276 OFFCURVE",
"274 1096 CURVE SMOOTH",
"54 0 LINE",
"238 0 LINE",
"451 1062 LINE SMOOTH",
"485 1232 OFFCURVE",
"613 1326 OFFCURVE",
"826 1326 CURVE SMOOTH",
"908 1326 OFFCURVE",
"971 1312 OFFCURVE",
"1023 1288 CURVE",
"1019 1346 LINE",
"708 804 LINE",
"700 756 LINE",
"754 756 LINE SMOOTH",
"908 756 OFFCURVE",
"1062 686 OFFCURVE",
"1062 506 CURVE SMOOTH",
"1062 311 OFFCURVE",
"882 149 OFFCURVE",
"666 149 CURVE SMOOTH",
"618 149 OFFCURVE",
"575 157 OFFCURVE",
"494 174 CURVE",
"464 8 LINE",
"532 -9 OFFCURVE",
"595 -15 OFFCURVE",
"648 -15 CURVE SMOOTH"
);
}
);
width = 1346;
}
);
leftKerningGroup = LAT_GERMANDBLS_UC;
rightKerningGroup = LAT_GERMANDBLS_UC;
rightMetricsKey = B;
unicode = 1E9E;
},
{
glyphname = T;
lastChange = "2023-05-23 02:53:39 +0000";
layers = (
{
anchors = (
{
name = bottom;
position = "{397, 0}";
},
{
name = cedilla;
position = "{397, 0}";
},
{
name = center;
position = "{545, 736}";
},
{
name = top;
position = "{692, 1474}";
}
);
layerId = "AB099EFE-E788-4EFC-8633-CF147CB782A6";
paths = (
{
closed = 1;
nodes = (
"430 0 LINE",
"715 1432 LINE",
"650 1432 LINE",
"365 0 LINE"
);
},
{
closed = 1;
nodes = (
"1111 1414 LINE",
"1121 1474 LINE",
"259 1474 LINE",
"247 1414 LINE"
);
}
);
width = 1004;
},
{
anchors = (
{
name = bottom;
position = "{455, 0}";
},
{
name = cedilla;
position = "{455, 0}";
},
{
name = center;
position = "{586, 671}";
},
{
name = top;
position = "{752, 1474}";
}
);
layerId = "2D8F7115-C311-411E-929D-56333CF7FFB2";
paths = (
{
closed = 1;
nodes = (
"645 0 LINE",
"881 1196 LINE",
"506 1196 LINE",
"270 0 LINE"
);
},
{
closed = 1;
nodes = (
"1202 1146 LINE",
"1268 1474 LINE",
"236 1474 LINE",
"170 1146 LINE"
);
}
);
width = 1130;
},
{
anchors = (
{
name = bottom;
position = "{416, 0}";
},
{
name = cedilla;
position = "{416, 0}";
},
{
name = center;
position = "{557, 712}";
},
{
name = top;
position = "{713, 1474}";
}
);
layerId = "8CC1EFAB-F3CB-44D1-8974-978FC52DD9AB";
paths = (
{
closed = 1;
nodes = (
"509 0 LINE",
"776 1340 LINE",
"592 1340 LINE",
"326 0 LINE"
);
},
{
closed = 1;
nodes = (
"1143 1310 LINE",
"1175 1474 LINE",
"248 1474 LINE",
"216 1310 LINE"
);
}
);
width = 1048;
}
);
leftKerningGroup = LAT_T_UC;
rightKerningGroup = LAT_T_UC;
unicode = 0054;
},
{
glyphname = U;
lastChange = "2023-05-23 02:53:39 +0000";
layers = (
{
anchors = (
{
name = bottom;
position = "{585, 0}";
},
{
name = horn;
position = "{1289, 1474}";
},
{
name = ogonek;
position = "{720, 0}";
},
{
name = top;
position = "{861, 1474}";
}
);
layerId = "AB099EFE-E788-4EFC-8633-CF147CB782A6";
paths = (
{
closed = 1;
nodes = (
"896 -16 OFFCURVE",
"1066 172 OFFCURVE",
"1126 470 CURVE SMOOTH",
"1328 1474 LINE",
"1263 1474 LINE",
"1066 496 LINE SMOOTH",
"1008 208 OFFCURVE",
"840 44 OFFCURVE",
"604 44 CURVE SMOOTH",
"372 44 OFFCURVE",
"203 204 OFFCURVE",
"262 500 CURVE SMOOTH",
"457 1474 LINE",
"392 1474 LINE",
"196 492 LINE SMOOTH",
"135 188 OFFCURVE",
"318 -16 OFFCURVE",
"612 -16 CURVE SMOOTH"
);
}
);
width = 1341;
},
{
anchors = (
{
name = bottom;
position = "{671, 0}";
},
{
name = horn;
position = "{1402, 1474}";
},
{
name = ogonek;
position = "{802, 0}";
},
{
name = top;
position = "{908, 1474}";
}
);
layerId = "2D8F7115-C311-411E-929D-56333CF7FFB2";
paths = (
{
closed = 1;
nodes = (
"1014 -16 OFFCURVE",
"1244 198 OFFCURVE",
"1316 562 CURVE SMOOTH",
"1497 1474 LINE",
"1122 1474 LINE",
"942 570 LINE SMOOTH",
"912 420 OFFCURVE",
"822 312 OFFCURVE",
"686 312 CURVE SMOOTH",
"558 312 OFFCURVE",
"488 400 OFFCURVE",
"515 536 CURVE SMOOTH",
"701 1474 LINE",
"326 1474 LINE",
"153 602 LINE SMOOTH",
"80 238 OFFCURVE",
"306 -16 OFFCURVE",
"664 -16 CURVE SMOOTH"
);
}
);
width = 1452;
},
{
anchors = (
{
name = bottom;
position = "{610, 0}";
},
{
name = horn;
position = "{1323, 1474}";
},
{
name = ogonek;
position = "{743, 0}";
},
{
name = top;
position = "{870, 1474}";
}
);
layerId = "8CC1EFAB-F3CB-44D1-8974-978FC52DD9AB";
paths = (
{
closed = 1;
nodes = (
"931 -16 OFFCURVE",
"1126 178 OFFCURVE",
"1191 506 CURVE SMOOTH",
"1383 1474 LINE",
"1200 1474 LINE",
"1011 524 LINE SMOOTH",
"964 290 OFFCURVE",
"825 148 OFFCURVE",
"627 148 CURVE SMOOTH",
"435 148 OFFCURVE",
"304 280 OFFCURVE",
"351 514 CURVE SMOOTH",
"543 1474 LINE",
"359 1474 LINE",
"171 532 LINE SMOOTH",
"106 206 OFFCURVE",
"305 -16 OFFCURVE",
"625 -16 CURVE SMOOTH"
);
}
);
width = 1368;
}
);
leftKerningGroup = LAT_U_UC;
leftMetricsKey = H;
rightKerningGroup = LAT_U_UC;
rightMetricsKey = H;
unicode = 0055;
},
{
glyphname = V;
lastChange = "2023-05-23 02:53:39 +0000";
layers = (
{
anchors = (
{
name = bottom;
position = "{572, 0}";
},
{
name = top;
position = "{861, 1474}";
}
);
layerId = "AB099EFE-E788-4EFC-8633-CF147CB782A6";
paths = (
{
closed = 1;
nodes = (
"596 0 LINE",
"1480 1474 LINE",
"1404 1474 LINE",
"888 600 LINE",
"586 88 LINE",
"578 88 LINE",
"484 600 LINE",
"317 1474 LINE",
"252 1474 LINE",
"542 0 LINE"
);
}
);
width = 1354;
},
{
anchors = (
{
name = bottom;
position = "{635, 0}";
},
{
name = top;
position = "{928, 1474}";
}
);
layerId = "2D8F7115-C311-411E-929D-56333CF7FFB2";
paths = (
{
closed = 1;
nodes = (
"800 0 LINE",
"1670 1474 LINE",
"1240 1474 LINE",
"926 898 LINE",
"724 496 LINE",
"724 496 LINE",
"666 898 LINE",
"580 1474 LINE",
"186 1474 LINE",
"480 0 LINE"
);
}
);
width = 1484;
},
{
anchors = (
{
name = bottom;
position = "{590, 0}";
},
{
name = top;
position = "{879, 1474}";
}
);
layerId = "8CC1EFAB-F3CB-44D1-8974-978FC52DD9AB";
paths = (
{
closed = 1;
nodes = (
"660 0 LINE",
"1550 1474 LINE",
"1348 1474 LINE",
"910 714 LINE",
"642 258 LINE",
"634 258 LINE",
"542 714 LINE",
"402 1474 LINE",
"214 1474 LINE",
"518 0 LINE"
);
}
);
width = 1392;
}
);
leftKerningGroup = LAT_V_UC;
rightKerningGroup = LAT_V_UC;
unicode = 0056;
},
{
glyphname = W;
lastChange = "2023-05-23 02:53:39 +0000";
layers = (
{
anchors = (
{
name = bottom;
position = "{810, 0}";
},
{
name = top;
position = "{1091, 1474}";
}
);
layerId = "AB099EFE-E788-4EFC-8633-CF147CB782A6";
paths = (
{
closed = 1;
nodes = (
"454 0 LINE",
"1044 1243 LINE",
"1054 1243 LINE",
"1200 0 LINE",
"1280 0 LINE",
"1962 1474 LINE",
"1892 1474 LINE",
"1338 268 LINE",
"1256 72 LINE",
"1248 72 LINE",
"1094 1378 LINE",
"1044 1378 LINE",
"428 72 LINE",
"420 72 LINE",
"406 268 LINE",
"316 1474 LINE",
"252 1474 LINE",
"374 0 LINE"
);
}
);
width = 1838;
},
{
anchors = (
{
name = bottom;
position = "{918, 0}";
},
{
name = top;
position = "{1214, 1474}";
}
);
layerId = "2D8F7115-C311-411E-929D-56333CF7FFB2";
paths = (
{
closed = 1;
nodes = (
"656 0 LINE",
"1044 638 LINE",
"1052 638 LINE",
"1246 0 LINE",
"1540 0 LINE",
"2234 1474 LINE",
"1834 1474 LINE",
"1572 882 LINE",
"1418 512 LINE",
"1410 512 LINE",
"1220 1306 LINE",
"1072 1306 LINE",
"640 512 LINE",
"632 512 LINE",
"610 882 LINE",
"568 1474 LINE",
"196 1474 LINE",
"356 0 LINE"
);
}
);
width = 2056;
},
{
anchors = (
{
name = bottom;
position = "{831, 0}";
},
{
name = top;
position = "{1116, 1474}";
}
);
layerId = "8CC1EFAB-F3CB-44D1-8974-978FC52DD9AB";
paths = (
{
closed = 1;
nodes = (
"536 0 LINE",
"1012 914 LINE",
"1020 914 LINE",
"1176 0 LINE",
"1338 0 LINE",
"2038 1474 LINE",
"1848 1474 LINE",
"1454 612 LINE",
"1292 248 LINE",
"1284 248 LINE",
"1120 1320 LINE",
"1048 1320 LINE",
"508 248 LINE",
"500 248 LINE",
"470 612 LINE",
"400 1474 LINE",
"220 1474 LINE",
"376 0 LINE"
);
}
);
width = 1882;
}
);
leftKerningGroup = LAT_W_UC;
rightKerningGroup = LAT_W_UC;
unicode = 0057;
},
{
color = 9;
glyphname = W.ss03;
lastChange = "2023-05-23 02:53:39 +0000";
layers = (
{
anchors = (
{
name = bottom;
position = "{794, -49}";
},
{
name = top;
position = "{1107, 1545}";
}
);
layerId = "AB099EFE-E788-4EFC-8633-CF147CB782A6";
paths = (
{
closed = 1;
nodes = (
"426 0 LINE",
"710 600 LINE",
"1061 1352 LINE",
"1069 1352 LINE",
"1116 600 LINE",
"1163 0 LINE",
"1237 0 LINE",
"1927 1474 LINE",
"1862 1474 LINE",
"1457 592 LINE",
"1221 79 LINE",
"1212 79 LINE",
"1180 592 LINE",
"1116 1474 LINE",
"1063 1474 LINE",
"646 592 LINE",
"404 79 LINE",
"395 79 LINE",
"369 592 LINE",
"317 1474 LINE",
"250 1474 LINE",
"346 0 LINE"
);
}
);
width = 1800;
},
{
anchors = (
{
name = bottom;
position = "{860, -49}";
},
{
name = top;
position = "{1169, 1524}";
}
);
layerId = "2D8F7115-C311-411E-929D-56333CF7FFB2";
paths = (
{
closed = 1;
nodes = (
"606 0 LINE",
"870 483 LINE",
"1040 811 LINE",
"1032 811 LINE",
"1071 483 LINE",
"1141 0 LINE",
"1501 0 LINE",
"2136 1474 LINE",
"1722 1474 LINE",
"1501 885 LINE",
"1378 492 LINE",
"1374 492 LINE",
"1343 811 LINE",
"1264 1474 LINE",
"1044 1474 LINE",
"698 815 LINE",
"549 492 LINE",
"555 492 LINE",
"567 885 LINE",
"588 1474 LINE",
"199 1474 LINE",
"236 0 LINE"
);
}
);
width = 1962;
},
{
anchors = (
{
name = bottom;
position = "{848, -12}";
},
{
name = top;
position = "{1149, 1491}";
}
);
layerId = "8CC1EFAB-F3CB-44D1-8974-978FC52DD9AB";
paths = (
{
closed = 1;
nodes = (
"528 0 LINE",
"766 477 LINE",
"1067 1094 LINE",
"1075 1094 LINE",
"1130 477 LINE",
"1176 0 LINE",
"1343 0 LINE",
"2044 1474 LINE",
"1864 1474 LINE",
"1501 686 LINE",
"1317 274 LINE",
"1309 274 LINE",
"1270 709 LINE",
"1198 1474 LINE",
"1094 1474 LINE",
"711 709 LINE",
"502 274 LINE",
"494 274 LINE",
"477 686 LINE",
"428 1474 LINE",
"246 1474 LINE",
"360 0 LINE"
);
}
);
width = 1878;
}
);
leftKerningGroup = LAT_W_UC;
rightKerningGroup = LAT_W_UC;
},
{
glyphname = X;
lastChange = "2023-05-23 03:09:18 +0000";
layers = (
{
anchors = (
{
name = bottom;
position = "{519, 0}";
},
{
name = top;
position = "{816, 1474}";
}
);
layerId = "AB099EFE-E788-4EFC-8633-CF147CB782A6";
paths = (
{
closed = 1;
nodes = (
"1046 0 LINE",
"714 732 LINE",
"714 740 LINE",
"684 790 LINE",
"676 790 LINE",
"342 1474 LINE",
"276 1474 LINE",
"632 750 LINE",
"632 742 LINE",
"660 696 LINE",
"670 696 LINE",
"980 0 LINE"
);
},
{
closed = 1;
nodes = (
"76 0 LINE",
"666 696 LINE",
"674 696 LINE",
"714 730 LINE",
"714 736 LINE",
"1328 1474 LINE",
"1252 1474 LINE",
"680 790 LINE",
"672 790 LINE",
"632 754 LINE",
"632 744 LINE",
"-6 0 LINE"
);
}
);
width = 1246;
},
{
anchors = (
{
name = bottom;
position = "{645, 0}";
},
{
name = top;
position = "{942, 1474}";
}
);
layerId = "2D8F7115-C311-411E-929D-56333CF7FFB2";
paths = (
{
closed = 1;
nodes = (
"1358 0 LINE",
"1040 706 LINE",
"1040 710 LINE",
"844 974 LINE",
"836 974 LINE",
"640 1474 LINE",
"234 1474 LINE",
"548 768 LINE",
"548 764 LINE",
"754 466 LINE",
"760 466 LINE",
"952 0 LINE"
);
},
{
closed = 1;
nodes = (
"404 0 LINE",
"756 466 LINE",
"762 466 LINE",
"1040 712 LINE",
"1040 714 LINE",
"1640 1474 LINE",
"1182 1474 LINE",
"832 974 LINE",
"826 974 LINE",
"548 764 LINE",
"548 760 LINE",
"-76 0 LINE"
);
}
);
width = 1500;
},
{
anchors = (
{
name = bottom;
position = "{563, 0}";
},
{
name = top;
position = "{860, 1474}";
}
);
layerId = "8CC1EFAB-F3CB-44D1-8974-978FC52DD9AB";
paths = (
{
closed = 1;
nodes = (
"1162 0 LINE",
"836 722 LINE",
"836 728 LINE",
"742 860 LINE",
"734 860 LINE",
"454 1474 LINE",
"256 1474 LINE",
"596 756 LINE",
"596 750 LINE",
"692 608 LINE",
"700 608 LINE",
"966 0 LINE"
);
},
{
closed = 1;
nodes = (
"198 0 LINE",
"696 608 LINE",
"702 608 LINE",
"836 724 LINE",
"836 728 LINE",
"1444 1474 LINE",
"1222 1474 LINE",
"736 860 LINE",
"728 860 LINE",
"596 758 LINE",
"596 752 LINE",
"-38 0 LINE"
);
}
);
width = 1336;
}
);
leftKerningGroup = LAT_X_UC;
rightKerningGroup = LAT_X_UC;
unicode = 0058;
},
{
glyphname = Y;
lastChange = "2023-05-23 02:53:39 +0000";
layers = (
{
anchors = (
{
name = bottom;
position = "{486, 0}";
},
{
name = top;
position = "{779, 1474}";
}
);
layerId = "AB099EFE-E788-4EFC-8633-CF147CB782A6";
paths = (
{
closed = 1;
nodes = (
"518 0 LINE",
"656 676 LINE",
"1308 1474 LINE",
"1230 1474 LINE",
"878 1042 LINE",
"638 750 LINE",
"630 750 LINE",
"503 1042 LINE",
"317 1474 LINE",
"252 1474 LINE",
"592 684 LINE",
"454 0 LINE"
);
}
);
width = 1182;
},
{
anchors = (
{
name = bottom;
position = "{565, 0}";
},
{
name = top;
position = "{834, 1474}";
}
);
layerId = "2D8F7115-C311-411E-929D-56333CF7FFB2";
paths = (
{
closed = 1;
nodes = (
"753 0 LINE",
"859 538 LINE",
"1538 1474 LINE",
"1072 1474 LINE",
"914 1200 LINE",
"734 906 LINE",
"730 906 LINE",
"658 1200 LINE",
"580 1474 LINE",
"186 1474 LINE",
"488 556 LINE",
"378 0 LINE"
);
}
);
width = 1352;
},
{
anchors = (
{
name = bottom;
position = "{514, 0}";
},
{
name = top;
position = "{797, 1474}";
}
);
layerId = "8CC1EFAB-F3CB-44D1-8974-978FC52DD9AB";
paths = (
{
closed = 1;
nodes = (
"604 0 LINE",
"731 624 LINE",
"1394 1474 LINE",
"1166 1474 LINE",
"890 1104 LINE",
"672 810 LINE",
"664 810 LINE",
"558 1104 LINE",
"414 1474 LINE",
"224 1474 LINE",
"550 636 LINE",
"420 0 LINE"
);
}
);
width = 1240;
}
);
leftKerningGroup = LAT_Y_UC;
rightKerningGroup = LAT_Y_UC;
unicode = 0059;
},
{
glyphname = Z;
lastChange = "2023-05-23 02:53:39 +0000";
layers = (
{
anchors = (
{
name = bottom;
position = "{530, 0}";
},
{
name = top;
position = "{819, 1474}";
}
);
layerId = "AB099EFE-E788-4EFC-8633-CF147CB782A6";
paths = (
{
closed = 1;
nodes = (
"966 0 LINE",
"978 60 LINE",
"136 60 LINE",
"136 64 LINE",
"1226 1438 LINE",
"1234 1474 LINE",
"358 1474 LINE",
"346 1414 LINE",
"1126 1414 LINE",
"1126 1410 LINE",
"40 40 LINE",
"34 0 LINE"
);
}
);
width = 1208;
},
{
anchors = (
{
name = bottom;
position = "{508, 0}";
},
{
name = top;
position = "{805, 1474}";
}
);
guideLines = (
{
angle = 63;
position = "{121, 112}";
}
);
layerId = "2D8F7115-C311-411E-929D-56333CF7FFB2";
paths = (
{
closed = 1;
nodes = (
"1068 0 LINE",
"1133 324 LINE",
"575 324 LINE",
"575 332 LINE",
"1328 1420 LINE",
"1340 1474 LINE",
"284 1474 LINE",
"219 1150 LINE",
"719 1150 LINE",
"719 1142 LINE",
"-34 50 LINE",
"-44 0 LINE"
);
}
);
width = 1238;
},
{
anchors = (
{
name = bottom;
position = "{518, 0}";
},
{
name = top;
position = "{809, 1474}";
}
);
layerId = "8CC1EFAB-F3CB-44D1-8974-978FC52DD9AB";
paths = (
{
closed = 1;
nodes = (
"1000 0 LINE",
"1032 160 LINE",
"302 160 LINE",
"302 164 LINE",
"1262 1432 LINE",
"1270 1474 LINE",
"328 1474 LINE",
"296 1314 LINE",
"965 1314 LINE",
"965 1310 LINE",
"8 44 LINE",
"0 0 LINE"
);
}
);
width = 1212;
}
);
leftKerningGroup = LAT_Z_UC;
rightKerningGroup = LAT_Z_UC;
unicode = 005A;
},
{
glyphname = a;
lastChange = "2023-05-23 02:53:39 +0000";
layers = (
{
anchors = (
{
name = bottom;
position = "{467, 0}";
},
{
name = ogonek;
position = "{899, -16}";
},
{
name = top;
position = "{676, 1048}";
},
{
name = topright;
position = "{1200, 1048}";
}
);
background = {
paths = (
{
closed = 1;
nodes = (
"602 -16 OFFCURVE",
"736 54 OFFCURVE",
"828 200 CURVE",
"808 178 LINE",
"820 178 LINE",
"818 194 LINE",
"802 86 OFFCURVE",
"832 24 OFFCURVE",
"900 -16 CURVE",
"924 40 LINE",
"864 68 OFFCURVE",
"866 138 OFFCURVE",
"884 228 CURVE SMOOTH",
"1048 1048 LINE",
"986 1048 LINE",
"934 780 LINE",
"968 802 LINE",
"906 802 LINE",
"938 780 LINE",
"912 950 OFFCURVE",
"790 1064 OFFCURVE",
"616 1064 CURVE SMOOTH",
"358 1064 OFFCURVE",
"160 836 OFFCURVE",
"114 528 CURVE SMOOTH",
"68 214 OFFCURVE",
"206 -16 OFFCURVE",
"464 -16 CURVE SMOOTH"
);
},
{
closed = 1;
nodes = (
"252 40 OFFCURVE",
"134 236 OFFCURVE",
"172 512 CURVE SMOOTH",
"206 770 OFFCURVE",
"378 1008 OFFCURVE",
"612 1008 CURVE SMOOTH",
"820 1008 OFFCURVE",
"932 830 OFFCURVE",
"884 520 CURVE SMOOTH",
"840 230 OFFCURVE",
"680 40 OFFCURVE",
"464 40 CURVE SMOOTH"
);
}
);
};
layerId = "AB099EFE-E788-4EFC-8633-CF147CB782A6";
paths = (
{
closed = 1;
nodes = (
"603 -16 OFFCURVE",
"736 54 OFFCURVE",
"828 200 CURVE",
"808 178 LINE",
"820 178 LINE",
"818 194 LINE",
"804 100 OFFCURVE",
"823 29 OFFCURVE",
"900 -16 CURVE",
"924 40 LINE",
"865 68 OFFCURVE",
"866 136 OFFCURVE",
"884 228 CURVE SMOOTH",
"1048 1048 LINE",
"986 1048 LINE",
"934 780 LINE",
"968 802 LINE",
"906 802 LINE",
"938 780 LINE",
"912 948 OFFCURVE",
"794 1064 OFFCURVE",
"613 1064 CURVE SMOOTH",
"309 1064 OFFCURVE",
"105 738 OFFCURVE",
"105 418 CURVE SMOOTH",
"105 158 OFFCURVE",
"239 -16 OFFCURVE",
"462 -16 CURVE SMOOTH"
);
},
{
closed = 1;
nodes = (
"278 40 OFFCURVE",
"165 187 OFFCURVE",
"165 416 CURVE SMOOTH",
"165 706 OFFCURVE",
"347 1008 OFFCURVE",
"616 1008 CURVE SMOOTH",
"788 1008 OFFCURVE",
"895 884 OFFCURVE",
"895 644 CURVE SMOOTH",
"895 358 OFFCURVE",
"743 40 OFFCURVE",
"466 40 CURVE SMOOTH"
);
}
);
width = 1118;
},
{
anchors = (
{
name = bottom;
position = "{509, 0}";
},
{
name = ogonek;
position = "{1015, -16}";
},
{
name = top;
position = "{726, 1080}";
},
{
name = topright;
position = "{1220, 1080}";
}
);
background = {
paths = (
{
closed = 1;
nodes = (
"602 -16 OFFCURVE",
"726 70 OFFCURVE",
"816 214 CURVE",
"580 124 LINE",
"908 124 LINE",
"730 214 LINE",
"726 106 OFFCURVE",
"858 14 OFFCURVE",
"1016 -16 CURVE",
"1136 272 LINE",
"1098 282 OFFCURVE",
"1067 306 OFFCURVE",
"1082 380 CURVE SMOOTH",
"1224 1080 LINE",
"894 1080 LINE",
"842 816 LINE",
"1010 942 LINE",
"680 942 LINE",
"894 884 LINE",
"838 1016 OFFCURVE",
"726 1096 OFFCURVE",
"580 1096 CURVE SMOOTH",
"384 1096 OFFCURVE",
"126 952 OFFCURVE",
"64 574 CURVE SMOOTH",
"4 210 OFFCURVE",
"184 -16 OFFCURVE",
"442 -16 CURVE SMOOTH"
);
},
{
closed = 1;
nodes = (
"442 280 OFFCURVE",
"376 372 OFFCURVE",
"397 527 CURVE SMOOTH",
"418 681 OFFCURVE",
"510 802 OFFCURVE",
"642 802 CURVE SMOOTH",
"760 802 OFFCURVE",
"810 704 OFFCURVE",
"798 572 CURVE SMOOTH",
"786 441 OFFCURVE",
"715 280 OFFCURVE",
"560 280 CURVE SMOOTH"
);
}
);
};
layerId = "2D8F7115-C311-411E-929D-56333CF7FFB2";
paths = (
{
closed = 1;
nodes = (
"602 -16 OFFCURVE",
"726 70 OFFCURVE",
"816 214 CURVE",
"580 124 LINE",
"908 124 LINE",
"730 214 LINE",
"726 106 OFFCURVE",
"858 14 OFFCURVE",
"1016 -16 CURVE",
"1136 272 LINE",
"1084 286 OFFCURVE",
"1070 320 OFFCURVE",
"1082 380 CURVE SMOOTH",
"1224 1080 LINE",
"894 1080 LINE",
"842 816 LINE",
"1010 942 LINE",
"680 942 LINE",
"894 884 LINE",
"837 1016 OFFCURVE",
"730 1096 OFFCURVE",
"574 1096 CURVE SMOOTH",
"262 1096 OFFCURVE",
"53 777 OFFCURVE",
"53 448 CURVE SMOOTH",
"53 155 OFFCURVE",
"218 -16 OFFCURVE",
"442 -16 CURVE SMOOTH"
);
},
{
closed = 1;
nodes = (
"462 280 OFFCURVE",
"394 358 OFFCURVE",
"394 492 CURVE SMOOTH",
"394 658 OFFCURVE",
"498 802 OFFCURVE",
"635 802 CURVE SMOOTH",
"733 802 OFFCURVE",
"800 727 OFFCURVE",
"800 591 CURVE SMOOTH",
"800 424 OFFCURVE",
"698 280 OFFCURVE",
"561 280 CURVE SMOOTH"
);
}
);
width = 1248;
},
{
anchors = (
{
name = bottom;
position = "{479, 0}";
},
{
name = ogonek;
position = "{932, -16}";
},
{
name = top;
position = "{684, 1060}";
},
{
name = topright;
position = "{1233, 1060}";
}
);
background = {
paths = (
{
closed = 1;
nodes = (
"611 -16 OFFCURVE",
"743 60 OFFCURVE",
"837 222 CURVE",
"717 146 LINE",
"865 146 LINE",
"795 176 LINE",
"781 102 OFFCURVE",
"825 18 OFFCURVE",
"937 -16 CURVE",
"999 140 LINE",
"938 164 OFFCURVE",
"944 217 OFFCURVE",
"961 298 CURVE SMOOTH",
"1113 1060 LINE",
"946 1060 LINE",
"902 848 LINE",
"981 890 LINE",
"855 890 LINE",
"909 878 LINE",
"869 998 OFFCURVE",
"749 1076 OFFCURVE",
"599 1076 CURVE SMOOTH",
"347 1076 OFFCURVE",
"147 858 OFFCURVE",
"95 554 CURVE SMOOTH",
"38 223 OFFCURVE",
"194 -16 OFFCURVE",
"461 -16 CURVE SMOOTH"
);
},
{
closed = 1;
nodes = (
"315 144 OFFCURVE",
"234 296 OFFCURVE",
"268 520 CURVE SMOOTH",
"304 757 OFFCURVE",
"442 916 OFFCURVE",
"626 916 CURVE SMOOTH",
"806 916 OFFCURVE",
"890 763 OFFCURVE",
"847 538 CURVE SMOOTH",
"803 308 OFFCURVE",
"659 144 OFFCURVE",
"484 144 CURVE SMOOTH"
);
}
);
};
layerId = "8CC1EFAB-F3CB-44D1-8974-978FC52DD9AB";
paths = (
{
closed = 1;
nodes = (
"611 -16 OFFCURVE",
"743 60 OFFCURVE",
"837 222 CURVE",
"717 146 LINE",
"865 146 LINE",
"795 176 LINE",
"779 89 OFFCURVE",
"839 14 OFFCURVE",
"937 -16 CURVE",
"999 140 LINE",
"938 164 OFFCURVE",
"944 216 OFFCURVE",
"961 298 CURVE SMOOTH",
"1113 1060 LINE",
"946 1060 LINE",
"902 848 LINE",
"981 890 LINE",
"855 890 LINE",
"909 878 LINE",
"869 998 OFFCURVE",
"749 1076 OFFCURVE",
"599 1076 CURVE SMOOTH",
"290 1076 OFFCURVE",
"83 752 OFFCURVE",
"83 422 CURVE SMOOTH",
"83 161 OFFCURVE",
"231 -16 OFFCURVE",
"461 -16 CURVE SMOOTH"
);
},
{
closed = 1;
nodes = (
"340 144 OFFCURVE",
"260 254 OFFCURVE",
"260 424 CURVE SMOOTH",
"260 669 OFFCURVE",
"396 916 OFFCURVE",
"626 916 CURVE SMOOTH",
"775 916 OFFCURVE",
"858 811 OFFCURVE",
"858 648 CURVE SMOOTH",
"858 410 OFFCURVE",
"708 144 OFFCURVE",
"484 144 CURVE SMOOTH"
);
}
);
width = 1169;
}
);
leftKerningGroup = LAT_O_LC;
leftMetricsKey = o;
rightKerningGroup = LAT_A_LC;
rightMetricsKey = u;
unicode = 0061;
},
{
color = 4;
glyphname = a.ss01;
lastChange = "2023-05-23 02:53:39 +0000";
layers = (
{
anchors = (
{
name = bottom;
position = "{486, 0}";
},
{
name = ogonek;
position = "{919, 0}";
},
{
name = top;
position = "{695, 1048}";
}
);
layerId = "AB099EFE-E788-4EFC-8633-CF147CB782A6";
paths = (
{
closed = 1;
nodes = (
"807 -16 OFFCURVE",
"1034 339 OFFCURVE",
"1034 649 CURVE SMOOTH",
"1034 906 OFFCURVE",
"878 1064 OFFCURVE",
"651 1064 CURVE SMOOTH",
"332 1064 OFFCURVE",
"107 754 OFFCURVE",
"107 437 CURVE SMOOTH",
"107 169 OFFCURVE",
"267 -16 OFFCURVE",
"493 -16 CURVE SMOOTH"
);
},
{
closed = 1;
nodes = (
"294 40 OFFCURVE",
"167 204 OFFCURVE",
"167 434 CURVE SMOOTH",
"167 719 OFFCURVE",
"361 1008 OFFCURVE",
"651 1008 CURVE SMOOTH",
"841 1008 OFFCURVE",
"980 883 OFFCURVE",
"980 644 CURVE SMOOTH",
"980 357 OFFCURVE",
"779 40 OFFCURVE",
"497 40 CURVE SMOOTH"
);
},
{
closed = 1;
nodes = (
"920 0 LINE",
"1128 1048 LINE",
"1067 1048 LINE",
"1018 798 LINE",
"998 798 LINE",
"1016 762 LINE",
"916 276 LINE",
"882 227 LINE",
"904 227 LINE",
"859 0 LINE"
);
}
);
width = 1188;
},
{
anchors = (
{
name = bottom;
position = "{496, 0}";
},
{
name = ogonek;
position = "{1077, 0}";
},
{
name = top;
position = "{709, 1080}";
}
);
layerId = "2D8F7115-C311-411E-929D-56333CF7FFB2";
paths = (
{
closed = 1;
nodes = (
"778 -16 OFFCURVE",
"986 347 OFFCURVE",
"986 671 CURVE SMOOTH",
"986 928 OFFCURVE",
"856 1096 OFFCURVE",
"605 1096 CURVE SMOOTH",
"276 1096 OFFCURVE",
"58 806 OFFCURVE",
"58 480 CURVE SMOOTH",
"58 207 OFFCURVE",
"211 -16 OFFCURVE",
"460 -16 CURVE SMOOTH"
);
},
{
closed = 1;
nodes = (
"463 280 OFFCURVE",
"394 379 OFFCURVE",
"394 500 CURVE SMOOTH",
"394 650 OFFCURVE",
"501 794 OFFCURVE",
"655 794 CURVE SMOOTH",
"774 794 OFFCURVE",
"845 708 OFFCURVE",
"845 583 CURVE SMOOTH",
"845 433 OFFCURVE",
"742 280 OFFCURVE",
"587 280 CURVE SMOOTH"
);
},
{
closed = 1;
nodes = (
"1077 0 LINE",
"1293 1080 LINE",
"951 1080 LINE",
"925 946 LINE",
"877 946 LINE",
"917 854 LINE",
"781 174 LINE",
"725 130 LINE",
"787 130 LINE",
"761 0 LINE"
);
}
);
width = 1298;
},
{
anchors = (
{
name = bottom;
position = "{481, 0}";
},
{
name = ogonek;
position = "{997, 0}";
},
{
name = top;
position = "{688, 1060}";
}
);
layerId = "8CC1EFAB-F3CB-44D1-8974-978FC52DD9AB";
paths = (
{
closed = 1;
nodes = (
"809 -16 OFFCURVE",
"1051 320 OFFCURVE",
"1051 647 CURVE SMOOTH",
"1051 908 OFFCURVE",
"896 1076 OFFCURVE",
"647 1076 CURVE SMOOTH",
"316 1076 OFFCURVE",
"87 780 OFFCURVE",
"87 452 CURVE SMOOTH",
"87 179 OFFCURVE",
"246 -16 OFFCURVE",
"489 -16 CURVE SMOOTH"
);
},
{
closed = 1;
nodes = (
"356 144 OFFCURVE",
"260 276 OFFCURVE",
"260 458 CURVE SMOOTH",
"260 694 OFFCURVE",
"422 920 OFFCURVE",
"660 920 CURVE SMOOTH",
"833 920 OFFCURVE",
"942 801 OFFCURVE",
"942 618 CURVE SMOOTH",
"942 384 OFFCURVE",
"765 144 OFFCURVE",
"530 144 CURVE SMOOTH"
);
},
{
closed = 1;
nodes = (
"998 0 LINE",
"1206 1060 LINE",
"1035 1060 LINE",
"1001 886 LINE",
"976 886 LINE",
"1000 816 LINE",
"888 246 LINE",
"836 160 LINE",
"866 160 LINE",
"834 0 LINE"
);
}
);
width = 1230;
}
);
leftKerningGroup = LAT_O_LC;
leftMetricsKey = o;
rightKerningGroup = LAT_ASS01_LC;
rightMetricsKey = "=n.ss01+4";
},
{
glyphname = ae;
lastChange = "2023-05-23 02:53:39 +0000";
layers = (
{
background = {
paths = (
{
closed = 1;
nodes = (
"583 -16 OFFCURVE",
"725 54 OFFCURVE",
"822 226 CURVE",
"782 188 LINE",
"816 188 LINE",
"802 224 LINE",
"800 118 OFFCURVE",
"800 74 OFFCURVE",
"804 0 CURVE",
"864 0 LINE",
"858 122 OFFCURVE",
"854 240 OFFCURVE",
"880 364 CURVE",
"1016 1048 LINE",
"955 1048 LINE",
"903 788 LINE",
"938 802 LINE",
"880 802 LINE",
"908 780 LINE",
"884 949 OFFCURVE",
"773 1064 OFFCURVE",
"597 1064 CURVE SMOOTH",
"352 1064 OFFCURVE",
"157 839 OFFCURVE",
"114 528 CURVE SMOOTH",
"70 214 OFFCURVE",
"206 -16 OFFCURVE",
"449 -16 CURVE SMOOTH"
);
},
{
closed = 1;
nodes = (
"246 40 OFFCURVE",
"135 240 OFFCURVE",
"172 511 CURVE SMOOTH",
"207 771 OFFCURVE",
"368 1008 OFFCURVE",
"597 1008 CURVE SMOOTH",
"803 1008 OFFCURVE",
"900 816 OFFCURVE",
"858 525 CURVE SMOOTH",
"816 232 OFFCURVE",
"661 40 OFFCURVE",
"456 40 CURVE SMOOTH"
);
},
{
closed = 1;
nodes = (
"1350 -16 OFFCURVE",
"1454 42 OFFCURVE",
"1526 102 CURVE",
"1506 160 LINE",
"1422 88 OFFCURVE",
"1330 40 OFFCURVE",
"1214 40 CURVE SMOOTH",
"996 40 OFFCURVE",
"872 198 OFFCURVE",
"926 500 CURVE SMOOTH",
"976 779 OFFCURVE",
"1149 1008 OFFCURVE",
"1359 1008 CURVE SMOOTH",
"1547 1008 OFFCURVE",
"1658 823 OFFCURVE",
"1611 560 CURVE",
"922 560 LINE",
"908 504 LINE",
"1655 504 LINE",
"1660 524 OFFCURVE",
"1662 533 OFFCURVE",
"1665 549 CURVE SMOOTH",
"1720 849 OFFCURVE",
"1594 1064 OFFCURVE",
"1363 1064 CURVE SMOOTH",
"1127 1064 OFFCURVE",
"910 841 OFFCURVE",
"868 489 CURVE SMOOTH",
"833 197 OFFCURVE",
"941 -16 OFFCURVE",
"1210 -16 CURVE SMOOTH"
);
}
);
};
layerId = "AB099EFE-E788-4EFC-8633-CF147CB782A6";
paths = (
{
closed = 1;
nodes = (
"583 -16 OFFCURVE",
"725 54 OFFCURVE",
"822 226 CURVE",
"782 188 LINE",
"816 188 LINE",
"802 224 LINE",
"801 151 OFFCURVE",
"801 59 OFFCURVE",
"804 0 CURVE",
"864 0 LINE",
"857 136 OFFCURVE",
"857 254 OFFCURVE",
"880 364 CURVE",
"1016 1048 LINE",
"955 1048 LINE",
"903 788 LINE",
"938 802 LINE",
"880 802 LINE",
"908 780 LINE",
"884 949 OFFCURVE",
"773 1064 OFFCURVE",
"597 1064 CURVE SMOOTH",
"302 1064 OFFCURVE",
"106 742 OFFCURVE",
"106 420 CURVE SMOOTH",
"106 158 OFFCURVE",
"236 -16 OFFCURVE",
"448 -16 CURVE SMOOTH"
);
},
{
closed = 1;
nodes = (
"273 40 OFFCURVE",
"165 191 OFFCURVE",
"165 416 CURVE SMOOTH",
"165 698 OFFCURVE",
"336 1008 OFFCURVE",
"598 1008 CURVE SMOOTH",
"771 1008 OFFCURVE",
"868 873 OFFCURVE",
"868 643 CURVE SMOOTH",
"868 362 OFFCURVE",
"723 40 OFFCURVE",
"456 40 CURVE SMOOTH"
);
},
{
closed = 1;
nodes = (
"1350 -16 OFFCURVE",
"1454 42 OFFCURVE",
"1526 102 CURVE",
"1506 160 LINE",
"1422 88 OFFCURVE",
"1331 40 OFFCURVE",
"1212 40 CURVE SMOOTH",
"1030 40 OFFCURVE",
"913 151 OFFCURVE",
"913 375 CURVE SMOOTH",
"913 654 OFFCURVE",
"1095 1008 OFFCURVE",
"1362 1008 CURVE SMOOTH",
"1522 1008 OFFCURVE",
"1623 881 OFFCURVE",
"1623 680 CURVE SMOOTH",
"1623 640 OFFCURVE",
"1619 601 OFFCURVE",
"1612 560 CURVE",
"922 560 LINE",
"908 504 LINE",
"1656 504 LINE",
"1670 560 OFFCURVE",
"1679 627 OFFCURVE",
"1679 690 CURVE SMOOTH",
"1679 921 OFFCURVE",
"1558 1064 OFFCURVE",
"1366 1064 CURVE SMOOTH",
"1125 1064 OFFCURVE",
"909 838 OFFCURVE",
"868 489 CURVE SMOOTH",
"834 201 OFFCURVE",
"938 -16 OFFCURVE",
"1210 -16 CURVE SMOOTH"
);
}
);
width = 1768;
},
{
background = {
paths = (
{
closed = 1;
nodes = (
"535 -16 OFFCURVE",
"642 64 OFFCURVE",
"716 198 CURVE",
"654 140 LINE",
"700 140 LINE",
"692 212 LINE",
"682 146 OFFCURVE",
"682 66 OFFCURVE",
"694 0 CURVE",
"1010 0 LINE",
"986 96 OFFCURVE",
"990 196 OFFCURVE",
"1010 292 CURVE",
"1156 1080 LINE",
"836 1080 LINE",
"782 818 LINE",
"966 942 LINE",
"648 942 LINE",
"856 884 LINE",
"800 1016 OFFCURVE",
"696 1096 OFFCURVE",
"552 1096 CURVE SMOOTH",
"349 1096 OFFCURVE",
"123 937 OFFCURVE",
"64 573 CURVE SMOOTH",
"6 220 OFFCURVE",
"154 -16 OFFCURVE",
"395 -16 CURVE SMOOTH"
);
},
{
closed = 1;
nodes = (
"423 280 OFFCURVE",
"377 375 OFFCURVE",
"396 518 CURVE SMOOTH",
"417 678 OFFCURVE",
"507 802 OFFCURVE",
"640 802 CURVE SMOOTH",
"755 802 OFFCURVE",
"812 708 OFFCURVE",
"796 570 CURVE SMOOTH",
"780 428 OFFCURVE",
"692 280 OFFCURVE",
"543 280 CURVE SMOOTH"
);
},
{
closed = 1;
nodes = (
"1502 -16 OFFCURVE",
"1620 6 OFFCURVE",
"1710 54 CURVE",
"1608 316 LINE",
"1576 290 OFFCURVE",
"1462 258 OFFCURVE",
"1358 258 CURVE SMOOTH",
"1164 258 OFFCURVE",
"1121 368 OFFCURVE",
"1134 510 CURVE SMOOTH",
"1144 623 OFFCURVE",
"1193 818 OFFCURVE",
"1404 818 CURVE SMOOTH",
"1530 818 OFFCURVE",
"1599 749 OFFCURVE",
"1584 652 CURVE",
"1126 652 LINE",
"1088 422 LINE",
"1830 422 LINE",
"1846 463 OFFCURVE",
"1859 503 OFFCURVE",
"1868 556 CURVE SMOOTH",
"1922 874 OFFCURVE",
"1725 1096 OFFCURVE",
"1463 1096 CURVE SMOOTH",
"1212 1096 OFFCURVE",
"953 891 OFFCURVE",
"902 552 CURVE SMOOTH",
"852 220 OFFCURVE",
"1037 -16 OFFCURVE",
"1393 -16 CURVE SMOOTH"
);
}
);
};
layerId = "2D8F7115-C311-411E-929D-56333CF7FFB2";
paths = (
{
closed = 1;
nodes = (
"535 -16 OFFCURVE",
"642 64 OFFCURVE",
"716 198 CURVE",
"654 140 LINE",
"700 140 LINE",
"692 212 LINE",
"682 151 OFFCURVE",
"683 62 OFFCURVE",
"694 0 CURVE",
"1010 0 LINE",
"986 99 OFFCURVE",
"989 188 OFFCURVE",
"1010 292 CURVE",
"1156 1080 LINE",
"836 1080 LINE",
"782 818 LINE",
"966 942 LINE",
"648 942 LINE",
"856 884 LINE",
"798 1019 OFFCURVE",
"696 1096 OFFCURVE",
"548 1096 CURVE SMOOTH",
"238 1096 OFFCURVE",
"52 757 OFFCURVE",
"52 433 CURVE SMOOTH",
"52 154 OFFCURVE",
"189 -16 OFFCURVE",
"394 -16 CURVE SMOOTH"
);
},
{
closed = 1;
nodes = (
"440 280 OFFCURVE",
"393 348 OFFCURVE",
"393 465 CURVE SMOOTH",
"393 626 OFFCURVE",
"483 802 OFFCURVE",
"641 802 CURVE SMOOTH",
"742 802 OFFCURVE",
"799 730 OFFCURVE",
"799 609 CURVE SMOOTH",
"799 448 OFFCURVE",
"698 280 OFFCURVE",
"540 280 CURVE SMOOTH"
);
},
{
closed = 1;
nodes = (
"1507 -16 OFFCURVE",
"1637 13 OFFCURVE",
"1710 54 CURVE",
"1608 316 LINE",
"1580 295 OFFCURVE",
"1493 258 OFFCURVE",
"1396 258 CURVE SMOOTH",
"1264 258 OFFCURVE",
"1140 326 OFFCURVE",
"1140 509 CURVE SMOOTH",
"1140 656 OFFCURVE",
"1220 824 OFFCURVE",
"1418 824 CURVE SMOOTH",
"1525 824 OFFCURVE",
"1586 775 OFFCURVE",
"1586 689 CURVE SMOOTH",
"1586 670 OFFCURVE",
"1583 652 OFFCURVE",
"1580 638 CURVE",
"1122 638 LINE",
"1088 426 LINE",
"1830 426 LINE",
"1859 499 OFFCURVE",
"1877 577 OFFCURVE",
"1877 659 CURVE SMOOTH",
"1877 921 OFFCURVE",
"1707 1096 OFFCURVE",
"1469 1096 CURVE SMOOTH",
"1152 1096 OFFCURVE",
"894 786 OFFCURVE",
"894 448 CURVE SMOOTH",
"894 173 OFFCURVE",
"1065 -16 OFFCURVE",
"1383 -16 CURVE SMOOTH"
);
}
);
width = 1918;
},
{
background = {
paths = (
{
closed = 1;
nodes = (
"554 -16 OFFCURVE",
"692 36 OFFCURVE",
"782 198 CURVE",
"734 150 LINE",
"772 150 LINE",
"760 202 LINE",
"756 126 OFFCURVE",
"750 66 OFFCURVE",
"756 0 CURVE",
"926 0 LINE",
"914 112 OFFCURVE",
"916 224 OFFCURVE",
"938 336 CURVE",
"1074 1060 LINE",
"902 1060 LINE",
"852 792 LINE",
"946 924 LINE",
"786 924 LINE",
"918 820 LINE",
"882 978 OFFCURVE",
"734 1076 OFFCURVE",
"576 1076 CURVE SMOOTH",
"348 1076 OFFCURVE",
"146 882 OFFCURVE",
"94 546 CURVE SMOOTH",
"44 216 OFFCURVE",
"176 -16 OFFCURVE",
"432 -16 CURVE SMOOTH"
);
},
{
closed = 1;
nodes = (
"308 132 OFFCURVE",
"235 296 OFFCURVE",
"263 512 CURVE SMOOTH",
"293 732 OFFCURVE",
"416 928 OFFCURVE",
"614 928 CURVE SMOOTH",
"788 928 OFFCURVE",
"872 774 OFFCURVE",
"838 536 CURVE SMOOTH",
"804 296 OFFCURVE",
"666 132 OFFCURVE",
"486 132 CURVE SMOOTH"
);
},
{
closed = 1;
nodes = (
"1404 -16 OFFCURVE",
"1532 30 OFFCURVE",
"1612 84 CURVE",
"1562 236 LINE",
"1500 182 OFFCURVE",
"1376 140 OFFCURVE",
"1272 140 CURVE SMOOTH",
"1078 140 OFFCURVE",
"976 268 OFFCURVE",
"1010 502 CURVE SMOOTH",
"1042 720 OFFCURVE",
"1182 920 OFFCURVE",
"1376 920 CURVE SMOOTH",
"1522 920 OFFCURVE",
"1634 817 OFFCURVE",
"1598 605 CURVE",
"1010 605 LINE",
"988 465 LINE",
"1738 465 LINE",
"1744 483 OFFCURVE",
"1755 532 OFFCURVE",
"1759 558 CURVE SMOOTH",
"1815 884 OFFCURVE",
"1622 1076 OFFCURVE",
"1392 1076 CURVE SMOOTH",
"1152 1076 OFFCURVE",
"920 858 OFFCURVE",
"872 516 CURVE SMOOTH",
"830 206 OFFCURVE",
"974 -16 OFFCURVE",
"1270 -16 CURVE SMOOTH"
);
}
);
};
layerId = "8CC1EFAB-F3CB-44D1-8974-978FC52DD9AB";
paths = (
{
closed = 1;
nodes = (
"554 -16 OFFCURVE",
"692 36 OFFCURVE",
"782 198 CURVE",
"734 150 LINE",
"772 150 LINE",
"760 202 LINE",
"751 118 OFFCURVE",
"750 65 OFFCURVE",
"756 0 CURVE",
"926 0 LINE",
"914 110 OFFCURVE",
"917 231 OFFCURVE",
"938 336 CURVE",
"1074 1060 LINE",
"902 1060 LINE",
"852 792 LINE",
"946 924 LINE",
"786 924 LINE",
"918 820 LINE",
"882 978 OFFCURVE",
"734 1076 OFFCURVE",
"576 1076 CURVE SMOOTH",
"272 1076 OFFCURVE",
"83 748 OFFCURVE",
"83 413 CURVE SMOOTH",
"83 155 OFFCURVE",
"212 -16 OFFCURVE",
"432 -16 CURVE SMOOTH"
);
},
{
closed = 1;
nodes = (
"333 132 OFFCURVE",
"256 254 OFFCURVE",
"256 426 CURVE SMOOTH",
"256 672 OFFCURVE",
"391 928 OFFCURVE",
"614 928 CURVE SMOOTH",
"803 928 OFFCURVE",
"869 751 OFFCURVE",
"838 536 CURVE SMOOTH",
"804 296 OFFCURVE",
"666 132 OFFCURVE",
"486 132 CURVE SMOOTH"
);
},
{
closed = 1;
nodes = (
"1404 -16 OFFCURVE",
"1532 30 OFFCURVE",
"1612 84 CURVE",
"1562 236 LINE",
"1500 182 OFFCURVE",
"1376 140 OFFCURVE",
"1272 140 CURVE SMOOTH",
"1103 140 OFFCURVE",
"1004 237 OFFCURVE",
"1004 418 CURVE SMOOTH",
"1004 657 OFFCURVE",
"1155 920 OFFCURVE",
"1376 920 CURVE SMOOTH",
"1503 920 OFFCURVE",
"1605 842 OFFCURVE",
"1605 681 CURVE SMOOTH",
"1605 657 OFFCURVE",
"1603 632 OFFCURVE",
"1598 605 CURVE",
"1010 605 LINE",
"988 465 LINE",
"1738 465 LINE",
"1755 515 OFFCURVE",
"1769 608 OFFCURVE",
"1769 668 CURVE SMOOTH",
"1769 927 OFFCURVE",
"1595 1076 OFFCURVE",
"1392 1076 CURVE SMOOTH",
"1086 1076 OFFCURVE",
"865 746 OFFCURVE",
"865 414 CURVE SMOOTH",
"865 158 OFFCURVE",
"1008 -16 OFFCURVE",
"1270 -16 CURVE SMOOTH"
);
}
);
width = 1838;
}
);
leftKerningGroup = LAT_ASS02_LC;
leftMetricsKey = o;
rightKerningGroup = LAT_E_LC;
rightMetricsKey = e;
unicode = 00E6;
},
{
glyphname = b;
lastChange = "2023-05-23 02:53:39 +0000";
layers = (
{
anchors = (
{
name = bottom;
position = "{458, 0}";
},
{
name = center;
position = "{345, 1262}";
},
{
name = top;
position = "{733, 1155}";
}
);
components = (
{
name = _part.bowl;
}
);
layerId = "AB099EFE-E788-4EFC-8633-CF147CB782A6";
paths = (
{
closed = 1;
nodes = (
"128 0 LINE",
"178 260 LINE",
"212 260 LINE",
"190 368 LINE",
"268 762 LINE",
"332 870 LINE",
"301 870 LINE",
"435 1540 LINE",
"374 1540 LINE",
"66 0 LINE"
);
}
);
width = 1157;
},
{
anchors = (
{
name = bottom;
position = "{509, 0}";
},
{
name = center;
position = "{445, 1298}";
},
{
name = top;
position = "{896, 1163}";
}
);
components = (
{
name = _part.bowl;
transform = "{1, 0, 0, 1, -1, 0}";
}
);
layerId = "2D8F7115-C311-411E-929D-56333CF7FFB2";
paths = (
{
closed = 1;
nodes = (
"339 0 LINE",
"365 136 LINE",
"405 136 LINE",
"381 270 LINE",
"515 902 LINE",
"593 1016 LINE",
"563 1016 LINE",
"667 1540 LINE",
"313 1540 LINE",
"5 0 LINE"
);
}
);
width = 1244;
},
{
anchors = (
{
name = bottom;
position = "{494, 0}";
},
{
name = center;
position = "{372, 1278}";
},
{
name = top;
position = "{814, 1159}";
}
);
components = (
{
alignment = -1;
name = _part.bowl;
transform = "{1, 0, 0, 1, 5, 0}";
}
);
layerId = "8CC1EFAB-F3CB-44D1-8974-978FC52DD9AB";
paths = (
{
closed = 1;
nodes = (
"198 0 LINE",
"233 174 LINE",
"271 174 LINE",
"239 266 LINE",
"357 840 LINE",
"413 930 LINE",
"394 930 LINE",
"517 1540 LINE",
"341 1540 LINE",
"31 0 LINE"
);
}
);
width = 1189;
}
);
leftKerningGroup = LAT_H_UC;
leftMetricsKey = h;
rightKerningGroup = LAT_O_LC;
rightMetricsKey = o;
unicode = 0062;
},
{
color = 4;
glyphname = b.ss01;
lastChange = "2023-05-23 02:53:39 +0000";
layers = (
{
anchors = (
{
name = bottom;
position = "{533, 0}";
},
{
name = center;
position = "{349, 1262}";
},
{
name = top;
position = "{741, 1155}";
}
);
components = (
{
name = _part.bowl.ss01;
}
);
layerId = "AB099EFE-E788-4EFC-8633-CF147CB782A6";
paths = (
{
closed = 1;
nodes = (
"127 0 LINE",
"178 256 LINE",
"198 256 LINE",
"182 338 LINE",
"262 738 LINE",
"318 828 LINE",
"292 828 LINE",
"434 1540 LINE",
"373 1540 LINE",
"66 0 LINE"
);
}
);
width = 1224;
},
{
anchors = (
{
name = bottom;
position = "{581, 0}";
},
{
name = center;
position = "{454, 1298}";
},
{
name = top;
position = "{904, 1163}";
}
);
components = (
{
name = _part.bowl.ss01;
}
);
layerId = "2D8F7115-C311-411E-929D-56333CF7FFB2";
paths = (
{
closed = 1;
nodes = (
"331 0 LINE",
"360 145 LINE",
"407 145 LINE",
"387 226 LINE",
"511 816 LINE",
"588 989 LINE",
"558 989 LINE",
"668 1540 LINE",
"313 1540 LINE",
"5 0 LINE"
);
}
);
width = 1302;
},
{
anchors = (
{
name = bottom;
position = "{560, 0}";
},
{
name = center;
position = "{376, 1276}";
},
{
name = top;
position = "{802, 1159}";
}
);
components = (
{
alignment = -1;
name = _part.bowl.ss01;
}
);
layerId = "8CC1EFAB-F3CB-44D1-8974-978FC52DD9AB";
paths = (
{
closed = 1;
nodes = (
"199 0 LINE",
"235 188 LINE",
"261 188 LINE",
"247 272 LINE",
"345 772 LINE",
"411 934 LINE",
"392 934 LINE",
"512 1540 LINE",
"337 1540 LINE",
"31 0 LINE"
);
}
);
width = 1260;
}
);
leftKerningGroup = LAT_L_LC;
leftMetricsKey = h;
rightKerningGroup = LAT_O_LC;
rightMetricsKey = o;
},
{
glyphname = c;
lastChange = "2023-05-23 02:53:39 +0000";
layers = (
{
anchors = (
{
name = base;
position = "{670, 0}";
},
{
name = bottom;
position = "{449, 0}";
},
{
name = cedilla;
position = "{465, 0}";
},
{
name = top;
position = "{657, 1048}";
}
);
background = {
paths = (
{
closed = 1;
nodes = (
"601 -16 OFFCURVE",
"709 32 OFFCURVE",
"805 106 CURVE",
"777 166 LINE",
"707 96 OFFCURVE",
"595 40 OFFCURVE",
"485 40 CURVE SMOOTH",
"245 40 OFFCURVE",
"125 282 OFFCURVE",
"181 562 CURVE SMOOTH",
"233 832 OFFCURVE",
"416 1008 OFFCURVE",
"650 1008 CURVE SMOOTH",
"764 1008 OFFCURVE",
"870 964 OFFCURVE",
"920 902 CURVE",
"954 954 LINE",
"892 1018 OFFCURVE",
"770 1064 OFFCURVE",
"646 1064 CURVE SMOOTH",
"390 1064 OFFCURVE",
"180 880 OFFCURVE",
"120 564 CURVE SMOOTH",
"58 236 OFFCURVE",
"219 -16 OFFCURVE",
"491 -16 CURVE SMOOTH"
);
}
);
};
layerId = "AB099EFE-E788-4EFC-8633-CF147CB782A6";
paths = (
{
closed = 1;
nodes = (
"603 -16 OFFCURVE",
"709 32 OFFCURVE",
"805 106 CURVE",
"777 166 LINE",
"707 96 OFFCURVE",
"596 40 OFFCURVE",
"482 40 CURVE SMOOTH",
"284 40 OFFCURVE",
"168 209 OFFCURVE",
"168 438 CURVE SMOOTH",
"168 728 OFFCURVE",
"356 1008 OFFCURVE",
"648 1008 CURVE SMOOTH",
"764 1008 OFFCURVE",
"870 964 OFFCURVE",
"920 902 CURVE",
"954 954 LINE",
"892 1018 OFFCURVE",
"770 1064 OFFCURVE",
"644 1064 CURVE SMOOTH",
"320 1064 OFFCURVE",
"108 760 OFFCURVE",
"108 439 CURVE SMOOTH",
"108 168 OFFCURVE",
"258 -16 OFFCURVE",
"486 -16 CURVE SMOOTH"
);
}
);
userData = {
RMXScaler = {
height = 71.5;
weight = 20;
width = 77;
};
};
width = 980;
},
{
anchors = (
{
name = base;
position = "{731, 0}";
},
{
name = bottom;
position = "{510, 0}";
},
{
name = cedilla;
position = "{520, 0}";
},
{
name = top;
position = "{719, 1080}";
}
);
background = {
paths = (
{
closed = 1;
nodes = (
"658 -12 OFFCURVE",
"776 16 OFFCURVE",
"846 62 CURVE",
"770 366 LINE",
"714 326 OFFCURVE",
"646 300 OFFCURVE",
"572 300 CURVE SMOOTH",
"442 300 OFFCURVE",
"374 404 OFFCURVE",
"404 560 CURVE SMOOTH",
"432 702 OFFCURVE",
"528 794 OFFCURVE",
"642 794 CURVE SMOOTH",
"700 794 OFFCURVE",
"780 766 OFFCURVE",
"822 726 CURVE",
"998 988 LINE",
"942 1034 OFFCURVE",
"824 1096 OFFCURVE",
"656 1096 CURVE SMOOTH",
"346 1096 OFFCURVE",
"124 888 OFFCURVE",
"68 596 CURVE SMOOTH",
"-4 220 OFFCURVE",
"244 -12 OFFCURVE",
"550 -12 CURVE SMOOTH"
);
}
);
};
layerId = "2D8F7115-C311-411E-929D-56333CF7FFB2";
paths = (
{
closed = 1;
nodes = (
"658 -12 OFFCURVE",
"776 16 OFFCURVE",
"846 62 CURVE",
"770 366 LINE",
"714 326 OFFCURVE",
"645 300 OFFCURVE",
"575 300 CURVE SMOOTH",
"460 300 OFFCURVE",
"398 370 OFFCURVE",
"398 489 CURVE SMOOTH",
"398 638 OFFCURVE",
"495 794 OFFCURVE",
"640 794 CURVE SMOOTH",
"701 794 OFFCURVE",
"780 766 OFFCURVE",
"822 726 CURVE",
"998 988 LINE",
"942 1034 OFFCURVE",
"823 1096 OFFCURVE",
"658 1096 CURVE SMOOTH",
"306 1096 OFFCURVE",
"56 812 OFFCURVE",
"56 477 CURVE SMOOTH",
"56 159 OFFCURVE",
"280 -12 OFFCURVE",
"549 -12 CURVE SMOOTH"
);
}
);
userData = {
RMXScaler = {
height = 73.5;
weight = -50;
width = 73;
};
};
width = 978;
},
{
anchors = (
{
name = base;
position = "{717, 0}";
},
{
name = bottom;
position = "{487, 0}";
},
{
name = cedilla;
position = "{500, 0}";
},
{
name = top;
position = "{695, 1060}";
}
);
background = {
paths = (
{
closed = 1;
nodes = (
"647 -12 OFFCURVE",
"759 26 OFFCURVE",
"857 94 CURVE",
"815 254 LINE",
"757 204 OFFCURVE",
"639 148 OFFCURVE",
"535 148 CURVE SMOOTH",
"335 148 OFFCURVE",
"226 320 OFFCURVE",
"274 550 CURVE SMOOTH",
"319 766 OFFCURVE",
"475 916 OFFCURVE",
"663 916 CURVE SMOOTH",
"757 916 OFFCURVE",
"857 882 OFFCURVE",
"897 826 CURVE",
"985 972 LINE",
"923 1030 OFFCURVE",
"799 1076 OFFCURVE",
"673 1076 CURVE SMOOTH",
"393 1076 OFFCURVE",
"158 880 OFFCURVE",
"99 574 CURVE SMOOTH",
"33 232 OFFCURVE",
"229 -12 OFFCURVE",
"533 -12 CURVE SMOOTH"
);
}
);
};
layerId = "8CC1EFAB-F3CB-44D1-8974-978FC52DD9AB";
paths = (
{
closed = 1;
nodes = (
"647 -12 OFFCURVE",
"759 26 OFFCURVE",
"857 94 CURVE",
"815 254 LINE",
"757 204 OFFCURVE",
"639 148 OFFCURVE",
"535 148 CURVE SMOOTH",
"367 148 OFFCURVE",
"263 270 OFFCURVE",
"263 446 CURVE SMOOTH",
"263 684 OFFCURVE",
"428 916 OFFCURVE",
"663 916 CURVE SMOOTH",
"757 916 OFFCURVE",
"857 882 OFFCURVE",
"897 826 CURVE",
"985 972 LINE",
"923 1030 OFFCURVE",
"799 1076 OFFCURVE",
"673 1076 CURVE SMOOTH",
"333 1076 OFFCURVE",
"86 788 OFFCURVE",
"86 445 CURVE SMOOTH",
"86 172 OFFCURVE",
"269 -12 OFFCURVE",
"533 -12 CURVE SMOOTH"
);
}
);
width = 1000;
}
);
leftKerningGroup = LAT_O_LC;
leftMetricsKey = o;
rightKerningGroup = LAT_C_LC;
unicode = 0063;
userData = {
RMXScaler = {
source = C;
};
};
},
{
glyphname = d;
lastChange = "2023-05-23 02:53:39 +0000";
layers = (
{
anchors = (
{
name = bottom;
position = "{524, 0}";
},
{
name = center;
position = "{1126, 1262}";
},
{
name = leghookretroflex;
position = "{874, 0}";
},
{
name = top;
position = "{1176, 1540}";
},
{
name = topright;
position = "{1208, 1540}";
}
);
components = (
{
name = "_part.bowl-reverse";
}
);
layerId = "AB099EFE-E788-4EFC-8633-CF147CB782A6";
paths = (
{
closed = 1;
nodes = (
"972 40 LINE",
"894 84 OFFCURVE",
"911 152 OFFCURVE",
"928 236 CURVE SMOOTH",
"1188 1540 LINE",
"1127 1540 LINE",
"974 776 LINE",
"956 776 LINE",
"972 714 LINE",
"882 260 LINE",
"842 190 LINE",
"868 190 LINE",
"862 212 LINE",
"832 54 OFFCURVE",
"872 36 OFFCURVE",
"938 -16 CURVE"
);
}
);
width = 1176;
},
{
anchors = (
{
name = bottom;
position = "{528, 0}";
},
{
name = center;
position = "{1110, 1298}";
},
{
name = leghookretroflex;
position = "{854, 0}";
},
{
name = top;
position = "{1159, 1540}";
},
{
name = topright;
position = "{1315, 1540}";
}
);
components = (
{
name = "_part.bowl-reverse";
}
);
layerId = "2D8F7115-C311-411E-929D-56333CF7FFB2";
paths = (
{
closed = 1;
nodes = (
"1170 274 LINE",
"1114 296 OFFCURVE",
"1099 314 OFFCURVE",
"1112 378 CURVE SMOOTH",
"1344 1540 LINE",
"990 1540 LINE",
"878 974 LINE",
"820 974 LINE",
"902 868 LINE",
"772 254 LINE",
"710 132 LINE",
"832 132 LINE",
"778 176 LINE",
"794 86 OFFCURVE",
"880 30 OFFCURVE",
"1000 -12 CURVE"
);
}
);
width = 1295;
},
{
anchors = (
{
name = bottom;
position = "{481, 0}";
},
{
name = center;
position = "{1106, 1274}";
},
{
name = leghookretroflex;
position = "{852, 0}";
},
{
name = top;
position = "{1159, 1540}";
},
{
name = topright;
position = "{1366, 1540}";
}
);
components = (
{
alignment = -1;
name = "_part.bowl-reverse";
}
);
layerId = "8CC1EFAB-F3CB-44D1-8974-978FC52DD9AB";
paths = (
{
closed = 1;
nodes = (
"1040 138 LINE",
"978 170 OFFCURVE",
"978 214 OFFCURVE",
"994 296 CURVE SMOOTH",
"1242 1540 LINE",
"1067 1540 LINE",
"943 915 LINE",
"921 915 LINE",
"950 784 LINE",
"846 264 LINE",
"770 148 LINE",
"866 148 LINE",
"824 196 LINE",
"808 98 OFFCURVE",
"844 42 OFFCURVE",
"948 -16 CURVE"
);
}
);
width = 1222;
}
);
leftKerningGroup = LAT_O_LC;
leftMetricsKey = o;
rightKerningGroup = LAT_D_LC;
unicode = 0064;
},
{
color = 4;
glyphname = d.ss01;
lastChange = "2023-05-23 02:53:39 +0000";
layers = (
{
anchors = (
{
name = bottom;
position = "{516, 0}";
},
{
name = center;
position = "{1161, 1262}";
},
{
name = leghookretroflex;
position = "{889, 0}";
},
{
name = top;
position = "{1225, 1540}";
},
{
name = topright;
position = "{1254, 1540}";
}
);
components = (
{
name = "_part.bowl-reverse.ss01";
transform = "{1, 0, 0, 1, 1, 0}";
}
);
layerId = "AB099EFE-E788-4EFC-8633-CF147CB782A6";
paths = (
{
closed = 1;
nodes = (
"952 0 LINE",
"1256 1540 LINE",
"1196 1540 LINE",
"1047 792 LINE",
"1023 792 LINE",
"1046 740 LINE",
"954 292 LINE",
"911 228 LINE",
"936 228 LINE",
"891 0 LINE"
);
}
);
width = 1266;
},
{
anchors = (
{
name = bottom;
position = "{530, 0}";
},
{
name = center;
position = "{1198, 1298}";
},
{
name = leghookretroflex;
position = "{913, 0}";
},
{
name = top;
position = "{1219, 1540}";
},
{
name = topright;
position = "{1382, 1540}";
}
);
components = (
{
name = "_part.bowl-reverse.ss01";
}
);
layerId = "2D8F7115-C311-411E-929D-56333CF7FFB2";
paths = (
{
closed = 1;
nodes = (
"1080 0 LINE",
"1384 1540 LINE",
"1028 1540 LINE",
"916 962 LINE",
"882 962 LINE",
"908 840 LINE",
"776 184 LINE",
"744 124 LINE",
"782 124 LINE",
"758 0 LINE"
);
}
);
width = 1299;
},
{
anchors = (
{
name = bottom;
position = "{528, 0}";
},
{
name = center;
position = "{1180, 1276}";
},
{
name = leghookretroflex;
position = "{909, 0}";
},
{
name = top;
position = "{1233, 1540}";
},
{
name = topright;
position = "{1321, 1540}";
}
);
components = (
{
alignment = -1;
name = "_part.bowl-reverse.ss01";
}
);
layerId = "8CC1EFAB-F3CB-44D1-8974-978FC52DD9AB";
paths = (
{
closed = 1;
nodes = (
"1016 0 LINE",
"1322 1540 LINE",
"1147 1540 LINE",
"1016 886 LINE",
"992 886 LINE",
"1020 808 LINE",
"894 208 LINE",
"850 152 LINE",
"879 152 LINE",
"849 0 LINE"
);
}
);
width = 1253;
}
);
leftKerningGroup = LAT_O_LC;
leftMetricsKey = o;
rightKerningGroup = LAT_H_UC;
},
{
glyphname = eth;
lastChange = "2023-05-23 02:53:39 +0000";
layers = (
{
background = {
paths = (
{
closed = 1;
nodes = (
"764 -16 OFFCURVE",
"966 161 OFFCURVE",
"1034 504 CURVE SMOOTH",
"1123 952 OFFCURVE",
"958 1398 OFFCURVE",
"542 1560 CURVE",
"516 1508 LINE",
"723 1432 OFFCURVE",
"974 1201 OFFCURVE",
"1002 822 CURVE",
"1022 830 LINE",
"976 830 LINE",
"1016 786 LINE",
"966 940 OFFCURVE",
"806 1024 OFFCURVE",
"644 1024 CURVE SMOOTH",
"398 1024 OFFCURVE",
"182 838 OFFCURVE",
"128 562 CURVE SMOOTH",
"64 246 OFFCURVE",
"236 -16 OFFCURVE",
"524 -16 CURVE SMOOTH"
);
},
{
closed = 1;
nodes = (
"318 44 OFFCURVE",
"126 226 OFFCURVE",
"190 546 CURVE SMOOTH",
"238 778 OFFCURVE",
"398 968 OFFCURVE",
"652 968 CURVE SMOOTH",
"882 968 OFFCURVE",
"1025 810 OFFCURVE",
"972 518 CURVE SMOOTH",
"919 224 OFFCURVE",
"726 44 OFFCURVE",
"526 44 CURVE SMOOTH"
);
},
{
closed = 1;
nodes = (
"1100 1507 LINE",
"1082 1556 LINE",
"448 1222 LINE",
"464 1172 LINE"
);
}
);
};
layerId = "AB099EFE-E788-4EFC-8633-CF147CB782A6";
paths = (
{
closed = 1;
nodes = (
"878 -16 OFFCURVE",
"1057 356 OFFCURVE",
"1057 733 CURVE SMOOTH",
"1057 1102 OFFCURVE",
"886 1425 OFFCURVE",
"542 1560 CURVE",
"516 1508 LINE",
"723 1432 OFFCURVE",
"974 1201 OFFCURVE",
"1002 822 CURVE",
"1022 830 LINE",
"976 830 LINE",
"1016 786 LINE",
"966 940 OFFCURVE",
"807 1024 OFFCURVE",
"642 1024 CURVE SMOOTH",
"341 1024 OFFCURVE",
"115 747 OFFCURVE",
"115 436 CURVE SMOOTH",
"115 174 OFFCURVE",
"276 -16 OFFCURVE",
"527 -16 CURVE SMOOTH"
);
},
{
closed = 1;
nodes = (
"346 44 OFFCURVE",
"177 177 OFFCURVE",
"177 436 CURVE SMOOTH",
"177 713 OFFCURVE",
"369 968 OFFCURVE",
"656 968 CURVE SMOOTH",
"850 968 OFFCURVE",
"983 852 OFFCURVE",
"983 625 CURVE SMOOTH",
"983 356 OFFCURVE",
"797 44 OFFCURVE",
"524 44 CURVE SMOOTH"
);
},
{
closed = 1;
nodes = (
"1100 1507 LINE",
"1082 1556 LINE",
"448 1222 LINE",
"464 1172 LINE"
);
}
);
width = 1166;
},
{
background = {
paths = (
{
closed = 1;
nodes = (
"836 -16 OFFCURVE",
"1079 255 OFFCURVE",
"1142 638 CURVE SMOOTH",
"1212 1058 OFFCURVE",
"1040 1444 OFFCURVE",
"576 1692 CURVE",
"400 1430 LINE",
"668 1318 OFFCURVE",
"832 1098 OFFCURVE",
"874 866 CURVE",
"928 902 LINE",
"838 902 LINE",
"886 860 LINE",
"832 978 OFFCURVE",
"708 1028 OFFCURVE",
"590 1028 CURVE SMOOTH",
"354 1028 OFFCURVE",
"109 828 OFFCURVE",
"58 546 CURVE SMOOTH",
"6 256 OFFCURVE",
"179 -16 OFFCURVE",
"508 -16 CURVE SMOOTH"
);
},
{
closed = 1;
nodes = (
"435 294 OFFCURVE",
"381 379 OFFCURVE",
"400 510 CURVE SMOOTH",
"421 657 OFFCURVE",
"517 760 OFFCURVE",
"635 760 CURVE SMOOTH",
"748 760 OFFCURVE",
"787 664 OFFCURVE",
"774 552 CURVE SMOOTH",
"758 415 OFFCURVE",
"672 294 OFFCURVE",
"543 294 CURVE SMOOTH"
);
},
{
closed = 1;
nodes = (
"1196 1512 LINE",
"1110 1692 LINE",
"356 1212 LINE",
"422 1080 LINE"
);
}
);
};
layerId = "2D8F7115-C311-411E-929D-56333CF7FFB2";
paths = (
{
closed = 1;
nodes = (
"908 -16 OFFCURVE",
"1157 387 OFFCURVE",
"1157 809 CURVE SMOOTH",
"1157 1174 OFFCURVE",
"970 1480 OFFCURVE",
"576 1692 CURVE",
"400 1430 LINE",
"668 1318 OFFCURVE",
"832 1098 OFFCURVE",
"874 866 CURVE",
"928 902 LINE",
"838 902 LINE",
"886 860 LINE",
"832 978 OFFCURVE",
"709 1028 OFFCURVE",
"588 1028 CURVE SMOOTH",
"301 1028 OFFCURVE",
"49 748 OFFCURVE",
"49 445 CURVE SMOOTH",
"49 196 OFFCURVE",
"218 -16 OFFCURVE",
"508 -16 CURVE SMOOTH"
);
},
{
closed = 1;
nodes = (
"449 294 OFFCURVE",
"396 357 OFFCURVE",
"396 465 CURVE SMOOTH",
"396 608 OFFCURVE",
"490 760 OFFCURVE",
"635 760 CURVE SMOOTH",
"734 760 OFFCURVE",
"776 687 OFFCURVE",
"776 588 CURVE SMOOTH",
"776 443 OFFCURVE",
"685 294 OFFCURVE",
"542 294 CURVE SMOOTH"
);
},
{
closed = 1;
nodes = (
"1196 1512 LINE",
"1110 1692 LINE",
"356 1212 LINE",
"422 1080 LINE"
);
}
);
width = 1196;
},
{
background = {
paths = (
{
closed = 1;
nodes = (
"824 -16 OFFCURVE",
"1018 203 OFFCURVE",
"1090 546 CURVE SMOOTH",
"1188 1012 OFFCURVE",
"1001 1414 OFFCURVE",
"558 1614 CURVE",
"476 1474 LINE",
"702 1374 OFFCURVE",
"932 1188 OFFCURVE",
"966 878 CURVE",
"994 892 LINE",
"944 892 LINE",
"974 858 LINE",
"941 957 OFFCURVE",
"785 1030 OFFCURVE",
"625 1030 CURVE SMOOTH",
"355 1030 OFFCURVE",
"158 821 OFFCURVE",
"103 566 CURVE SMOOTH",
"32 236 OFFCURVE",
"232 -16 OFFCURVE",
"538 -16 CURVE SMOOTH"
);
},
{
closed = 1;
nodes = (
"370 142 OFFCURVE",
"228 293 OFFCURVE",
"264 518 CURVE SMOOTH",
"294 707 OFFCURVE",
"437 878 OFFCURVE",
"646 878 CURVE SMOOTH",
"840 878 OFFCURVE",
"960 732 OFFCURVE",
"920 518 CURVE SMOOTH",
"885 331 OFFCURVE",
"737 151 OFFCURVE",
"546 146 CURVE SMOOTH"
);
},
{
closed = 1;
nodes = (
"1160 1518 LINE",
"1118 1616 LINE",
"422 1238 LINE",
"458 1138 LINE"
);
}
);
};
layerId = "8CC1EFAB-F3CB-44D1-8974-978FC52DD9AB";
paths = (
{
closed = 1;
nodes = (
"911 -16 OFFCURVE",
"1115 373 OFFCURVE",
"1115 770 CURVE SMOOTH",
"1115 1154 OFFCURVE",
"924 1447 OFFCURVE",
"558 1614 CURVE",
"476 1474 LINE",
"702 1374 OFFCURVE",
"932 1188 OFFCURVE",
"966 878 CURVE",
"994 892 LINE",
"944 892 LINE",
"974 858 LINE",
"942 956 OFFCURVE",
"785 1030 OFFCURVE",
"627 1030 CURVE SMOOTH",
"319 1030 OFFCURVE",
"89 747 OFFCURVE",
"89 443 CURVE SMOOTH",
"89 170 OFFCURVE",
"274 -16 OFFCURVE",
"534 -16 CURVE SMOOTH"
);
},
{
closed = 1;
nodes = (
"385 146 OFFCURVE",
"258 263 OFFCURVE",
"258 454 CURVE SMOOTH",
"258 672 OFFCURVE",
"422 878 OFFCURVE",
"649 878 CURVE SMOOTH",
"815 878 OFFCURVE",
"928 767 OFFCURVE",
"928 594 CURVE SMOOTH",
"928 380 OFFCURVE",
"755 146 OFFCURVE",
"538 146 CURVE SMOOTH"
);
},
{
closed = 1;
nodes = (
"1160 1518 LINE",
"1118 1616 LINE",
"422 1238 LINE",
"458 1138 LINE"
);
}
);
width = 1192;
}
);
leftKerningGroup = LAT_ETH_LC;
rightKerningGroup = LAT_ETH_LC;
unicode = 00F0;
},
{
glyphname = e;
lastChange = "2023-08-23 07:29:56 +0000";
layers = (
{
anchors = (
{
name = bottom;
position = "{453, 0}";
},
{
name = cedilla;
position = "{440, 0}";
},
{
name = ogonek;
position = "{812, 102}";
},
{
name = top;
position = "{640, 1048}";
}
);
background = {
paths = (
{
closed = 1;
nodes = (
"622 -16 OFFCURVE",
"736 42 OFFCURVE",
"812 102 CURVE",
"789 160 LINE",
"701 88 OFFCURVE",
"604 40 OFFCURVE",
"480 40 CURVE SMOOTH",
"228 40 OFFCURVE",
"121 248 OFFCURVE",
"173 524 CURVE SMOOTH",
"227 818 OFFCURVE",
"392 1008 OFFCURVE",
"620 1008 CURVE SMOOTH",
"830 1008 OFFCURVE",
"948 826 OFFCURVE",
"898 562 CURVE",
"168 562 LINE",
"156 506 LINE",
"948 506 LINE",
"950 512 OFFCURVE",
"954 534 OFFCURVE",
"956 544 CURVE SMOOTH",
"1016 848 OFFCURVE",
"874 1064 OFFCURVE",
"622 1064 CURVE SMOOTH",
"356 1064 OFFCURVE",
"168 854 OFFCURVE",
"112 522 CURVE SMOOTH",
"58 196 OFFCURVE",
"208 -16 OFFCURVE",
"476 -16 CURVE SMOOTH"
);
}
);
};
layerId = "AB099EFE-E788-4EFC-8633-CF147CB782A6";
paths = (
{
closed = 1;
nodes = (
"622 -16 OFFCURVE",
"736 42 OFFCURVE",
"812 102 CURVE",
"789 160 LINE",
"701 88 OFFCURVE",
"604 40 OFFCURVE",
"480 40 CURVE SMOOTH",
"270 40 OFFCURVE",
"163 180 OFFCURVE",
"163 406 CURVE SMOOTH",
"163 691 OFFCURVE",
"336 1008 OFFCURVE",
"618 1008 CURVE SMOOTH",
"797 1008 OFFCURVE",
"909 881 OFFCURVE",
"909 676 CURVE SMOOTH",
"909 642 OFFCURVE",
"906 603 OFFCURVE",
"898 562 CURVE",
"168 562 LINE",
"156 506 LINE",
"948 506 LINE",
"958 539 OFFCURVE",
"970 620 OFFCURVE",
"970 687 CURVE SMOOTH",
"970 898 OFFCURVE",
"842 1064 OFFCURVE",
"618 1064 CURVE SMOOTH",
"301 1064 OFFCURVE",
"104 730 OFFCURVE",
"104 408 CURVE SMOOTH",
"104 135 OFFCURVE",
"245 -16 OFFCURVE",
"478 -16 CURVE SMOOTH"
);
}
);
width = 1060;
},
{
anchors = (
{
name = bottom;
position = "{514, 0}";
},
{
name = cedilla;
position = "{522, 0}";
},
{
name = ogonek;
position = "{916, 58}";
},
{
name = top;
position = "{672, 1080}";
}
);
background = {
paths = (
{
closed = 1;
nodes = (
"682 -16 OFFCURVE",
"814 6 OFFCURVE",
"916 58 CURVE",
"804 324 LINE",
"764 296 OFFCURVE",
"664 266 OFFCURVE",
"586 266 CURVE SMOOTH",
"450 266 OFFCURVE",
"352 356 OFFCURVE",
"352 502 CURVE SMOOTH",
"352 648 OFFCURVE",
"453 826 OFFCURVE",
"629 826 CURVE SMOOTH",
"751 826 OFFCURVE",
"792 734 OFFCURVE",
"770 638 CURVE",
"348 638 LINE",
"306 426 LINE",
"1032 426 LINE",
"1050 460 OFFCURVE",
"1070 542 OFFCURVE",
"1078 586 CURVE SMOOTH",
"1130 894 OFFCURVE",
"912 1096 OFFCURVE",
"638 1096 CURVE SMOOTH",
"374 1096 OFFCURVE",
"136 908 OFFCURVE",
"72 614 CURVE SMOOTH",
"0 290 OFFCURVE",
"178 -16 OFFCURVE",
"574 -16 CURVE SMOOTH"
);
}
);
};
guideLines = (
{
angle = -67.5;
position = "{444, 36}";
}
);
layerId = "2D8F7115-C311-411E-929D-56333CF7FFB2";
paths = (
{
closed = 1;
nodes = (
"682 -16 OFFCURVE",
"814 6 OFFCURVE",
"916 58 CURVE",
"804 324 LINE",
"764 296 OFFCURVE",
"664 266 OFFCURVE",
"586 266 CURVE SMOOTH",
"450 266 OFFCURVE",
"352 356 OFFCURVE",
"352 502 CURVE SMOOTH",
"352 648 OFFCURVE",
"453 826 OFFCURVE",
"629 826 CURVE SMOOTH",
"730 826 OFFCURVE",
"776 763 OFFCURVE",
"776 686 CURVE SMOOTH",
"776 671 OFFCURVE",
"774 654 OFFCURVE",
"770 638 CURVE",
"348 638 LINE",
"306 426 LINE",
"1032 426 LINE",
"1060 478 OFFCURVE",
"1086 602 OFFCURVE",
"1086 675 CURVE SMOOTH",
"1086 932 OFFCURVE",
"885 1096 OFFCURVE",
"638 1096 CURVE SMOOTH",
"307 1096 OFFCURVE",
"56 808 OFFCURVE",
"56 475 CURVE SMOOTH",
"56 208 OFFCURVE",
"236 -16 OFFCURVE",
"574 -16 CURVE SMOOTH"
);
}
);
width = 1122;
},
{
anchors = (
{
name = bottom;
position = "{475, 0}";
},
{
name = cedilla;
position = "{467, 0}";
},
{
name = ogonek;
position = "{858, 92}";
},
{
name = top;
position = "{662, 1060}";
}
);
background = {
paths = (
{
closed = 1;
nodes = (
"650 -16 OFFCURVE",
"766 30 OFFCURVE",
"858 92 CURVE",
"802 242 LINE",
"728 182 OFFCURVE",
"631 140 OFFCURVE",
"528 140 CURVE SMOOTH",
"323 140 OFFCURVE",
"216 306 OFFCURVE",
"254 536 CURVE SMOOTH",
"290 756 OFFCURVE",
"440 920 OFFCURVE",
"624 920 CURVE SMOOTH",
"800 920 OFFCURVE",
"897 770 OFFCURVE",
"857 602 CURVE",
"228 602 LINE",
"204 462 LINE",
"985 462 LINE",
"993 480 OFFCURVE",
"1005 522 OFFCURVE",
"1013 564 CURVE SMOOTH",
"1062 826 OFFCURVE",
"920 1076 OFFCURVE",
"630 1076 CURVE SMOOTH",
"352 1076 OFFCURVE",
"146 845 OFFCURVE",
"96 558 CURVE SMOOTH",
"38 224 OFFCURVE",
"224 -16 OFFCURVE",
"520 -16 CURVE SMOOTH"
);
}
);
};
layerId = "8CC1EFAB-F3CB-44D1-8974-978FC52DD9AB";
paths = (
{
closed = 1;
nodes = (
"650 -16 OFFCURVE",
"766 30 OFFCURVE",
"858 92 CURVE",
"802 242 LINE",
"728 182 OFFCURVE",
"631 140 OFFCURVE",
"528 140 CURVE SMOOTH",
"350 140 OFFCURVE",
"246 265 OFFCURVE",
"246 447 CURVE SMOOTH",
"246 681 OFFCURVE",
"399 920 OFFCURVE",
"624 920 CURVE SMOOTH",
"773 920 OFFCURVE",
"866 812 OFFCURVE",
"866 676 CURVE SMOOTH",
"866 652 OFFCURVE",
"863 627 OFFCURVE",
"857 602 CURVE",
"228 602 LINE",
"204 462 LINE",
"985 462 LINE",
"1006 510 OFFCURVE",
"1023 601 OFFCURVE",
"1023 665 CURVE SMOOTH",
"1023 887 OFFCURVE",
"882 1076 OFFCURVE",
"630 1076 CURVE SMOOTH",
"313 1076 OFFCURVE",
"85 770 OFFCURVE",
"85 439 CURVE SMOOTH",
"85 169 OFFCURVE",
"260 -16 OFFCURVE",
"520 -16 CURVE SMOOTH"
);
}
);
width = 1090;
},
{
anchors = (
{
name = bottom;
position = "{491, 0}";
},
{
name = cedilla;
position = "{489, 0}";
},
{
name = ogonek;
position = "{883, 72}";
},
{
name = top;
position = "{664, 1073}";
}
);
associatedMasterId = "8CC1EFAB-F3CB-44D1-8974-978FC52DD9AB";
background = {
paths = (
{
closed = 1;
nodes = (
"664 -16 OFFCURVE",
"786 16 OFFCURVE",
"883 72 CURVE",
"795 289 LINE",
"741 244 OFFCURVE",
"645 208 OFFCURVE",
"553 208 CURVE SMOOTH",
"385 208 OFFCURVE",
"291 336 OFFCURVE",
"307 514 CURVE SMOOTH",
"324 692 OFFCURVE",
"446 859 OFFCURVE",
"616 859 CURVE SMOOTH",
"745 859 OFFCURVE",
"836 759 OFFCURVE",
"807 630 CURVE",
"297 630 LINE",
"262 446 LINE",
"1012 446 LINE",
"1024 475 OFFCURVE",
"1038 524 OFFCURVE",
"1049 573 CURVE SMOOTH",
"1106 856 OFFCURVE",
"917 1087 OFFCURVE",
"631 1087 CURVE SMOOTH",
"369 1087 OFFCURVE",
"141 887 OFFCURVE",
"82 588 CURVE SMOOTH",
"14 248 OFFCURVE",
"201 -16 OFFCURVE",
"545 -16 CURVE SMOOTH"
);
}
);
};
layerId = "A3DD4A66-1113-4E00-A6EA-5DAB463A1B6D";
name = "{140}";
paths = (
{
closed = 1;
nodes = (
"664 -16 OFFCURVE",
"786 16 OFFCURVE",
"883 72 CURVE",
"795 289 LINE",
"741 244 OFFCURVE",
"645 208 OFFCURVE",
"553 208 CURVE SMOOTH",
"397 208 OFFCURVE",
"305 318 OFFCURVE",
"305 476 CURVE SMOOTH",
"305 666 OFFCURVE",
"434 859 OFFCURVE",
"616 859 CURVE SMOOTH",
"730 859 OFFCURVE",
"812 783 OFFCURVE",
"812 674 CURVE SMOOTH",
"812 662 OFFCURVE",
"811 646 OFFCURVE",
"807 630 CURVE",
"297 630 LINE",
"262 446 LINE",
"1012 446 LINE",
"1037 507 OFFCURVE",
"1059 598 OFFCURVE",
"1059 678 CURVE SMOOTH",
"1059 906 OFFCURVE",
"883 1087 OFFCURVE",
"631 1087 CURVE SMOOTH",
"305 1087 OFFCURVE",
"68 783 OFFCURVE",
"68 460 CURVE SMOOTH",
"68 178 OFFCURVE",
"248 -16 OFFCURVE",
"544 -16 CURVE SMOOTH"
);
}
);
width = 1108;
}
);
leftKerningGroup = LAT_O_LC;
leftMetricsKey = o;
rightKerningGroup = LAT_E_LC;
unicode = 0065;
},
{
glyphname = f;
lastChange = "2023-05-23 04:14:48 +0000";
layers = (
{
anchors = (
{
name = bottom;
position = "{190, 0}";
},
{
name = top;
position = "{676, 1540}";
}
);
components = (
{
name = "_part.f-stem";
transform = "{1, 0, 0, 1, 1, 0}";
}
);
layerId = "AB099EFE-E788-4EFC-8633-CF147CB782A6";
paths = (
{
closed = 1;
nodes = (
"671 992 LINE",
"682 1048 LINE",
"202 1048 LINE",
"191 992 LINE"
);
}
);
width = 676;
},
{
anchors = (
{
name = bottom;
position = "{307, 0}";
},
{
name = top;
position = "{743, 1540}";
}
);
components = (
{
name = "_part.f-stem";
}
);
layerId = "2D8F7115-C311-411E-929D-56333CF7FFB2";
paths = (
{
closed = 1;
nodes = (
"862 780 LINE",
"922 1080 LINE",
"142 1080 LINE",
"82 780 LINE"
);
}
);
width = 860;
},
{
anchors = (
{
name = bottom;
position = "{279, 0}";
},
{
name = top;
position = "{745, 1540}";
}
);
associatedMasterId = "AB099EFE-E788-4EFC-8633-CF147CB782A6";
components = (
{
name = "_part.f-stem";
transform = "{1, 0, 0, 1, -8, 0}";
}
);
layerId = "516F4623-5CD8-441C-8966-F6D84AE729AE";
name = "{140}";
paths = (
{
closed = 1;
nodes = (
"818 851 LINE",
"862 1071 LINE",
"160 1071 LINE",
"116 851 LINE"
);
}
);
width = 801;
},
{
anchors = (
{
name = bottom;
position = "{238, 0}";
},
{
name = top;
position = "{729, 1540}";
}
);
components = (
{
alignment = -1;
name = "_part.f-stem";
}
);
layerId = "8CC1EFAB-F3CB-44D1-8974-978FC52DD9AB";
paths = (
{
closed = 1;
nodes = (
"751 904 LINE",
"782 1060 LINE",
"172 1060 LINE",
"141 904 LINE"
);
}
);
width = 744;
}
);
leftKerningGroup = LAT_F_LC;
rightKerningGroup = LAT_F_LC;
unicode = 0066;
},
{
color = 4;
glyphname = f.ss01;
lastChange = "2023-05-23 04:14:49 +0000";
layers = (
{
anchors = (
{
name = bottom;
position = "{195, 0}";
},
{
name = top;
position = "{682, 1540}";
}
);
components = (
{
name = "_part.f-stem.ss01";
transform = "{1, 0, 0, 1, -1, 0}";
}
);
layerId = "AB099EFE-E788-4EFC-8633-CF147CB782A6";
paths = (
{
closed = 1;
nodes = (
"670 993 LINE",
"679 1048 LINE",
"199 1048 LINE",
"188 993 LINE"
);
}
);
width = 672;
},
{
anchors = (
{
name = bottom;
position = "{313, 0}";
},
{
name = top;
position = "{756, 1540}";
}
);
components = (
{
name = "_part.f-stem.ss01";
}
);
layerId = "2D8F7115-C311-411E-929D-56333CF7FFB2";
paths = (
{
closed = 1;
nodes = (
"862 780 LINE",
"922 1080 LINE",
"141 1080 LINE",
"81 780 LINE"
);
}
);
width = 865;
},
{
anchors = (
{
name = bottom;
position = "{274, 0}";
},
{
name = top;
position = "{745, 1540}";
}
);
associatedMasterId = "AB099EFE-E788-4EFC-8633-CF147CB782A6";
components = (
{
name = "_part.f-stem.ss01";
transform = "{1, 0, 0, 1, -12, 0}";
}
);
layerId = "516F4623-5CD8-441C-8966-F6D84AE729AE";
name = "{140}";
paths = (
{
closed = 1;
nodes = (
"813 851 LINE",
"858 1071 LINE",
"156 1071 LINE",
"109 851 LINE"
);
}
);
width = 805;
},
{
anchors = (
{
name = bottom;
position = "{240, 0}";
},
{
name = top;
position = "{731, 1540}";
}
);
components = (
{
name = "_part.f-stem.ss01";
}
);
layerId = "8CC1EFAB-F3CB-44D1-8974-978FC52DD9AB";
paths = (
{
closed = 1;
nodes = (
"751 904 LINE",
"782 1060 LINE",
"172 1060 LINE",
"141 904 LINE"
);
}
);
width = 754;
}
);
leftKerningGroup = LAT_FSS01_LC;
rightKerningGroup = LAT_F_LC;
rightMetricsKey = f;
},
{
glyphname = g;
lastChange = "2023-05-23 02:53:39 +0000";
layers = (
{
anchors = (
{
name = bottom;
position = "{387, -420}";
},
{
name = top;
position = "{674, 1048}";
}
);
background = {
paths = (
{
closed = 1;
nodes = (
"667 -434 OFFCURVE",
"829 -264 OFFCURVE",
"882 4 CURVE SMOOTH",
"1090 1048 LINE",
"1030 1048 LINE",
"979 790 LINE",
"962 790 LINE",
"976 740 LINE",
"874 260 LINE",
"832 184 LINE",
"858 184 LINE",
"822 8 LINE SMOOTH",
"775 -224 OFFCURVE",
"643 -378 OFFCURVE",
"419 -378 CURVE SMOOTH",
"279 -378 OFFCURVE",
"135 -318 OFFCURVE",
"57 -238 CURVE",
"33 -300 LINE",
"111 -370 OFFCURVE",
"261 -434 OFFCURVE",
"419 -434 CURVE SMOOTH"
);
},
{
closed = 1;
nodes = (
"729 -16 OFFCURVE",
"915 172 OFFCURVE",
"973 479 CURVE SMOOTH",
"1038 820 OFFCURVE",
"906 1064 OFFCURVE",
"627 1064 CURVE SMOOTH",
"351 1064 OFFCURVE",
"175 827 OFFCURVE",
"125 571 CURVE SMOOTH",
"65 266 OFFCURVE",
"186 -16 OFFCURVE",
"485 -16 CURVE SMOOTH"
);
},
{
closed = 1;
nodes = (
"243 40 OFFCURVE",
"129 272 OFFCURVE",
"183 552 CURVE SMOOTH",
"234 816 OFFCURVE",
"407 1008 OFFCURVE",
"627 1008 CURVE SMOOTH",
"840 1008 OFFCURVE",
"982 822 OFFCURVE",
"924 500 CURVE SMOOTH",
"876 232 OFFCURVE",
"704 40 OFFCURVE",
"483 40 CURVE SMOOTH"
);
}
);
};
guideLines = (
{
angle = 67.5;
position = "{71, -8}";
}
);
layerId = "AB099EFE-E788-4EFC-8633-CF147CB782A6";
paths = (
{
closed = 1;
nodes = (
"667 -434 OFFCURVE",
"829 -264 OFFCURVE",
"882 4 CURVE SMOOTH",
"1090 1048 LINE",
"1030 1048 LINE",
"979 790 LINE",
"962 790 LINE",
"976 740 LINE",
"874 260 LINE",
"832 184 LINE",
"858 184 LINE",
"822 8 LINE SMOOTH",
"775 -224 OFFCURVE",
"643 -378 OFFCURVE",
"419 -378 CURVE SMOOTH",
"279 -378 OFFCURVE",
"135 -318 OFFCURVE",
"57 -238 CURVE",
"33 -300 LINE",
"111 -370 OFFCURVE",
"262 -434 OFFCURVE",
"416 -434 CURVE SMOOTH"
);
},
{
closed = 1;
nodes = (
"802 -16 OFFCURVE",
"989 310 OFFCURVE",
"989 631 CURVE SMOOTH",
"989 898 OFFCURVE",
"859 1064 OFFCURVE",
"631 1064 CURVE SMOOTH",
"319 1064 OFFCURVE",
"110 753 OFFCURVE",
"110 429 CURVE SMOOTH",
"110 178 OFFCURVE",
"236 -16 OFFCURVE",
"482 -16 CURVE SMOOTH"
);
},
{
closed = 1;
nodes = (
"282 40 OFFCURVE",
"170 200 OFFCURVE",
"170 423 CURVE SMOOTH",
"170 708 OFFCURVE",
"352 1008 OFFCURVE",
"627 1008 CURVE SMOOTH",
"808 1008 OFFCURVE",
"937 877 OFFCURVE",
"937 632 CURVE SMOOTH",
"937 348 OFFCURVE",
"763 40 OFFCURVE",
"483 40 CURVE SMOOTH"
);
}
);
width = 1156;
},
{
anchors = (
{
name = bottom;
position = "{428, -420}";
},
{
name = top;
position = "{709, 1080}";
}
);
background = {
paths = (
{
closed = 1;
nodes = (
"715 -438 OFFCURVE",
"980 -296 OFFCURVE",
"1050 54 CURVE SMOOTH",
"1256 1080 LINE",
"930 1080 LINE",
"904 946 LINE",
"832 946 LINE",
"894 852 LINE",
"766 222 LINE",
"706 132 LINE",
"736 132 LINE",
"724 66 LINE SMOOTH",
"700 -66 OFFCURVE",
"554 -144 OFFCURVE",
"402 -144 CURVE SMOOTH",
"280 -144 OFFCURVE",
"154 -92 OFFCURVE",
"86 -34 CURVE",
"-34 -320 LINE",
"46 -374 OFFCURVE",
"202 -438 OFFCURVE",
"408 -438 CURVE SMOOTH"
);
},
{
closed = 1;
nodes = (
"689 30 OFFCURVE",
"920 240 OFFCURVE",
"974 524 CURVE SMOOTH",
"1031 821 OFFCURVE",
"872 1096 OFFCURVE",
"590 1096 CURVE SMOOTH",
"388 1096 OFFCURVE",
"126 956 OFFCURVE",
"64 596 CURVE SMOOTH",
"4 248 OFFCURVE",
"188 30 OFFCURVE",
"441 30 CURVE SMOOTH"
);
},
{
closed = 1;
nodes = (
"450 306 OFFCURVE",
"370 398 OFFCURVE",
"400 566 CURVE SMOOTH",
"426 710 OFFCURVE",
"512 808 OFFCURVE",
"646 808 CURVE SMOOTH",
"792 808 OFFCURVE",
"850 692 OFFCURVE",
"822 546 CURVE SMOOTH",
"799 428 OFFCURVE",
"724 306 OFFCURVE",
"576 306 CURVE SMOOTH"
);
}
);
};
guideLines = (
{
angle = 67.5;
position = "{38, -16}";
}
);
layerId = "2D8F7115-C311-411E-929D-56333CF7FFB2";
paths = (
{
closed = 1;
nodes = (
"715 -438 OFFCURVE",
"980 -296 OFFCURVE",
"1050 54 CURVE SMOOTH",
"1256 1080 LINE",
"930 1080 LINE",
"904 946 LINE",
"832 946 LINE",
"894 852 LINE",
"766 222 LINE",
"706 132 LINE",
"736 132 LINE",
"724 66 LINE SMOOTH",
"700 -66 OFFCURVE",
"554 -144 OFFCURVE",
"402 -144 CURVE SMOOTH",
"280 -144 OFFCURVE",
"154 -92 OFFCURVE",
"86 -34 CURVE",
"-34 -320 LINE",
"46 -374 OFFCURVE",
"202 -438 OFFCURVE",
"408 -438 CURVE SMOOTH"
);
},
{
closed = 1;
nodes = (
"741 30 OFFCURVE",
"986 325 OFFCURVE",
"986 643 CURVE SMOOTH",
"986 891 OFFCURVE",
"834 1096 OFFCURVE",
"590 1096 CURVE SMOOTH",
"269 1096 OFFCURVE",
"53 801 OFFCURVE",
"53 468 CURVE SMOOTH",
"53 195 OFFCURVE",
"221 30 OFFCURVE",
"441 30 CURVE SMOOTH"
);
},
{
closed = 1;
nodes = (
"468 306 OFFCURVE",
"394 374 OFFCURVE",
"394 499 CURVE SMOOTH",
"394 661 OFFCURVE",
"487 808 OFFCURVE",
"646 808 CURVE SMOOTH",
"768 808 OFFCURVE",
"829 727 OFFCURVE",
"829 614 CURVE SMOOTH",
"829 454 OFFCURVE",
"731 306 OFFCURVE",
"576 306 CURVE SMOOTH"
);
}
);
width = 1270;
},
{
anchors = (
{
name = bottom;
position = "{407, -420}";
},
{
name = top;
position = "{691, 1060}";
}
);
background = {
paths = (
{
closed = 1;
nodes = (
"699 -438 OFFCURVE",
"896 -266 OFFCURVE",
"953 16 CURVE SMOOTH",
"1165 1060 LINE",
"998 1060 LINE",
"962 886 LINE",
"910 886 LINE",
"941 782 LINE",
"833 250 LINE",
"771 128 LINE",
"805 128 LINE",
"783 28 LINE SMOOTH",
"741 -161 OFFCURVE",
"615 -282 OFFCURVE",
"441 -282 CURVE SMOOTH",
"301 -282 OFFCURVE",
"145 -214 OFFCURVE",
"77 -146 CURVE",
"11 -304 LINE",
"87 -374 OFFCURVE",
"267 -438 OFFCURVE",
"435 -438 CURVE SMOOTH"
);
},
{
closed = 1;
nodes = (
"737 -16 OFFCURVE",
"932 218 OFFCURVE",
"985 521 CURVE SMOOTH",
"1047 876 OFFCURVE",
"887 1076 OFFCURVE",
"635 1076 CURVE SMOOTH",
"382 1076 OFFCURVE",
"157 872 OFFCURVE",
"99 563 CURVE SMOOTH",
"35 222 OFFCURVE",
"222 -16 OFFCURVE",
"479 -16 CURVE SMOOTH"
);
},
{
closed = 1;
nodes = (
"316 142 OFFCURVE",
"232 317 OFFCURVE",
"273 538 CURVE SMOOTH",
"310 737 OFFCURVE",
"441 916 OFFCURVE",
"643 916 CURVE SMOOTH",
"821 916 OFFCURVE",
"934 776 OFFCURVE",
"884 523 CURVE SMOOTH",
"843 314 OFFCURVE",
"717 142 OFFCURVE",
"515 142 CURVE SMOOTH"
);
}
);
};
layerId = "8CC1EFAB-F3CB-44D1-8974-978FC52DD9AB";
paths = (
{
closed = 1;
nodes = (
"700 -438 OFFCURVE",
"896 -266 OFFCURVE",
"953 16 CURVE SMOOTH",
"1165 1060 LINE",
"998 1060 LINE",
"962 886 LINE",
"910 886 LINE",
"941 782 LINE",
"833 250 LINE",
"771 128 LINE",
"805 128 LINE",
"783 28 LINE SMOOTH",
"741 -161 OFFCURVE",
"617 -282 OFFCURVE",
"438 -282 CURVE SMOOTH",
"301 -282 OFFCURVE",
"142 -212 OFFCURVE",
"77 -146 CURVE",
"11 -304 LINE",
"87 -374 OFFCURVE",
"268 -438 OFFCURVE",
"432 -438 CURVE SMOOTH"
);
},
{
closed = 1;
nodes = (
"791 -16 OFFCURVE",
"998 331 OFFCURVE",
"998 658 CURVE SMOOTH",
"998 934 OFFCURVE",
"850 1076 OFFCURVE",
"635 1076 CURVE SMOOTH",
"316 1076 OFFCURVE",
"86 761 OFFCURVE",
"86 438 CURVE SMOOTH",
"86 161 OFFCURVE",
"256 -16 OFFCURVE",
"479 -16 CURVE SMOOTH"
);
},
{
closed = 1;
nodes = (
"349 142 OFFCURVE",
"263 263 OFFCURVE",
"263 440 CURVE SMOOTH",
"263 675 OFFCURVE",
"414 916 OFFCURVE",
"646 916 CURVE SMOOTH",
"792 916 OFFCURVE",
"896 821 OFFCURVE",
"896 625 CURVE SMOOTH",
"896 391 OFFCURVE",
"748 142 OFFCURVE",
"513 142 CURVE SMOOTH"
);
}
);
width = 1196;
}
);
leftKerningGroup = LAT_G_LC;
rightKerningGroup = LAT_G_LC;
unicode = 0067;
},
{
color = 4;
glyphname = g.ss01;
lastChange = "2023-05-23 02:53:39 +0000";
layers = (
{
anchors = (
{
name = bottom;
position = "{402, -420}";
},
{
name = top;
position = "{691, 1048}";
}
);
components = (
{
name = "_part.bowl-reverse.ss01";
transform = "{1, 0, 0, 1, 4, 0}";
}
);
layerId = "AB099EFE-E788-4EFC-8633-CF147CB782A6";
paths = (
{
closed = 1;
nodes = (
"642 -434 OFFCURVE",
"889 -326 OFFCURVE",
"955 4 CURVE SMOOTH",
"1163 1048 LINE",
"1102 1048 LINE",
"1051 794 LINE",
"1037 794 LINE",
"1047 740 LINE",
"961 316 LINE",
"924 234 LINE",
"940 234 LINE",
"895 8 LINE SMOOTH",
"836 -290 OFFCURVE",
"612 -378 OFFCURVE",
"427 -378 CURVE SMOOTH",
"287 -378 OFFCURVE",
"153 -328 OFFCURVE",
"83 -238 CURVE",
"55 -300 LINE",
"124 -378 OFFCURVE",
"278 -434 OFFCURVE",
"430 -434 CURVE SMOOTH"
);
}
);
width = 1229;
},
{
anchors = (
{
name = bottom;
position = "{432, -420}";
},
{
name = top;
position = "{711, 1080}";
}
);
components = (
{
name = "_part.bowl-reverse.ss01";
transform = "{1, 0, 0, 0.95973, 0, 45}";
}
);
layerId = "2D8F7115-C311-411E-929D-56333CF7FFB2";
paths = (
{
closed = 1;
nodes = (
"735 -438 OFFCURVE",
"1011 -274 OFFCURVE",
"1077 54 CURVE SMOOTH",
"1285 1080 LINE",
"959 1080 LINE",
"931 948 LINE",
"861 948 LINE",
"905 860 LINE",
"775 230 LINE",
"735 142 LINE",
"760 142 LINE",
"744 66 LINE SMOOTH",
"715 -73 OFFCURVE",
"567 -144 OFFCURVE",
"417 -144 CURVE SMOOTH",
"289 -144 OFFCURVE",
"165 -92 OFFCURVE",
"97 -34 CURVE",
"-23 -320 LINE",
"55 -374 OFFCURVE",
"211 -438 OFFCURVE",
"417 -438 CURVE SMOOTH"
);
}
);
width = 1299;
},
{
anchors = (
{
name = bottom;
position = "{425, -420}";
},
{
name = top;
position = "{710, 1060}";
}
);
components = (
{
alignment = -1;
name = "_part.bowl-reverse.ss01";
transform = "{1, 0, 0, 1, 2, 0}";
}
);
layerId = "8CC1EFAB-F3CB-44D1-8974-978FC52DD9AB";
paths = (
{
closed = 1;
nodes = (
"724 -438 OFFCURVE",
"955 -288 OFFCURVE",
"1016 16 CURVE SMOOTH",
"1224 1060 LINE",
"1057 1060 LINE",
"1022 885 LINE",
"972 885 LINE",
"1002 776 LINE",
"898 266 LINE",
"836 144 LINE",
"870 144 LINE",
"847 28 LINE SMOOTH",
"805 -184 OFFCURVE",
"632 -282 OFFCURVE",
"454 -282 CURVE SMOOTH",
"318 -282 OFFCURVE",
"164 -234 OFFCURVE",
"88 -150 CURVE",
"24 -304 LINE",
"100 -374 OFFCURVE",
"272 -438 OFFCURVE",
"456 -438 CURVE SMOOTH"
);
}
);
width = 1255;
}
);
leftKerningGroup = LAT_G_LC;
leftMetricsKey = g;
rightKerningGroup = LAT_G_LC;
rightMetricsKey = g;
},
{
glyphname = h;
lastChange = "2023-05-23 02:53:39 +0000";
layers = (
{
anchors = (
{
name = bottom;
position = "{460, 0}";
},
{
name = center;
position = "{351, 1262}";
},
{
name = top;
position = "{400, 1475}";
}
);
background = {
paths = (
{
closed = 1;
nodes = (
"498 1065 OFFCURVE",
"358 963 OFFCURVE",
"276 827 CURVE",
"332 877 LINE",
"307 877 LINE",
"438 1540 LINE",
"377 1540 LINE",
"68 0 LINE",
"129 0 LINE",
"264 664 LINE SMOOTH",
"303 856 OFFCURVE",
"494 1008 OFFCURVE",
"676 1008 CURVE SMOOTH",
"844 1008 OFFCURVE",
"924 879 OFFCURVE",
"874 631 CURVE SMOOTH",
"795 229 LINE SMOOTH",
"772 113 OFFCURVE",
"784 51 OFFCURVE",
"874 -14 CURVE",
"901 49 LINE",
"852 78 OFFCURVE",
"836 127 OFFCURVE",
"852 213 CURVE SMOOTH",
"936 633 LINE SMOOTH",
"991 911 OFFCURVE",
"893 1065 OFFCURVE",
"676 1065 CURVE SMOOTH"
);
}
);
};
layerId = "AB099EFE-E788-4EFC-8633-CF147CB782A6";
paths = (
{
closed = 1;
nodes = (
"881 48 LINE",
"827 80 OFFCURVE",
"817 134 OFFCURVE",
"833 212 CURVE SMOOTH",
"917 634 LINE SMOOTH",
"972 912 OFFCURVE",
"878 1064 OFFCURVE",
"666 1064 CURVE SMOOTH",
"490 1064 OFFCURVE",
"352 960 OFFCURVE",
"272 828 CURVE",
"329 878 LINE",
"303 878 LINE",
"435 1540 LINE",
"374 1540 LINE",
"66 0 LINE",
"126 0 LINE",
"260 664 LINE SMOOTH",
"299 858 OFFCURVE",
"490 1008 OFFCURVE",
"666 1008 CURVE SMOOTH",
"830 1008 OFFCURVE",
"904 880 OFFCURVE",
"855 632 CURVE SMOOTH",
"775 228 LINE SMOOTH",
"753 116 OFFCURVE",
"765 56 OFFCURVE",
"855 -14 CURVE"
);
}
);
width = 1068;
},
{
anchors = (
{
name = bottom;
position = "{515, 0}";
},
{
name = center;
position = "{441, 1298}";
},
{
name = top;
position = "{488, 1540}";
}
);
background = {
paths = (
{
closed = 1;
nodes = (
"370 0 LINE",
"493 614 LINE SMOOTH",
"515 729 OFFCURVE",
"577 807 OFFCURVE",
"673 807 CURVE SMOOTH",
"742 807 OFFCURVE",
"812 766 OFFCURVE",
"787 651 CURVE SMOOTH",
"716 313 LINE SMOOTH",
"667 84 OFFCURVE",
"796 -10 OFFCURVE",
"998 -18 CURVE",
"1121 270 LINE",
"1080 279 OFFCURVE",
"1070 303 OFFCURVE",
"1084 377 CURVE SMOOTH",
"1152 700 LINE SMOOTH",
"1201 938 OFFCURVE",
"1076 1098 OFFCURVE",
"841 1098 CURVE SMOOTH",
"701 1098 OFFCURVE",
"560 1040 OFFCURVE",
"499 885 CURVE",
"597 1004 LINE",
"572 1004 LINE",
"677 1540 LINE",
"321 1540 LINE",
"13 0 LINE"
);
}
);
};
layerId = "2D8F7115-C311-411E-929D-56333CF7FFB2";
paths = (
{
closed = 1;
nodes = (
"1115 270 LINE",
"1075 280 OFFCURVE",
"1050 304 OFFCURVE",
"1065 378 CURVE SMOOTH",
"1129 700 LINE SMOOTH",
"1175 932 OFFCURVE",
"1063 1096 OFFCURVE",
"827 1096 CURVE SMOOTH",
"691 1096 OFFCURVE",
"553 1040 OFFCURVE",
"491 886 CURVE",
"589 1004 LINE",
"563 1004 LINE",
"667 1540 LINE",
"313 1540 LINE",
"5 0 LINE",
"359 0 LINE",
"483 614 LINE SMOOTH",
"506 730 OFFCURVE",
"567 806 OFFCURVE",
"657 806 CURVE SMOOTH",
"721 806 OFFCURVE",
"788 765 OFFCURVE",
"765 652 CURVE SMOOTH",
"695 314 LINE SMOOTH",
"647 84 OFFCURVE",
"793 -12 OFFCURVE",
"991 -18 CURVE"
);
}
);
width = 1229;
},
{
anchors = (
{
name = bottom;
position = "{479, 0}";
},
{
name = center;
position = "{371, 1276}";
},
{
name = top;
position = "{420, 1499}";
}
);
layerId = "8CC1EFAB-F3CB-44D1-8974-978FC52DD9AB";
paths = (
{
closed = 1;
nodes = (
"954 140 LINE",
"890 154 OFFCURVE",
"893 186 OFFCURVE",
"912 282 CURVE SMOOTH",
"988 666 LINE SMOOTH",
"1028 866 OFFCURVE",
"946 1076 OFFCURVE",
"686 1076 CURVE SMOOTH",
"520 1076 OFFCURVE",
"387 992 OFFCURVE",
"319 850 CURVE",
"421 966 LINE",
"399 966 LINE",
"512 1540 LINE",
"337 1540 LINE",
"31 0 LINE",
"206 0 LINE",
"335 648 LINE SMOOTH",
"368 812 OFFCURVE",
"500 918 OFFCURVE",
"646 918 CURVE SMOOTH",
"786 918 OFFCURVE",
"843 820 OFFCURVE",
"807 638 CURVE SMOOTH",
"734 268 LINE SMOOTH",
"706 124 OFFCURVE",
"736 36 OFFCURVE",
"894 -16 CURVE"
);
}
);
width = 1114;
}
);
leftKerningGroup = LAT_H_UC;
rightKerningGroup = LAT_N_LC;
rightMetricsKey = n;
unicode = 0068;
},
{
color = 4;
glyphname = h.ss01;
lastChange = "2023-05-23 02:53:39 +0000";
layers = (
{
anchors = (
{
name = bottom;
position = "{448, 0}";
},
{
name = center;
position = "{352, 1262}";
},
{
name = top;
position = "{401, 1474}";
}
);
layerId = "AB099EFE-E788-4EFC-8633-CF147CB782A6";
paths = (
{
closed = 1;
nodes = (
"126 0 LINE",
"261 664 LINE SMOOTH",
"300 857 OFFCURVE",
"488 1009 OFFCURVE",
"683 1009 CURVE SMOOTH",
"918 1009 OFFCURVE",
"922 793 OFFCURVE",
"890 631 CURVE SMOOTH",
"765 0 LINE",
"826 0 LINE",
"953 640 LINE SMOOTH",
"1004 897 OFFCURVE",
"910 1064 OFFCURVE",
"679 1064 CURVE SMOOTH",
"507 1064 OFFCURVE",
"357 962 OFFCURVE",
"273 826 CURVE",
"328 876 LINE",
"304 876 LINE",
"435 1540 LINE",
"376 1540 LINE",
"66 0 LINE"
);
}
);
width = 1090;
},
{
anchors = (
{
name = bottom;
position = "{501, 0}";
},
{
name = center;
position = "{441, 1298}";
},
{
name = top;
position = "{488, 1540}";
}
);
layerId = "2D8F7115-C311-411E-929D-56333CF7FFB2";
paths = (
{
closed = 1;
nodes = (
"360 0 LINE",
"482 614 LINE SMOOTH",
"505 729 OFFCURVE",
"587 805 OFFCURVE",
"683 805 CURVE SMOOTH",
"753 805 OFFCURVE",
"804 766 OFFCURVE",
"781 651 CURVE SMOOTH",
"650 0 LINE",
"1005 0 LINE",
"1146 700 LINE SMOOTH",
"1194 938 OFFCURVE",
"1084 1096 OFFCURVE",
"851 1096 CURVE SMOOTH",
"732 1096 OFFCURVE",
"583 1053 OFFCURVE",
"529 932 CURVE",
"585 983 LINE",
"556 983 LINE",
"667 1540 LINE",
"312 1540 LINE",
"5 0 LINE"
);
}
);
width = 1222;
},
{
anchors = (
{
name = bottom;
position = "{465, 0}";
},
{
name = center;
position = "{379, 1274}";
},
{
name = top;
position = "{426, 1524}";
}
);
layerId = "8CC1EFAB-F3CB-44D1-8974-978FC52DD9AB";
paths = (
{
closed = 1;
nodes = (
"207 0 LINE",
"336 647 LINE SMOOTH",
"371 825 OFFCURVE",
"520 921 OFFCURVE",
"670 921 CURVE SMOOTH",
"833 921 OFFCURVE",
"883 805 OFFCURVE",
"850 637 CURVE SMOOTH",
"723 0 LINE",
"899 0 LINE",
"1032 668 LINE SMOOTH",
"1069 856 OFFCURVE",
"1014 1076 OFFCURVE",
"735 1076 CURVE SMOOTH",
"573 1076 OFFCURVE",
"430 1006 OFFCURVE",
"344 864 CURVE",
"434 936 LINE",
"393 936 LINE",
"514 1540 LINE",
"338 1540 LINE",
"31 0 LINE"
);
}
);
width = 1128;
}
);
leftKerningGroup = LAT_H_UC;
leftMetricsKey = h;
rightKerningGroup = LAT_N_LC;
rightMetricsKey = n.ss01;
},
{
color = 8;
glyphname = idotless;
lastChange = "2023-05-23 02:53:39 +0000";
layers = (
{
anchors = (
{
name = bottom;
position = "{187, 0}";
},
{
name = center;
position = "{222, 569}";
},
{
name = ogonek;
position = "{250, -16}";
},
{
name = top;
position = "{320, 1048}";
}
);
background = {
paths = (
{
closed = 1;
nodes = (
"270 -8 OFFCURVE",
"307 -2 OFFCURVE",
"324 6 CURVE",
"338 74 LINE",
"309 59 OFFCURVE",
"266 49 OFFCURVE",
"242 49 CURVE SMOOTH",
"162 49 OFFCURVE",
"180 133 OFFCURVE",
"190 184 CURVE SMOOTH",
"362 1048 LINE",
"301 1048 LINE",
"135 225 LINE SMOOTH",
"113 117 OFFCURVE",
"102 -8 OFFCURVE",
"240 -8 CURVE SMOOTH"
);
}
);
};
guideLines = (
{
angle = 80;
position = "{64, -8}";
}
);
layerId = "AB099EFE-E788-4EFC-8633-CF147CB782A6";
paths = (
{
closed = 1;
nodes = (
"276 42 LINE",
"210 62 OFFCURVE",
"160 76 OFFCURVE",
"184 198 CURVE SMOOTH",
"353 1048 LINE",
"292 1048 LINE",
"130 236 LINE SMOOTH",
"108 128 OFFCURVE",
"102 26 OFFCURVE",
"250 -16 CURVE"
);
}
);
width = 486;
},
{
anchors = (
{
name = bottom;
position = "{221, 0}";
},
{
name = center;
position = "{301, 569}";
},
{
name = ogonek;
position = "{436, -16}";
},
{
name = top;
position = "{397, 1080}";
}
);
background = {
paths = (
{
closed = 1;
nodes = (
"389 -16 OFFCURVE",
"469 -4 OFFCURVE",
"518 20 CURVE",
"569 307 LINE",
"551 295 OFFCURVE",
"520 283 OFFCURVE",
"492 283 CURVE SMOOTH",
"457 283 OFFCURVE",
"438 299 OFFCURVE",
"446 340 CURVE SMOOTH",
"594 1080 LINE",
"240 1080 LINE",
"86 311 LINE SMOOTH",
"53 147 OFFCURVE",
"111 -16 OFFCURVE",
"334 -16 CURVE SMOOTH"
);
}
);
};
guideLines = (
{
angle = 80;
position = "{144, -8}";
}
);
layerId = "2D8F7115-C311-411E-929D-56333CF7FFB2";
paths = (
{
closed = 1;
nodes = (
"558 272 LINE",
"518 282 OFFCURVE",
"423 302 OFFCURVE",
"442 396 CURVE SMOOTH",
"580 1080 LINE",
"224 1080 LINE",
"90 412 LINE SMOOTH",
"37 146 OFFCURVE",
"150 -4 OFFCURVE",
"436 -16 CURVE"
);
}
);
width = 648;
},
{
anchors = (
{
name = bottom;
position = "{197, 0}";
},
{
name = center;
position = "{248, 569}";
},
{
name = ogonek;
position = "{315, -16}";
},
{
name = top;
position = "{348, 1060}";
}
);
layerId = "8CC1EFAB-F3CB-44D1-8974-978FC52DD9AB";
paths = (
{
closed = 1;
nodes = (
"382 144 LINE",
"322 154 OFFCURVE",
"262 174 OFFCURVE",
"278 254 CURVE SMOOTH",
"437 1060 LINE",
"262 1060 LINE",
"110 290 LINE SMOOTH",
"78 130 OFFCURVE",
"114 14 OFFCURVE",
"318 -16 CURVE"
);
}
);
width = 550;
}
);
unicode = 0131;
},
{
color = 4;
glyphname = idotless.ss01;
lastChange = "2023-05-23 06:50:15 +0000";
layers = (
{
anchors = (
{
name = bottom;
position = "{97, 0}";
},
{
name = ogonek;
position = "{133, 0}";
},
{
name = top;
position = "{310, 1048}";
}
);
layerId = "AB099EFE-E788-4EFC-8633-CF147CB782A6";
paths = (
{
closed = 1;
nodes = (
"133 0 LINE",
"342 1048 LINE",
"281 1048 LINE",
"72 0 LINE"
);
}
);
width = 414;
},
{
anchors = (
{
name = bottom;
position = "{191, 0}";
},
{
name = ogonek;
position = "{366, 0}";
},
{
name = top;
position = "{409, 1080}";
}
);
guideLines = (
{
angle = 60;
position = "{83, 0}";
}
);
layerId = "2D8F7115-C311-411E-929D-56333CF7FFB2";
paths = (
{
closed = 1;
nodes = (
"366 0 LINE",
"583 1080 LINE",
"228 1080 LINE",
"11 0 LINE"
);
}
);
width = 594;
},
{
anchors = (
{
name = bottom;
position = "{121, 0}";
},
{
name = ogonek;
position = "{209, 0}";
},
{
name = top;
position = "{338, 1060}";
}
);
layerId = "8CC1EFAB-F3CB-44D1-8974-978FC52DD9AB";
paths = (
{
closed = 1;
nodes = (
"209 0 LINE",
"424 1060 LINE",
"250 1060 LINE",
"35 0 LINE"
);
}
);
width = 459;
}
);
},
{
glyphname = jdotless;
lastChange = "2023-05-23 02:53:39 +0000";
layers = (
{
anchors = (
{
name = center;
position = "{243, 569}";
},
{
name = top;
position = "{337, 1048}";
}
);
layerId = "AB099EFE-E788-4EFC-8633-CF147CB782A6";
paths = (
{
closed = 1;
nodes = (
"-8 -438 OFFCURVE",
"98 -312 OFFCURVE",
"132 -144 CURVE SMOOTH",
"370 1048 LINE",
"309 1048 LINE",
"70 -148 LINE SMOOTH",
"45 -274 OFFCURVE",
"-36 -382 OFFCURVE",
"-164 -382 CURVE SMOOTH",
"-176 -382 OFFCURVE",
"-200 -379 OFFCURVE",
"-224 -371 CURVE",
"-236 -426 LINE",
"-210 -434 OFFCURVE",
"-180 -438 OFFCURVE",
"-156 -438 CURVE SMOOTH"
);
}
);
width = 438;
},
{
anchors = (
{
name = center;
position = "{324, 569}";
},
{
name = top;
position = "{420, 1080}";
}
);
layerId = "2D8F7115-C311-411E-929D-56333CF7FFB2";
paths = (
{
closed = 1;
nodes = (
"178 -446 OFFCURVE",
"331 -280 OFFCURVE",
"381 -30 CURVE SMOOTH",
"601 1080 LINE",
"246 1080 LINE",
"28 -20 LINE SMOOTH",
"17 -74 OFFCURVE",
"-32 -132 OFFCURVE",
"-110 -132 CURVE SMOOTH",
"-124 -132 OFFCURVE",
"-166 -132 OFFCURVE",
"-182 -124 CURVE",
"-246 -426 LINE",
"-190 -438 OFFCURVE",
"-136 -446 OFFCURVE",
"-78 -446 CURVE SMOOTH"
);
}
);
width = 612;
},
{
anchors = (
{
name = center;
position = "{279, 569}";
},
{
name = top;
position = "{375, 1060}";
}
);
layerId = "8CC1EFAB-F3CB-44D1-8974-978FC52DD9AB";
paths = (
{
closed = 1;
nodes = (
"70 -438 OFFCURVE",
"193 -300 OFFCURVE",
"224 -144 CURVE SMOOTH",
"463 1060 LINE",
"288 1060 LINE",
"55 -114 LINE SMOOTH",
"34 -218 OFFCURVE",
"-36 -274 OFFCURVE",
"-130 -274 CURVE SMOOTH",
"-152 -274 OFFCURVE",
"-184 -270 OFFCURVE",
"-210 -260 CURVE",
"-242 -420 LINE",
"-230 -424 OFFCURVE",
"-174 -438 OFFCURVE",
"-120 -438 CURVE SMOOTH"
);
}
);
width = 492;
}
);
leftKerningGroup = LAT_J_LC;
rightKerningGroup = LAT_J_LC;
unicode = 0237;
},
{
glyphname = k;
lastChange = "2023-05-23 02:53:39 +0000";
layers = (
{
anchors = (
{
name = bottom;
position = "{402, 0}";
},
{
name = top;
position = "{400, 1540}";
}
);
layerId = "AB099EFE-E788-4EFC-8633-CF147CB782A6";
paths = (
{
closed = 1;
nodes = (
"127 0 LINE",
"228 504 LINE",
"306 504 LINE",
"270 528 LINE",
"700 0 LINE",
"772 0 LINE",
"324 550 LINE",
"326 514 LINE",
"944 1048 LINE",
"859 1048 LINE",
"270 540 LINE",
"316 564 LINE",
"240 564 LINE",
"435 1540 LINE",
"374 1540 LINE",
"66 0 LINE"
);
}
);
width = 932;
},
{
anchors = (
{
name = bottom;
position = "{513, 0}";
},
{
name = top;
position = "{491, 1540}";
}
);
layerId = "2D8F7115-C311-411E-929D-56333CF7FFB2";
paths = (
{
closed = 1;
nodes = (
"359 0 LINE",
"449 442 LINE",
"555 442 LINE",
"443 514 LINE",
"715 0 LINE",
"1083 0 LINE",
"713 652 LINE",
"733 456 LINE",
"1291 1080 LINE",
"873 1080 LINE",
"483 606 LINE",
"587 648 LINE",
"490 648 LINE",
"668 1540 LINE",
"313 1540 LINE",
"5 0 LINE"
);
}
);
width = 1199;
},
{
anchors = (
{
name = bottom;
position = "{435, 0}";
},
{
name = top;
position = "{423, 1540}";
}
);
layerId = "8CC1EFAB-F3CB-44D1-8974-978FC52DD9AB";
paths = (
{
closed = 1;
nodes = (
"206 0 LINE",
"304 482 LINE",
"391 482 LINE",
"339 536 LINE",
"717 0 LINE",
"915 0 LINE",
"489 596 LINE",
"503 504 LINE",
"1083 1060 LINE",
"847 1060 LINE",
"367 588 LINE",
"425 614 LINE",
"330 614 LINE",
"512 1540 LINE",
"337 1540 LINE",
"31 0 LINE"
);
}
);
width = 1064;
}
);
leftKerningGroup = LAT_H_UC;
leftMetricsKey = h;
rightKerningGroup = LAT_K_LC;
unicode = 006B;
},
{
glyphname = kgreenlandic;
lastChange = "2023-05-23 02:53:39 +0000";
layers = (
{
anchors = (
{
name = bottom;
position = "{374, 0}";
},
{
name = top;
position = "{583, 1048}";
}
);
layerId = "AB099EFE-E788-4EFC-8633-CF147CB782A6";
paths = (
{
closed = 1;
nodes = (
"127 0 LINE",
"227 504 LINE",
"302 504 LINE",
"270 528 LINE",
"699 0 LINE",
"771 0 LINE",
"326 546 LINE",
"320 510 LINE",
"944 1048 LINE",
"859 1048 LINE",
"271 542 LINE",
"314 564 LINE",
"239 564 LINE",
"335 1048 LINE",
"274 1048 LINE",
"66 0 LINE"
);
}
);
width = 931;
},
{
anchors = (
{
name = bottom;
position = "{495, 0}";
},
{
name = top;
position = "{712, 1080}";
}
);
layerId = "2D8F7115-C311-411E-929D-56333CF7FFB2";
paths = (
{
closed = 1;
nodes = (
"361 0 LINE",
"453 456 LINE",
"519 456 LINE",
"427 508 LINE",
"685 0 LINE",
"1087 0 LINE",
"715 668 LINE",
"679 464 LINE",
"1295 1080 LINE",
"865 1080 LINE",
"443 606 LINE",
"563 660 LINE",
"495 660 LINE",
"579 1080 LINE",
"223 1080 LINE",
"5 0 LINE"
);
}
);
width = 1203;
},
{
anchors = (
{
name = bottom;
position = "{402, 0}";
},
{
name = top;
position = "{615, 1060}";
}
);
layerId = "8CC1EFAB-F3CB-44D1-8974-978FC52DD9AB";
paths = (
{
closed = 1;
nodes = (
"202 0 LINE",
"299 486 LINE",
"369 486 LINE",
"309 520 LINE",
"671 0 LINE",
"873 0 LINE",
"455 596 LINE",
"439 496 LINE",
"1063 1060 LINE",
"843 1060 LINE",
"317 566 LINE",
"393 600 LINE",
"322 600 LINE",
"415 1060 LINE",
"239 1060 LINE",
"27 0 LINE"
);
}
);
width = 1022;
}
);
leftMetricsKey = n;
rightMetricsKey = k;
unicode = 0138;
},
{
glyphname = l;
lastChange = "2023-05-23 02:53:39 +0000";
layers = (
{
anchors = (
{
name = bottom;
position = "{156, 0}";
},
{
name = center;
position = "{250, 766}";
},
{
name = dot;
position = "{487, 737}";
},
{
name = top;
position = "{403, 1540}";
},
{
name = topright;
position = "{442, 1540}";
}
);
background = {
components = (
{
name = l.ss01;
transform = "{1, 0, 0, 1, -8, 0}";
}
);
};
layerId = "AB099EFE-E788-4EFC-8633-CF147CB782A6";
paths = (
{
closed = 1;
nodes = (
"228 -8 OFFCURVE",
"261 -4 OFFCURVE",
"281 8 CURVE",
"291 68 LINE",
"271 56 OFFCURVE",
"233 48 OFFCURVE",
"207 48 CURVE SMOOTH",
"162 48 OFFCURVE",
"145 91 OFFCURVE",
"161 170 CURVE SMOOTH",
"436 1540 LINE",
"375 1540 LINE",
"103 188 LINE SMOOTH",
"88 112 OFFCURVE",
"73 -8 OFFCURVE",
"204 -8 CURVE SMOOTH"
);
}
);
width = 456;
},
{
anchors = (
{
name = bottom;
position = "{225, 0}";
},
{
name = center;
position = "{338, 807}";
},
{
name = dot;
position = "{840, 754}";
},
{
name = top;
position = "{487, 1540}";
},
{
name = topright;
position = "{633, 1540}";
}
);
background = {
components = (
{
name = l.ss01;
transform = "{1, 0, 0, 1, -6, 0}";
}
);
};
layerId = "2D8F7115-C311-411E-929D-56333CF7FFB2";
paths = (
{
closed = 1;
nodes = (
"369 -16 OFFCURVE",
"449 -8 OFFCURVE",
"499 16 CURVE",
"549 296 LINE",
"531 288 OFFCURVE",
"504 284 OFFCURVE",
"486 284 CURVE SMOOTH",
"437 284 OFFCURVE",
"423 313 OFFCURVE",
"433 362 CURVE SMOOTH",
"669 1540 LINE",
"311 1540 LINE",
"69 312 LINE SMOOTH",
"28 106 OFFCURVE",
"129 -16 OFFCURVE",
"321 -16 CURVE SMOOTH"
);
}
);
width = 659;
},
{
anchors = (
{
name = bottom;
position = "{176, 0}";
},
{
name = center;
position = "{278, 782}";
},
{
name = dot;
position = "{622, 768}";
},
{
name = top;
position = "{427, 1540}";
},
{
name = topright;
position = "{676, 1540}";
}
);
layerId = "8CC1EFAB-F3CB-44D1-8974-978FC52DD9AB";
paths = (
{
closed = 1;
nodes = (
"303 -14 OFFCURVE",
"337 -8 OFFCURVE",
"365 0 CURVE",
"387 164 LINE",
"373 160 OFFCURVE",
"341 150 OFFCURVE",
"313 150 CURVE SMOOTH",
"263 150 OFFCURVE",
"243 183 OFFCURVE",
"255 244 CURVE SMOOTH",
"515 1540 LINE",
"340 1540 LINE",
"79 242 LINE SMOOTH",
"46 80 OFFCURVE",
"125 -14 OFFCURVE",
"267 -14 CURVE SMOOTH"
);
}
);
width = 534;
}
);
leftKerningGroup = LAT_L_LC;
leftMetricsKey = h;
rightKerningGroup = LAT_L_LC;
unicode = 006C;
},
{
color = 4;
glyphname = l.ss01;
lastChange = "2023-05-23 02:53:39 +0000";
layers = (
{
anchors = (
{
name = bottom;
position = "{117, 0}";
},
{
name = center;
position = "{263, 732}";
},
{
name = dot;
position = "{486, 737}";
},
{
name = top;
position = "{424, 1540}";
},
{
name = topright;
position = "{455, 1540}";
}
);
layerId = "AB099EFE-E788-4EFC-8633-CF147CB782A6";
paths = (
{
closed = 1;
nodes = (
"147 0 LINE",
"455 1540 LINE",
"394 1540 LINE",
"86 0 LINE"
);
}
);
width = 443;
},
{
anchors = (
{
name = bottom;
position = "{207, 0}";
},
{
name = center;
position = "{367, 807}";
},
{
name = dot;
position = "{843, 754}";
},
{
name = top;
position = "{513, 1540}";
},
{
name = topright;
position = "{691, 1540}";
}
);
layerId = "2D8F7115-C311-411E-929D-56333CF7FFB2";
paths = (
{
closed = 1;
nodes = (
"384 0 LINE",
"691 1540 LINE",
"336 1540 LINE",
"29 0 LINE"
);
}
);
width = 628;
},
{
anchors = (
{
name = bottom;
position = "{147, 0}";
},
{
name = center;
position = "{301, 762}";
},
{
name = dot;
position = "{618, 743}";
},
{
name = top;
position = "{453, 1540}";
},
{
name = topright;
position = "{543, 1540}";
}
);
layerId = "8CC1EFAB-F3CB-44D1-8974-978FC52DD9AB";
paths = (
{
closed = 1;
nodes = (
"235 0 LINE",
"542 1540 LINE",
"367 1540 LINE",
"60 0 LINE"
);
}
);
width = 506;
}
);
leftKerningGroup = LAT_H_UC;
rightKerningGroup = LAT_H_UC;
},
{
glyphname = m;
lastChange = "2023-05-23 02:53:39 +0000";
layers = (
{
anchors = (
{
name = bottom;
position = "{703, 0}";
},
{
name = leghookleft;
position = "{1320, 0}";
},
{
name = top;
position = "{912, 1048}";
}
);
layerId = "AB099EFE-E788-4EFC-8633-CF147CB782A6";
paths = (
{
closed = 1;
nodes = (
"1433 48 LINE",
"1381 80 OFFCURVE",
"1369 136 OFFCURVE",
"1385 212 CURVE SMOOTH",
"1485 684 LINE SMOOTH",
"1541 950 OFFCURVE",
"1400 1064 OFFCURVE",
"1230 1064 CURVE SMOOTH",
"1044 1064 OFFCURVE",
"936 938 OFFCURVE",
"876 832 CURVE",
"906 840 LINE",
"862 840 LINE",
"882 814 LINE",
"880 942 OFFCURVE",
"770 1064 OFFCURVE",
"610 1064 CURVE SMOOTH",
"452 1064 OFFCURVE",
"334 958 OFFCURVE",
"280 828 CURVE",
"317 876 LINE",
"301 876 LINE",
"335 1048 LINE",
"274 1048 LINE",
"66 0 LINE",
"127 0 LINE",
"256 648 LINE SMOOTH",
"289 812 OFFCURVE",
"424 1008 OFFCURVE",
"610 1008 CURVE SMOOTH",
"724 1008 OFFCURVE",
"860 928 OFFCURVE",
"814 684 CURVE SMOOTH",
"686 0 LINE",
"747 0 LINE",
"873 674 LINE SMOOTH",
"900 816 OFFCURVE",
"1036 1008 OFFCURVE",
"1226 1008 CURVE SMOOTH",
"1338 1008 OFFCURVE",
"1479 944 OFFCURVE",
"1421 672 CURVE SMOOTH",
"1327 228 LINE SMOOTH",
"1306 128 OFFCURVE",
"1309 60 OFFCURVE",
"1407 -14 CURVE"
);
}
);
width = 1620;
},
{
anchors = (
{
name = bottom;
position = "{787, 0}";
},
{
name = leghookleft;
position = "{1377, 0}";
},
{
name = top;
position = "{1000, 1080}";
}
);
layerId = "2D8F7115-C311-411E-929D-56333CF7FFB2";
paths = (
{
closed = 1;
nodes = (
"1693 272 LINE",
"1651 282 OFFCURVE",
"1624 308 OFFCURVE",
"1639 380 CURVE SMOOTH",
"1697 660 LINE SMOOTH",
"1753 928 OFFCURVE",
"1605 1096 OFFCURVE",
"1371 1096 CURVE SMOOTH",
"1219 1096 OFFCURVE",
"1105 1008 OFFCURVE",
"1029 918 CURVE",
"1073 934 LINE",
"1005 934 LINE",
"1047 896 LINE",
"1033 1016 OFFCURVE",
"951 1096 OFFCURVE",
"821 1096 CURVE SMOOTH",
"681 1096 OFFCURVE",
"563 1028 OFFCURVE",
"463 832 CURVE",
"577 946 LINE",
"527 946 LINE",
"559 1080 LINE",
"223 1080 LINE",
"5 0 LINE",
"359 0 LINE",
"479 586 LINE SMOOTH",
"500 690 OFFCURVE",
"551 806 OFFCURVE",
"655 806 CURVE SMOOTH",
"727 806 OFFCURVE",
"766 750 OFFCURVE",
"749 660 CURVE SMOOTH",
"625 0 LINE",
"979 0 LINE",
"1089 586 LINE SMOOTH",
"1104 668 OFFCURVE",
"1139 806 OFFCURVE",
"1249 806 CURVE SMOOTH",
"1321 806 OFFCURVE",
"1359 750 OFFCURVE",
"1341 660 CURVE SMOOTH",
"1271 314 LINE SMOOTH",
"1236 140 OFFCURVE",
"1297 10 OFFCURVE",
"1571 -16 CURVE"
);
}
);
width = 1806;
},
{
anchors = (
{
name = bottom;
position = "{724, 0}";
},
{
name = leghookleft;
position = "{1329, 0}";
},
{
name = top;
position = "{939, 1060}";
}
);
layerId = "8CC1EFAB-F3CB-44D1-8974-978FC52DD9AB";
paths = (
{
closed = 1;
nodes = (
"1508 140 LINE",
"1441 155 OFFCURVE",
"1440 191 OFFCURVE",
"1460 282 CURVE SMOOTH",
"1548 698 LINE SMOOTH",
"1597 928 OFFCURVE",
"1455 1078 OFFCURVE",
"1246 1078 CURVE SMOOTH",
"1078 1078 OFFCURVE",
"959 978 OFFCURVE",
"889 848 CURVE",
"985 906 LINE",
"871 906 LINE",
"945 838 LINE",
"919 976 OFFCURVE",
"810 1078 OFFCURVE",
"667 1078 CURVE SMOOTH",
"523 1078 OFFCURVE",
"399 986 OFFCURVE",
"335 840 CURVE",
"417 926 LINE",
"380 926 LINE",
"406 1060 LINE",
"239 1060 LINE",
"27 0 LINE",
"202 0 LINE",
"317 574 LINE SMOOTH",
"356 770 OFFCURVE",
"464 922 OFFCURVE",
"615 922 CURVE SMOOTH",
"728 922 OFFCURVE",
"802 840 OFFCURVE",
"769 664 CURVE SMOOTH",
"645 0 LINE",
"820 0 LINE",
"927 580 LINE SMOOTH",
"962 770 OFFCURVE",
"1069 922 OFFCURVE",
"1230 922 CURVE SMOOTH",
"1347 922 OFFCURVE",
"1403 840 OFFCURVE",
"1369 682 CURVE SMOOTH",
"1281 268 LINE SMOOTH",
"1260 170 OFFCURVE",
"1251 46 OFFCURVE",
"1446 -16 CURVE"
);
}
);
width = 1668;
}
);
leftKerningGroup = LAT_N_LC;
leftMetricsKey = n;
rightKerningGroup = LAT_N_LC;
rightMetricsKey = n;
unicode = 006D;
},
{
color = 4;
glyphname = m.ss01;
lastChange = "2023-05-23 02:53:39 +0000";
layers = (
{
anchors = (
{
name = bottom;
position = "{715, 0}";
},
{
name = leghookleft;
position = "{1337, 0}";
},
{
name = top;
position = "{924, 1048}";
}
);
guideLines = (
{
angle = 60;
position = "{195, 358}";
}
);
layerId = "AB099EFE-E788-4EFC-8633-CF147CB782A6";
paths = (
{
closed = 1;
nodes = (
"128 0 LINE",
"257 647 LINE SMOOTH",
"290 811 OFFCURVE",
"441 1008 OFFCURVE",
"635 1008 CURVE SMOOTH",
"754 1008 OFFCURVE",
"873 928 OFFCURVE",
"824 684 CURVE SMOOTH",
"687 0 LINE",
"749 0 LINE",
"882 672 LINE SMOOTH",
"910 815 OFFCURVE",
"1060 1008 OFFCURVE",
"1256 1008 CURVE SMOOTH",
"1366 1008 OFFCURVE",
"1496 944 OFFCURVE",
"1441 672 CURVE SMOOTH",
"1306 0 LINE",
"1367 0 LINE",
"1504 684 LINE SMOOTH",
"1557 949 OFFCURVE",
"1417 1064 OFFCURVE",
"1255 1064 CURVE SMOOTH",
"1071 1064 OFFCURVE",
"952 937 OFFCURVE",
"893 830 CURVE",
"921 839 LINE",
"876 839 LINE",
"896 814 LINE",
"892 955 OFFCURVE",
"785 1064 OFFCURVE",
"638 1064 CURVE SMOOTH",
"482 1064 OFFCURVE",
"368 965 OFFCURVE",
"275 827 CURVE",
"311 855 LINE",
"296 855 LINE",
"335 1048 LINE",
"275 1048 LINE",
"66 0 LINE"
);
}
);
width = 1632;
},
{
anchors = (
{
name = bottom;
position = "{796, 0}";
},
{
name = leghookleft;
position = "{1390, 0}";
},
{
name = top;
position = "{1009, 1080}";
}
);
layerId = "2D8F7115-C311-411E-929D-56333CF7FFB2";
paths = (
{
closed = 1;
nodes = (
"360 0 LINE",
"493 664 LINE SMOOTH",
"509 743 OFFCURVE",
"560 804 OFFCURVE",
"636 804 CURVE SMOOTH",
"716 804 OFFCURVE",
"758 741 OFFCURVE",
"742 659 CURVE SMOOTH",
"610 0 LINE",
"967 0 LINE",
"1098 664 LINE SMOOTH",
"1114 743 OFFCURVE",
"1162 804 OFFCURVE",
"1240 804 CURVE SMOOTH",
"1318 804 OFFCURVE",
"1363 743 OFFCURVE",
"1346 659 CURVE SMOOTH",
"1215 0 LINE",
"1570 0 LINE",
"1701 659 LINE SMOOTH",
"1754 928 OFFCURVE",
"1605 1096 OFFCURVE",
"1377 1096 CURVE SMOOTH",
"1232 1096 OFFCURVE",
"1125 1026 OFFCURVE",
"1029 913 CURVE",
"1091 950 LINE",
"1021 950 LINE",
"1076 903 LINE",
"1037 1024 OFFCURVE",
"970 1096 OFFCURVE",
"835 1096 CURVE SMOOTH",
"691 1096 OFFCURVE",
"564 1028 OFFCURVE",
"468 831 CURVE",
"577 946 LINE",
"530 946 LINE",
"557 1080 LINE",
"222 1080 LINE",
"5 0 LINE"
);
}
);
width = 1785;
},
{
anchors = (
{
name = bottom;
position = "{745, 0}";
},
{
name = leghookleft;
position = "{1368, 0}";
},
{
name = top;
position = "{960, 1060}";
}
);
layerId = "8CC1EFAB-F3CB-44D1-8974-978FC52DD9AB";
paths = (
{
closed = 1;
nodes = (
"203 0 LINE",
"330 635 LINE SMOOTH",
"364 807 OFFCURVE",
"496 921 OFFCURVE",
"633 921 CURVE SMOOTH",
"756 921 OFFCURVE",
"819 834 OFFCURVE",
"782 649 CURVE SMOOTH",
"651 0 LINE",
"827 0 LINE",
"956 641 LINE SMOOTH",
"990 809 OFFCURVE",
"1118 921 OFFCURVE",
"1255 921 CURVE SMOOTH",
"1378 921 OFFCURVE",
"1446 838 OFFCURVE",
"1407 647 CURVE SMOOTH",
"1276 0 LINE",
"1452 0 LINE",
"1589 680 LINE SMOOTH",
"1635 909 OFFCURVE",
"1536 1076 OFFCURVE",
"1288 1076 CURVE SMOOTH",
"1100 1076 OFFCURVE",
"975 972 OFFCURVE",
"907 852 CURVE",
"1012 908 LINE",
"897 908 LINE",
"963 842 LINE",
"934 982 OFFCURVE",
"858 1076 OFFCURVE",
"696 1076 CURVE SMOOTH",
"526 1076 OFFCURVE",
"403 979 OFFCURVE",
"334 834 CURVE",
"420 924 LINE",
"380 924 LINE",
"407 1060 LINE",
"240 1060 LINE",
"27 0 LINE"
);
}
);
width = 1682;
}
);
leftKerningGroup = LAT_N_LC;
leftMetricsKey = n;
rightKerningGroup = LAT_N_LC;
rightMetricsKey = n.ss01;
},
{
glyphname = n;
lastChange = "2023-05-23 02:53:39 +0000";
layers = (
{
anchors = (
{
name = bottom;
position = "{464, 0}";
},
{
name = leghookleft;
position = "{99, 0}";
},
{
name = leghookretroflex;
position = "{765, 0}";
},
{
name = top;
position = "{663, 1048}";
}
);
layerId = "AB099EFE-E788-4EFC-8633-CF147CB782A6";
paths = (
{
closed = 1;
nodes = (
"877 48 LINE",
"819 82 OFFCURVE",
"810 140 OFFCURVE",
"825 212 CURVE SMOOTH",
"925 678 LINE SMOOTH",
"974 906 OFFCURVE",
"864 1064 OFFCURVE",
"658 1064 CURVE SMOOTH",
"472 1064 OFFCURVE",
"348 960 OFFCURVE",
"272 828 CURVE",
"330 876 LINE",
"301 876 LINE",
"335 1048 LINE",
"274 1048 LINE",
"66 0 LINE",
"127 0 LINE",
"259 666 LINE SMOOTH",
"295 850 OFFCURVE",
"460 1008 OFFCURVE",
"654 1008 CURVE SMOOTH",
"820 1008 OFFCURVE",
"905 872 OFFCURVE",
"863 676 CURVE SMOOTH",
"767 228 LINE SMOOTH",
"745 126 OFFCURVE",
"753 56 OFFCURVE",
"851 -14 CURVE"
);
}
);
width = 1064;
},
{
anchors = (
{
name = bottom;
position = "{505, 0}";
},
{
name = leghookleft;
position = "{181, 0}";
},
{
name = leghookretroflex;
position = "{810, 0}";
},
{
name = top;
position = "{742, 1080}";
}
);
layerId = "2D8F7115-C311-411E-929D-56333CF7FFB2";
paths = (
{
closed = 1;
nodes = (
"1115 272 LINE",
"1075 282 OFFCURVE",
"1049 306 OFFCURVE",
"1065 380 CURVE SMOOTH",
"1133 702 LINE SMOOTH",
"1184 942 OFFCURVE",
"1051 1096 OFFCURVE",
"849 1096 CURVE SMOOTH",
"693 1096 OFFCURVE",
"553 1016 OFFCURVE",
"483 832 CURVE",
"577 938 LINE",
"535 938 LINE",
"563 1080 LINE",
"221 1080 LINE",
"5 0 LINE",
"359 0 LINE",
"475 574 LINE SMOOTH",
"507 730 OFFCURVE",
"567 808 OFFCURVE",
"659 808 CURVE SMOOTH",
"723 808 OFFCURVE",
"792 768 OFFCURVE",
"767 652 CURVE SMOOTH",
"695 314 LINE SMOOTH",
"646 84 OFFCURVE",
"791 -4 OFFCURVE",
"995 -16 CURVE"
);
}
);
width = 1228;
},
{
anchors = (
{
name = bottom;
position = "{458, 0}";
},
{
name = leghookleft;
position = "{110, 0}";
},
{
name = leghookretroflex;
position = "{753, 0}";
},
{
name = top;
position = "{675, 1060}";
}
);
layerId = "8CC1EFAB-F3CB-44D1-8974-978FC52DD9AB";
paths = (
{
closed = 1;
nodes = (
"931 138 LINE",
"865 152 OFFCURVE",
"862 184 OFFCURVE",
"883 280 CURVE SMOOTH",
"975 708 LINE SMOOTH",
"1021 924 OFFCURVE",
"899 1076 OFFCURVE",
"687 1076 CURVE SMOOTH",
"525 1076 OFFCURVE",
"413 990 OFFCURVE",
"327 844 CURVE",
"413 926 LINE",
"379 926 LINE",
"407 1060 LINE",
"239 1060 LINE",
"27 0 LINE",
"202 0 LINE",
"324 608 LINE SMOOTH",
"360 786 OFFCURVE",
"487 920 OFFCURVE",
"637 920 CURVE SMOOTH",
"761 920 OFFCURVE",
"825 828 OFFCURVE",
"793 678 CURVE SMOOTH",
"704 266 LINE SMOOTH",
"681 158 OFFCURVE",
"679 36 OFFCURVE",
"869 -18 CURVE"
);
}
);
width = 1091;
}
);
leftKerningGroup = LAT_N_LC;
rightKerningGroup = LAT_N_LC;
unicode = 006E;
},
{
color = 4;
glyphname = n.ss01;
lastChange = "2023-05-23 02:53:39 +0000";
layers = (
{
anchors = (
{
name = bottom;
position = "{469, 0}";
},
{
name = leghookleft;
position = "{100, 0}";
},
{
name = leghookright;
position = "{796, 0}";
},
{
name = top;
position = "{682, 1048}";
}
);
layerId = "AB099EFE-E788-4EFC-8633-CF147CB782A6";
paths = (
{
closed = 1;
nodes = (
"127 0 LINE",
"259 664 LINE SMOOTH",
"295 847 OFFCURVE",
"460 1008 OFFCURVE",
"658 1008 CURVE SMOOTH",
"848 1008 OFFCURVE",
"937 860 OFFCURVE",
"893 641 CURVE SMOOTH",
"765 0 LINE",
"826 0 LINE",
"954 642 LINE SMOOTH",
"1005 898 OFFCURVE",
"891 1064 OFFCURVE",
"662 1064 CURVE SMOOTH",
"487 1064 OFFCURVE",
"344 964 OFFCURVE",
"273 827 CURVE",
"333 876 LINE",
"298 876 LINE",
"333 1048 LINE",
"275 1048 LINE",
"66 0 LINE"
);
}
);
width = 1091;
},
{
anchors = (
{
name = bottom;
position = "{497, 0}";
},
{
name = leghookleft;
position = "{181, 0}";
},
{
name = leghookright;
position = "{828, 0}";
},
{
name = top;
position = "{751, 1080}";
}
);
layerId = "2D8F7115-C311-411E-929D-56333CF7FFB2";
paths = (
{
closed = 1;
nodes = (
"359 0 LINE",
"482 614 LINE SMOOTH",
"505 729 OFFCURVE",
"572 805 OFFCURVE",
"665 805 CURVE SMOOTH",
"734 805 OFFCURVE",
"800 766 OFFCURVE",
"777 651 CURVE SMOOTH",
"648 0 LINE",
"1003 0 LINE",
"1142 702 LINE SMOOTH",
"1189 940 OFFCURVE",
"1047 1096 OFFCURVE",
"828 1096 CURVE SMOOTH",
"680 1096 OFFCURVE",
"556 1026 OFFCURVE",
"486 841 CURVE",
"579 934 LINE",
"526 934 LINE",
"554 1080 LINE",
"220 1080 LINE",
"5 0 LINE"
);
}
);
width = 1218;
},
{
anchors = (
{
name = bottom;
position = "{469, 0}";
},
{
name = leghookleft;
position = "{117, 0}";
},
{
name = leghookright;
position = "{807, 0}";
},
{
name = top;
position = "{711, 1060}";
}
);
layerId = "8CC1EFAB-F3CB-44D1-8974-978FC52DD9AB";
paths = (
{
closed = 1;
nodes = (
"202 0 LINE",
"334 653 LINE SMOOTH",
"364 803 OFFCURVE",
"500 921 OFFCURVE",
"651 921 CURVE SMOOTH",
"798 921 OFFCURVE",
"881 808 OFFCURVE",
"850 653 CURVE SMOOTH",
"720 0 LINE",
"895 0 LINE",
"1028 668 LINE SMOOTH",
"1075 904 OFFCURVE",
"940 1076 OFFCURVE",
"702 1076 CURVE SMOOTH",
"541 1076 OFFCURVE",
"418 997 OFFCURVE",
"336 858 CURVE",
"428 930 LINE",
"381 930 LINE",
"408 1060 LINE",
"240 1060 LINE",
"27 0 LINE"
);
}
);
width = 1124;
}
);
leftKerningGroup = LAT_N_LC;
leftMetricsKey = n;
rightKerningGroup = LAT_N_LC;
},
{
glyphname = o;
lastChange = "2023-05-23 05:20:45 +0000";
layers = (
{
anchors = (
{
name = bottom;
position = "{494, 0}";
},
{
name = center;
position = "{576, 524}";
},
{
name = horn;
position = "{888, 983}";
},
{
name = ogonek;
position = "{608, 0}";
},
{
name = top;
position = "{666, 1048}";
},
{
name = topright;
position = "{1196, 1048}";
}
);
background = {
paths = (
{
closed = 1;
nodes = (
"763 -16 OFFCURVE",
"970 184 OFFCURVE",
"1028 472 CURVE SMOOTH",
"1091 783 OFFCURVE",
"952 1064 OFFCURVE",
"643 1064 CURVE SMOOTH",
"382 1064 OFFCURVE",
"181 863 OFFCURVE",
"124 583 CURVE SMOOTH",
"60 268 OFFCURVE",
"206 -16 OFFCURVE",
"509 -16 CURVE SMOOTH"
);
},
{
closed = 1;
nodes = (
"250 40 OFFCURVE",
"126 282 OFFCURVE",
"183 568 CURVE SMOOTH",
"235 828 OFFCURVE",
"415 1008 OFFCURVE",
"640 1008 CURVE SMOOTH",
"901 1008 OFFCURVE",
"1029 765 OFFCURVE",
"968 480 CURVE SMOOTH",
"917 238 OFFCURVE",
"747 40 OFFCURVE",
"511 40 CURVE SMOOTH"
);
}
);
};
layerId = "AB099EFE-E788-4EFC-8633-CF147CB782A6";
paths = (
{
closed = 1;
nodes = (
"824 -16 OFFCURVE",
"1043 288 OFFCURVE",
"1043 616 CURVE SMOOTH",
"1043 865 OFFCURVE",
"903 1064 OFFCURVE",
"643 1064 CURVE SMOOTH",
"327 1064 OFFCURVE",
"109 767 OFFCURVE",
"109 439 CURVE SMOOTH",
"109 187 OFFCURVE",
"253 -16 OFFCURVE",
"509 -16 CURVE SMOOTH"
);
},
{
closed = 1;
nodes = (
"292 40 OFFCURVE",
"169 211 OFFCURVE",
"169 434 CURVE SMOOTH",
"169 727 OFFCURVE",
"356 1008 OFFCURVE",
"640 1008 CURVE SMOOTH",
"858 1008 OFFCURVE",
"983 839 OFFCURVE",
"983 617 CURVE SMOOTH",
"983 325 OFFCURVE",
"791 40 OFFCURVE",
"511 40 CURVE SMOOTH"
);
}
);
width = 1150;
},
{
anchors = (
{
name = bottom;
position = "{479, 0}";
},
{
name = center;
position = "{587, 540}";
},
{
name = horn;
position = "{965, 989}";
},
{
name = ogonek;
position = "{610, 0}";
},
{
name = top;
position = "{676, 1080}";
},
{
name = topright;
position = "{1217, 1080}";
}
);
background = {
paths = (
{
closed = 1;
nodes = (
"824 -16 OFFCURVE",
"1049 210 OFFCURVE",
"1106 500 CURVE SMOOTH",
"1171 829 OFFCURVE",
"966 1096 OFFCURVE",
"642 1096 CURVE SMOOTH",
"334 1096 OFFCURVE",
"124 872 OFFCURVE",
"66 586 CURVE SMOOTH",
"0 258 OFFCURVE",
"194 -16 OFFCURVE",
"516 -16 CURVE SMOOTH"
);
},
{
closed = 1;
nodes = (
"418 280 OFFCURVE",
"374 382 OFFCURVE",
"396 526 CURVE SMOOTH",
"420 686 OFFCURVE",
"506 798 OFFCURVE",
"630 798 CURVE SMOOTH",
"744 798 OFFCURVE",
"793 700 OFFCURVE",
"776 564 CURVE SMOOTH",
"759 426 OFFCURVE",
"684 280 OFFCURVE",
"540 280 CURVE SMOOTH"
);
}
);
};
layerId = "2D8F7115-C311-411E-929D-56333CF7FFB2";
paths = (
{
closed = 1;
nodes = (
"857 -16 OFFCURVE",
"1118 281 OFFCURVE",
"1118 611 CURVE SMOOTH",
"1118 894 OFFCURVE",
"926 1096 OFFCURVE",
"644 1096 CURVE SMOOTH",
"303 1096 OFFCURVE",
"55 803 OFFCURVE",
"55 472 CURVE SMOOTH",
"55 188 OFFCURVE",
"236 -16 OFFCURVE",
"516 -16 CURVE SMOOTH"
);
},
{
closed = 1;
nodes = (
"444 280 OFFCURVE",
"393 353 OFFCURVE",
"393 471 CURVE SMOOTH",
"393 626 OFFCURVE",
"481 800 OFFCURVE",
"631 800 CURVE SMOOTH",
"728 800 OFFCURVE",
"780 725 OFFCURVE",
"780 607 CURVE SMOOTH",
"780 452 OFFCURVE",
"691 280 OFFCURVE",
"541 280 CURVE SMOOTH"
);
}
);
width = 1172;
},
{
anchors = (
{
name = bottom;
position = "{485, 0}";
},
{
name = center;
position = "{575, 530}";
},
{
name = horn;
position = "{899, 997}";
},
{
name = ogonek;
position = "{604, 0}";
},
{
name = top;
position = "{659, 1060}";
},
{
name = topright;
position = "{1192, 1060}";
}
);
background = {
paths = (
{
closed = 1;
nodes = (
"778 -16 OFFCURVE",
"988 188 OFFCURVE",
"1048 480 CURVE SMOOTH",
"1114 810 OFFCURVE",
"962 1076 OFFCURVE",
"644 1076 CURVE SMOOTH",
"368 1076 OFFCURVE",
"156 864 OFFCURVE",
"100 582 CURVE SMOOTH",
"36 254 OFFCURVE",
"200 -16 OFFCURVE",
"514 -16 CURVE SMOOTH"
);
},
{
closed = 1;
nodes = (
"314 144 OFFCURVE",
"229 326 OFFCURVE",
"273 552 CURVE SMOOTH",
"319 778 OFFCURVE",
"458 916 OFFCURVE",
"636 916 CURVE SMOOTH",
"830 916 OFFCURVE",
"920 740 OFFCURVE",
"876 520 CURVE SMOOTH",
"836 314 OFFCURVE",
"706 144 OFFCURVE",
"512 144 CURVE SMOOTH"
);
}
);
};
layerId = "8CC1EFAB-F3CB-44D1-8974-978FC52DD9AB";
paths = (
{
closed = 1;
nodes = (
"838 -16 OFFCURVE",
"1063 291 OFFCURVE",
"1063 619 CURVE SMOOTH",
"1063 887 OFFCURVE",
"913 1076 OFFCURVE",
"649 1076 CURVE SMOOTH",
"319 1076 OFFCURVE",
"87 781 OFFCURVE",
"87 453 CURVE SMOOTH",
"87 183 OFFCURVE",
"245 -16 OFFCURVE",
"509 -16 CURVE SMOOTH"
);
},
{
closed = 1;
nodes = (
"348 144 OFFCURVE",
"263 269 OFFCURVE",
"263 447 CURVE SMOOTH",
"263 677 OFFCURVE",
"405 916 OFFCURVE",
"636 916 CURVE SMOOTH",
"798 916 OFFCURVE",
"887 797 OFFCURVE",
"887 619 CURVE SMOOTH",
"887 389 OFFCURVE",
"738 144 OFFCURVE",
"511 144 CURVE SMOOTH"
);
}
);
width = 1148;
}
);
leftKerningGroup = LAT_O_LC;
rightKerningGroup = LAT_O_LC;
unicode = 006F;
},
{
color = 4;
glyphname = o.ss01;
lastChange = "2023-05-23 02:53:39 +0000";
layers = (
{
anchors = (
{
name = bottom;
position = "{522, 0}";
},
{
name = center;
position = "{608, 524}";
},
{
name = horn;
position = "{929, 983}";
},
{
name = ogonek;
position = "{645, 0}";
},
{
name = top;
position = "{691, 1048}";
},
{
name = topright;
position = "{1256, 1048}";
}
);
background = {
paths = (
{
closed = 1;
nodes = (
"804 -16 OFFCURVE",
"1026 182 OFFCURVE",
"1084 474 CURVE SMOOTH",
"1148 792 OFFCURVE",
"990 1064 OFFCURVE",
"670 1064 CURVE SMOOTH",
"398 1064 OFFCURVE",
"180 868 OFFCURVE",
"124 582 CURVE SMOOTH",
"60 262 OFFCURVE",
"216 -16 OFFCURVE",
"546 -16 CURVE SMOOTH"
);
},
{
closed = 1;
nodes = (
"260 40 OFFCURVE",
"126 280 OFFCURVE",
"182 568 CURVE SMOOTH",
"234 828 OFFCURVE",
"428 1008 OFFCURVE",
"668 1008 CURVE SMOOTH",
"950 1008 OFFCURVE",
"1081 766 OFFCURVE",
"1025 486 CURVE SMOOTH",
"971 224 OFFCURVE",
"782 40 OFFCURVE",
"542 40 CURVE SMOOTH"
);
}
);
};
layerId = "AB099EFE-E788-4EFC-8633-CF147CB782A6";
paths = (
{
closed = 1;
nodes = (
"867 -16 OFFCURVE",
"1098 279 OFFCURVE",
"1098 602 CURVE SMOOTH",
"1098 867 OFFCURVE",
"943 1064 OFFCURVE",
"671 1064 CURVE SMOOTH",
"340 1064 OFFCURVE",
"110 773 OFFCURVE",
"110 449 CURVE SMOOTH",
"110 183 OFFCURVE",
"265 -16 OFFCURVE",
"537 -16 CURVE SMOOTH"
);
},
{
closed = 1;
nodes = (
"302 40 OFFCURVE",
"169 210 OFFCURVE",
"169 445 CURVE SMOOTH",
"169 737 OFFCURVE",
"374 1008 OFFCURVE",
"670 1008 CURVE SMOOTH",
"907 1008 OFFCURVE",
"1038 834 OFFCURVE",
"1038 602 CURVE SMOOTH",
"1038 312 OFFCURVE",
"834 40 OFFCURVE",
"538 40 CURVE SMOOTH"
);
}
);
width = 1208;
},
{
anchors = (
{
name = bottom;
position = "{506, 0}";
},
{
name = center;
position = "{608, 541}";
},
{
name = horn;
position = "{999, 989}";
},
{
name = ogonek;
position = "{645, 0}";
},
{
name = top;
position = "{713, 1080}";
},
{
name = topright;
position = "{1278, 1080}";
}
);
background = {
paths = (
{
closed = 1;
nodes = (
"898 -16 OFFCURVE",
"1108 226 OFFCURVE",
"1160 484 CURVE SMOOTH",
"1228 826 OFFCURVE",
"1008 1096 OFFCURVE",
"664 1096 CURVE SMOOTH",
"324 1096 OFFCURVE",
"114 856 OFFCURVE",
"62 598 CURVE SMOOTH",
"2 302 OFFCURVE",
"154 -16 OFFCURVE",
"558 -16 CURVE SMOOTH"
);
},
{
closed = 1;
nodes = (
"432 280 OFFCURVE",
"366 420 OFFCURVE",
"396 566 CURVE SMOOTH",
"422 698 OFFCURVE",
"516 798 OFFCURVE",
"644 798 CURVE SMOOTH",
"784 798 OFFCURVE",
"856 678 OFFCURVE",
"826 522 CURVE SMOOTH",
"802 398 OFFCURVE",
"720 280 OFFCURVE",
"582 280 CURVE SMOOTH"
);
}
);
};
layerId = "2D8F7115-C311-411E-929D-56333CF7FFB2";
paths = (
{
closed = 1;
nodes = (
"907 -16 OFFCURVE",
"1172 258 OFFCURVE",
"1172 594 CURVE SMOOTH",
"1172 890 OFFCURVE",
"966 1096 OFFCURVE",
"666 1096 CURVE SMOOTH",
"315 1096 OFFCURVE",
"49 818 OFFCURVE",
"49 482 CURVE SMOOTH",
"49 219 OFFCURVE",
"212 -16 OFFCURVE",
"546 -16 CURVE SMOOTH"
);
},
{
closed = 1;
nodes = (
"456 280 OFFCURVE",
"389 379 OFFCURVE",
"389 501 CURVE SMOOTH",
"389 651 OFFCURVE",
"490 798 OFFCURVE",
"645 798 CURVE SMOOTH",
"763 798 OFFCURVE",
"833 710 OFFCURVE",
"833 583 CURVE SMOOTH",
"833 431 OFFCURVE",
"734 280 OFFCURVE",
"580 280 CURVE SMOOTH"
);
}
);
width = 1222;
},
{
anchors = (
{
name = bottom;
position = "{512, 0}";
},
{
name = center;
position = "{604, 530}";
},
{
name = horn;
position = "{952, 985}";
},
{
name = ogonek;
position = "{641, 0}";
},
{
name = top;
position = "{696, 1060}";
},
{
name = topright;
position = "{1262, 1060}";
}
);
background = {
paths = (
{
closed = 1;
nodes = (
"834 -16 OFFCURVE",
"1054 196 OFFCURVE",
"1110 480 CURVE SMOOTH",
"1170 787 OFFCURVE",
"1016 1076 OFFCURVE",
"662 1076 CURVE SMOOTH",
"366 1076 OFFCURVE",
"150 865 OFFCURVE",
"96 586 CURVE SMOOTH",
"36 276 OFFCURVE",
"190 -16 OFFCURVE",
"540 -16 CURVE SMOOTH"
);
},
{
closed = 1;
nodes = (
"320 144 OFFCURVE",
"225 330 OFFCURVE",
"271 562 CURVE SMOOTH",
"311 765 OFFCURVE",
"444 916 OFFCURVE",
"654 916 CURVE SMOOTH",
"886 916 OFFCURVE",
"981 730 OFFCURVE",
"934 500 CURVE SMOOTH",
"892 294 OFFCURVE",
"752 144 OFFCURVE",
"548 144 CURVE SMOOTH"
);
}
);
};
layerId = "8CC1EFAB-F3CB-44D1-8974-978FC52DD9AB";
paths = (
{
closed = 1;
nodes = (
"876 -16 OFFCURVE",
"1123 269 OFFCURVE",
"1123 600 CURVE SMOOTH",
"1123 863 OFFCURVE",
"966 1076 OFFCURVE",
"668 1076 CURVE SMOOTH",
"326 1076 OFFCURVE",
"83 793 OFFCURVE",
"83 461 CURVE SMOOTH",
"83 195 OFFCURVE",
"239 -16 OFFCURVE",
"535 -16 CURVE SMOOTH"
);
},
{
closed = 1;
nodes = (
"357 144 OFFCURVE",
"260 268 OFFCURVE",
"260 459 CURVE SMOOTH",
"260 696 OFFCURVE",
"410 916 OFFCURVE",
"657 916 CURVE SMOOTH",
"847 916 OFFCURVE",
"946 789 OFFCURVE",
"946 601 CURVE SMOOTH",
"946 365 OFFCURVE",
"790 144 OFFCURVE",
"544 144 CURVE SMOOTH"
);
}
);
width = 1206;
}
);
leftKerningGroup = LAT_O_LC;
rightKerningGroup = LAT_O_LC;
},
{
glyphname = oe;
lastChange = "2023-05-23 02:53:39 +0000";
layers = (
{
anchors = (
{
name = bottom;
position = "{879, 0}";
},
{
name = top;
position = "{1087, 1048}";
}
);
background = {
paths = (
{
closed = 1;
nodes = (
"749 -16 OFFCURVE",
"933 184 OFFCURVE",
"991 472 CURVE SMOOTH",
"1055 792 OFFCURVE",
"927 1064 OFFCURVE",
"627 1064 CURVE SMOOTH",
"373 1064 OFFCURVE",
"181 868 OFFCURVE",
"123 582 CURVE SMOOTH",
"59 262 OFFCURVE",
"199 -16 OFFCURVE",
"497 -16 CURVE SMOOTH"
);
},
{
closed = 1;
nodes = (
"241 40 OFFCURVE",
"123 280 OFFCURVE",
"181 570 CURVE SMOOTH",
"231 828 OFFCURVE",
"403 1008 OFFCURVE",
"625 1008 CURVE SMOOTH",
"879 1008 OFFCURVE",
"993 772 OFFCURVE",
"933 482 CURVE SMOOTH",
"881 226 OFFCURVE",
"721 40 OFFCURVE",
"499 40 CURVE SMOOTH"
);
},
{
closed = 1;
nodes = (
"1443 -16 OFFCURVE",
"1549 42 OFFCURVE",
"1621 102 CURVE",
"1599 160 LINE",
"1519 88 OFFCURVE",
"1425 40 OFFCURVE",
"1309 40 CURVE SMOOTH",
"1083 40 OFFCURVE",
"953 204 OFFCURVE",
"1005 498 CURVE SMOOTH",
"1055 774 OFFCURVE",
"1241 1008 OFFCURVE",
"1455 1008 CURVE SMOOTH",
"1649 1008 OFFCURVE",
"1753 822 OFFCURVE",
"1705 562 CURVE",
"1001 562 LINE",
"989 506 LINE",
"1751 506 LINE",
"1759 542 OFFCURVE",
"1753 508 OFFCURVE",
"1759 544 CURVE SMOOTH",
"1813 846 OFFCURVE",
"1691 1064 OFFCURVE",
"1457 1064 CURVE SMOOTH",
"1225 1064 OFFCURVE",
"995 848 OFFCURVE",
"949 490 CURVE SMOOTH",
"911 198 OFFCURVE",
"1037 -16 OFFCURVE",
"1305 -16 CURVE SMOOTH"
);
}
);
};
layerId = "AB099EFE-E788-4EFC-8633-CF147CB782A6";
paths = (
{
closed = 1;
nodes = (
"808 -16 OFFCURVE",
"1007 298 OFFCURVE",
"1007 619 CURVE SMOOTH",
"1007 878 OFFCURVE",
"877 1064 OFFCURVE",
"630 1064 CURVE SMOOTH",
"314 1064 OFFCURVE",
"109 761 OFFCURVE",
"109 441 CURVE SMOOTH",
"109 179 OFFCURVE",
"247 -16 OFFCURVE",
"494 -16 CURVE SMOOTH"
);
},
{
closed = 1;
nodes = (
"284 40 OFFCURVE",
"167 206 OFFCURVE",
"167 437 CURVE SMOOTH",
"167 720 OFFCURVE",
"343 1008 OFFCURVE",
"625 1008 CURVE SMOOTH",
"834 1008 OFFCURVE",
"949 851 OFFCURVE",
"949 620 CURVE SMOOTH",
"949 335 OFFCURVE",
"775 40 OFFCURVE",
"494 40 CURVE SMOOTH"
);
},
{
closed = 1;
nodes = (
"1443 -16 OFFCURVE",
"1549 42 OFFCURVE",
"1621 102 CURVE",
"1599 160 LINE",
"1519 88 OFFCURVE",
"1426 40 OFFCURVE",
"1306 40 CURVE SMOOTH",
"1116 40 OFFCURVE",
"994 159 OFFCURVE",
"994 380 CURVE SMOOTH",
"994 662 OFFCURVE",
"1192 1008 OFFCURVE",
"1455 1008 CURVE SMOOTH",
"1617 1008 OFFCURVE",
"1719 878 OFFCURVE",
"1719 683 CURVE SMOOTH",
"1719 645 OFFCURVE",
"1715 604 OFFCURVE",
"1707 562 CURVE",
"1001 562 LINE",
"989 506 LINE",
"1753 506 LINE",
"1766 566 OFFCURVE",
"1774 617 OFFCURVE",
"1774 677 CURVE SMOOTH",
"1774 909 OFFCURVE",
"1656 1064 OFFCURVE",
"1454 1064 CURVE SMOOTH",
"1153 1064 OFFCURVE",
"942 718 OFFCURVE",
"942 397 CURVE SMOOTH",
"942 149 OFFCURVE",
"1068 -16 OFFCURVE",
"1303 -16 CURVE SMOOTH"
);
}
);
width = 1864;
},
{
anchors = (
{
name = bottom;
position = "{807, 0}";
},
{
name = top;
position = "{995, 1080}";
}
);
background = {
paths = (
{
closed = 1;
nodes = (
"766 -16 OFFCURVE",
"1001 250 OFFCURVE",
"1051 514 CURVE SMOOTH",
"1106 801 OFFCURVE",
"946 1096 OFFCURVE",
"633 1096 CURVE SMOOTH",
"369 1096 OFFCURVE",
"127 885 OFFCURVE",
"64 577 CURVE SMOOTH",
"-5 239 OFFCURVE",
"188 -16 OFFCURVE",
"474 -16 CURVE SMOOTH"
);
},
{
closed = 1;
nodes = (
"407 280 OFFCURVE",
"362 379 OFFCURVE",
"383 524 CURVE SMOOTH",
"406 682 OFFCURVE",
"494 798 OFFCURVE",
"618 798 CURVE SMOOTH",
"734 798 OFFCURVE",
"780 696 OFFCURVE",
"765 564 CURVE SMOOTH",
"749 426 OFFCURVE",
"673 280 OFFCURVE",
"527 280 CURVE SMOOTH"
);
},
{
closed = 1;
nodes = (
"1389 -16 OFFCURVE",
"1505 6 OFFCURVE",
"1595 54 CURVE",
"1493 316 LINE",
"1467 292 OFFCURVE",
"1358 258 OFFCURVE",
"1277 258 CURVE SMOOTH",
"1137 258 OFFCURVE",
"1036 361 OFFCURVE",
"1045 510 CURVE SMOOTH",
"1053 636 OFFCURVE",
"1143 818 OFFCURVE",
"1309 818 CURVE SMOOTH",
"1383 818 OFFCURVE",
"1489 782 OFFCURVE",
"1471 652 CURVE",
"1053 652 LINE",
"1017 422 LINE",
"1717 422 LINE",
"1733 461 OFFCURVE",
"1746 514 OFFCURVE",
"1753 555 CURVE SMOOTH",
"1807 871 OFFCURVE",
"1616 1096 OFFCURVE",
"1351 1096 CURVE SMOOTH",
"1096 1096 OFFCURVE",
"867 887 OFFCURVE",
"817 552 CURVE SMOOTH",
"766 211 OFFCURVE",
"932 -16 OFFCURVE",
"1281 -16 CURVE SMOOTH"
);
}
);
};
layerId = "2D8F7115-C311-411E-929D-56333CF7FFB2";
paths = (
{
closed = 1;
nodes = (
"790 -16 OFFCURVE",
"1062 304 OFFCURVE",
"1062 627 CURVE SMOOTH",
"1062 873 OFFCURVE",
"905 1096 OFFCURVE",
"632 1096 CURVE SMOOTH",
"304 1096 OFFCURVE",
"50 775 OFFCURVE",
"50 447 CURVE SMOOTH",
"50 173 OFFCURVE",
"227 -16 OFFCURVE",
"472 -16 CURVE SMOOTH"
);
},
{
closed = 1;
nodes = (
"426 280 OFFCURVE",
"378 349 OFFCURVE",
"378 465 CURVE SMOOTH",
"378 620 OFFCURVE",
"465 798 OFFCURVE",
"619 798 CURVE SMOOTH",
"720 798 OFFCURVE",
"768 721 OFFCURVE",
"768 605 CURVE SMOOTH",
"768 447 OFFCURVE",
"678 280 OFFCURVE",
"525 280 CURVE SMOOTH"
);
},
{
closed = 1;
nodes = (
"1393 -16 OFFCURVE",
"1523 13 OFFCURVE",
"1596 54 CURVE",
"1494 316 LINE",
"1467 295 OFFCURVE",
"1385 258 OFFCURVE",
"1292 258 CURVE SMOOTH",
"1167 258 OFFCURVE",
"1049 326 OFFCURVE",
"1049 509 CURVE SMOOTH",
"1049 656 OFFCURVE",
"1125 824 OFFCURVE",
"1313 824 CURVE SMOOTH",
"1414 824 OFFCURVE",
"1472 776 OFFCURVE",
"1472 690 CURVE SMOOTH",
"1472 670 OFFCURVE",
"1469 652 OFFCURVE",
"1466 638 CURVE",
"1008 638 LINE",
"974 426 LINE",
"1716 426 LINE",
"1745 499 OFFCURVE",
"1763 577 OFFCURVE",
"1763 659 CURVE SMOOTH",
"1763 921 OFFCURVE",
"1593 1096 OFFCURVE",
"1355 1096 CURVE SMOOTH",
"1038 1096 OFFCURVE",
"780 786 OFFCURVE",
"780 448 CURVE SMOOTH",
"780 173 OFFCURVE",
"951 -16 OFFCURVE",
"1269 -16 CURVE SMOOTH"
);
}
);
width = 1804;
},
{
anchors = (
{
name = bottom;
position = "{848, 0}";
},
{
name = top;
position = "{1049, 1060}";
}
);
background = {
paths = (
{
closed = 1;
nodes = (
"769 -16 OFFCURVE",
"977 203 OFFCURVE",
"1034 484 CURVE SMOOTH",
"1097 794 OFFCURVE",
"954 1076 OFFCURVE",
"642 1076 CURVE SMOOTH",
"379 1076 OFFCURVE",
"161 876 OFFCURVE",
"100 580 CURVE SMOOTH",
"33 253 OFFCURVE",
"198 -16 OFFCURVE",
"498 -16 CURVE SMOOTH"
);
},
{
closed = 1;
nodes = (
"301 141 OFFCURVE",
"216 325 OFFCURVE",
"262 556 CURVE SMOOTH",
"307 780 OFFCURVE",
"445 920 OFFCURVE",
"632 920 CURVE SMOOTH",
"849 920 OFFCURVE",
"929 732 OFFCURVE",
"888 516 CURVE SMOOTH",
"851 316 OFFCURVE",
"720 141 OFFCURVE",
"513 141 CURVE SMOOTH"
);
},
{
closed = 1;
nodes = (
"1447 -16 OFFCURVE",
"1552 30 OFFCURVE",
"1632 84 CURVE",
"1582 236 LINE",
"1520 182 OFFCURVE",
"1421 140 OFFCURVE",
"1312 140 CURVE SMOOTH",
"1121 140 OFFCURVE",
"1016 268 OFFCURVE",
"1052 502 CURVE SMOOTH",
"1085 720 OFFCURVE",
"1226 920 OFFCURVE",
"1422 920 CURVE SMOOTH",
"1575 920 OFFCURVE",
"1655 799 OFFCURVE",
"1618 602 CURVE",
"1052 602 LINE",
"1028 462 LINE",
"1758 462 LINE",
"1763 481 OFFCURVE",
"1769 510 OFFCURVE",
"1776 547 CURVE SMOOTH",
"1833 860 OFFCURVE",
"1675 1076 OFFCURVE",
"1436 1076 CURVE SMOOTH",
"1194 1076 OFFCURVE",
"956 855 OFFCURVE",
"910 516 CURVE SMOOTH",
"868 206 OFFCURVE",
"1014 -16 OFFCURVE",
"1312 -16 CURVE SMOOTH"
);
}
);
};
layerId = "8CC1EFAB-F3CB-44D1-8974-978FC52DD9AB";
paths = (
{
closed = 1;
nodes = (
"818 -16 OFFCURVE",
"1049 294 OFFCURVE",
"1049 620 CURVE SMOOTH",
"1049 876 OFFCURVE",
"906 1076 OFFCURVE",
"643 1076 CURVE SMOOTH",
"317 1076 OFFCURVE",
"86 770 OFFCURVE",
"86 445 CURVE SMOOTH",
"86 177 OFFCURVE",
"243 -16 OFFCURVE",
"497 -16 CURVE SMOOTH"
);
},
{
closed = 1;
nodes = (
"338 141 OFFCURVE",
"251 264 OFFCURVE",
"251 449 CURVE SMOOTH",
"251 685 OFFCURVE",
"394 920 OFFCURVE",
"635 920 CURVE SMOOTH",
"813 920 OFFCURVE",
"898 791 OFFCURVE",
"898 613 CURVE SMOOTH",
"898 376 OFFCURVE",
"747 141 OFFCURVE",
"510 141 CURVE SMOOTH"
);
},
{
closed = 1;
nodes = (
"1447 -16 OFFCURVE",
"1552 30 OFFCURVE",
"1632 84 CURVE",
"1582 236 LINE",
"1520 182 OFFCURVE",
"1421 140 OFFCURVE",
"1311 140 CURVE SMOOTH",
"1146 140 OFFCURVE",
"1045 235 OFFCURVE",
"1045 422 CURVE SMOOTH",
"1045 654 OFFCURVE",
"1199 920 OFFCURVE",
"1423 920 CURVE SMOOTH",
"1550 920 OFFCURVE",
"1627 835 OFFCURVE",
"1627 692 CURVE SMOOTH",
"1627 664 OFFCURVE",
"1624 634 OFFCURVE",
"1618 602 CURVE",
"1052 602 LINE",
"1028 462 LINE",
"1758 462 LINE",
"1781 549 OFFCURVE",
"1787 612 OFFCURVE",
"1787 664 CURVE SMOOTH",
"1787 918 OFFCURVE",
"1647 1076 OFFCURVE",
"1435 1076 CURVE SMOOTH",
"1128 1076 OFFCURVE",
"903 745 OFFCURVE",
"903 419 CURVE SMOOTH",
"903 158 OFFCURVE",
"1048 -16 OFFCURVE",
"1312 -16 CURVE SMOOTH"
);
}
);
width = 1858;
}
);
leftKerningGroup = LAT_O_LC;
leftMetricsKey = o;
rightKerningGroup = LAT_E_LC;
rightMetricsKey = e;
unicode = 0153;
},
{
glyphname = p;
lastChange = "2023-05-23 02:53:39 +0000";
layers = (
{
anchors = (
{
name = bottom;
position = "{17, -420}";
},
{
name = top;
position = "{679, 1048}";
}
);
components = (
{
name = _part.bowl;
}
);
layerId = "AB099EFE-E788-4EFC-8633-CF147CB782A6";
paths = (
{
closed = 1;
nodes = (
"47 -420 LINE",
"182 256 LINE",
"200 256 LINE",
"184 324 LINE",
"280 796 LINE",
"310 861 LINE",
"302 861 LINE",
"340 1048 LINE",
"278 1048 LINE",
"-14 -420 LINE"
);
}
);
width = 1157;
},
{
anchors = (
{
name = bottom;
position = "{104, -420}";
},
{
name = top;
position = "{768, 1080}";
}
);
components = (
{
name = _part.bowl;
}
);
layerId = "2D8F7115-C311-411E-929D-56333CF7FFB2";
paths = (
{
closed = 1;
nodes = (
"284 -420 LINE",
"388 98 LINE",
"438 98 LINE",
"374 250 LINE",
"500 902 LINE",
"586 994 LINE",
"536 994 LINE",
"554 1080 LINE",
"228 1080 LINE",
"-72 -420 LINE"
);
}
);
width = 1245;
},
{
anchors = (
{
name = bottom;
position = "{33, -420}";
},
{
name = top;
position = "{721, 1060}";
}
);
components = (
{
alignment = -1;
name = _part.bowl;
}
);
layerId = "8CC1EFAB-F3CB-44D1-8974-978FC52DD9AB";
paths = (
{
closed = 1;
nodes = (
"119 -420 LINE",
"237 168 LINE",
"267 168 LINE",
"237 282 LINE",
"349 838 LINE",
"413 920 LINE",
"380 920 LINE",
"408 1060 LINE",
"241 1060 LINE",
"-57 -420 LINE"
);
}
);
width = 1184;
}
);
leftKerningGroup = LAT_P_LC;
rightKerningGroup = LAT_O_LC;
rightMetricsKey = o;
unicode = 0070;
},
{
color = 4;
glyphname = p.ss01;
lastChange = "2023-05-23 02:53:39 +0000";
layers = (
{
anchors = (
{
name = bottom;
position = "{12, -420}";
},
{
name = top;
position = "{669, 1048}";
}
);
components = (
{
name = _part.bowl.ss01;
}
);
layerId = "AB099EFE-E788-4EFC-8633-CF147CB782A6";
paths = (
{
closed = 1;
nodes = (
"43 -420 LINE",
"176 250 LINE",
"206 250 LINE",
"176 334 LINE",
"266 760 LINE",
"308 835 LINE",
"293 835 LINE",
"335 1048 LINE",
"274 1048 LINE",
"-18 -420 LINE"
);
}
);
width = 1224;
},
{
anchors = (
{
name = bottom;
position = "{100, -420}";
},
{
name = top;
position = "{729, 1080}";
}
);
components = (
{
name = _part.bowl.ss01;
}
);
layerId = "2D8F7115-C311-411E-929D-56333CF7FFB2";
paths = (
{
closed = 1;
nodes = (
"280 -420 LINE",
"384 106 LINE",
"440 106 LINE",
"388 268 LINE",
"508 858 LINE",
"582 974 LINE",
"529 974 LINE",
"551 1080 LINE",
"224 1080 LINE",
"-76 -420 LINE"
);
}
);
width = 1303;
},
{
anchors = (
{
name = bottom;
position = "{27, -420}";
},
{
name = top;
position = "{686, 1060}";
}
);
components = (
{
alignment = -1;
name = _part.bowl.ss01;
}
);
layerId = "8CC1EFAB-F3CB-44D1-8974-978FC52DD9AB";
paths = (
{
closed = 1;
nodes = (
"117 -420 LINE",
"237 176 LINE",
"294 176 LINE",
"236 262 LINE",
"342 798 LINE",
"418 926 LINE",
"380 926 LINE",
"407 1060 LINE",
"240 1060 LINE",
"-58 -420 LINE"
);
}
);
width = 1257;
}
);
leftKerningGroup = LAT_P_LC;
rightKerningGroup = LAT_O_LC;
rightMetricsKey = o;
},
{
glyphname = thorn;
lastChange = "2023-05-23 02:53:39 +0000";
layers = (
{
anchors = (
{
name = bottom;
position = "{398, -49}";
},
{
name = top;
position = "{433, 1647}";
}
);
components = (
{
name = _part.bowl;
}
);
layerId = "AB099EFE-E788-4EFC-8633-CF147CB782A6";
paths = (
{
closed = 1;
nodes = (
"43 -420 LINE",
"179 263 LINE",
"199 263 LINE",
"184 330 LINE",
"280 790 LINE",
"305 855 LINE",
"296 855 LINE",
"433 1540 LINE",
"372 1540 LINE",
"-18 -420 LINE"
);
}
);
width = 1157;
},
{
anchors = (
{
name = bottom;
position = "{459, -49}";
},
{
name = top;
position = "{516, 1647}";
}
);
components = (
{
name = _part.bowl;
}
);
layerId = "2D8F7115-C311-411E-929D-56333CF7FFB2";
paths = (
{
closed = 1;
nodes = (
"277 -420 LINE",
"381 106 LINE",
"431 106 LINE",
"355 230 LINE",
"481 882 LINE",
"633 1016 LINE",
"565 1016 LINE",
"671 1540 LINE",
"311 1540 LINE",
"-79 -420 LINE"
);
}
);
width = 1245;
},
{
anchors = (
{
name = bottom;
position = "{445, -49}";
},
{
name = top;
position = "{464, 1647}";
}
);
components = (
{
alignment = -1;
name = _part.bowl;
}
);
layerId = "8CC1EFAB-F3CB-44D1-8974-978FC52DD9AB";
paths = (
{
closed = 1;
nodes = (
"125 -420 LINE",
"241 158 LINE",
"270 158 LINE",
"243 257 LINE",
"358 840 LINE",
"417 932 LINE",
"393 932 LINE",
"517 1540 LINE",
"341 1540 LINE",
"-53 -420 LINE"
);
}
);
width = 1184;
}
);
leftKerningGroup = LAT_L_LC;
leftMetricsKey = h;
rightKerningGroup = LAT_O_LC;
rightMetricsKey = p;
unicode = 00FE;
},
{
glyphname = thorn.ss01;
lastChange = "2023-05-23 02:53:39 +0000";
layers = (
{
anchors = (
{
name = bottom;
position = "{516, 0}";
},
{
name = top;
position = "{402, 1540}";
}
);
components = (
{
name = _part.bowl.ss01;
}
);
layerId = "AB099EFE-E788-4EFC-8633-CF147CB782A6";
paths = (
{
closed = 1;
nodes = (
"43 -420 LINE",
"178 258 LINE",
"205 258 LINE",
"186 372 LINE",
"264 757 LINE",
"320 825 LINE",
"291 825 LINE",
"433 1540 LINE",
"372 1540 LINE",
"-18 -420 LINE"
);
}
);
width = 1224;
},
{
anchors = (
{
name = bottom;
position = "{639, 0}";
},
{
name = top;
position = "{479, 1540}";
}
);
components = (
{
name = _part.bowl.ss01;
}
);
layerId = "2D8F7115-C311-411E-929D-56333CF7FFB2";
paths = (
{
closed = 1;
nodes = (
"279 -420 LINE",
"383 110 LINE",
"429 110 LINE",
"383 214 LINE",
"515 840 LINE",
"595 988 LINE",
"558 988 LINE",
"667 1540 LINE",
"311 1540 LINE",
"-79 -420 LINE"
);
}
);
width = 1303;
},
{
anchors = (
{
name = bottom;
position = "{579, 0}";
},
{
name = top;
position = "{420, 1540}";
}
);
components = (
{
alignment = -1;
name = _part.bowl.ss01;
}
);
layerId = "8CC1EFAB-F3CB-44D1-8974-978FC52DD9AB";
paths = (
{
closed = 1;
nodes = (
"122 -420 LINE",
"242 178 LINE",
"303 178 LINE",
"251 326 LINE",
"345 808 LINE",
"437 930 LINE",
"391 930 LINE",
"512 1540 LINE",
"337 1540 LINE",
"-53 -420 LINE"
);
}
);
width = 1257;
}
);
leftKerningGroup = LAT_L_LC;
leftMetricsKey = h;
rightKerningGroup = LAT_O_LC;
rightMetricsKey = p;
},
